{"glyphs":{"0":{"ha":563,"x_min":-19,"x_max":528,"o":"m 44 74 q 17 97 25 86 q 0 131 8 108 q -15 192 -10 161 q -17 254 -19 222 q 1 392 -15 322 q 46 530 18 463 q 111 659 74 597 q 194 771 149 721 q 235 803 210 792 q 194 745 211 772 q 167 689 176 718 q 243 778 206 731 q 256 792 247 783 q 275 808 265 800 q 295 822 285 817 q 314 828 306 828 q 339 819 322 828 q 348 815 343 817 q 357 810 353 813 q 364 754 406 786 q 331 722 344 739 q 303 686 317 706 q 299 671 296 679 q 327 694 315 682 q 357 713 339 706 q 361 701 364 706 q 354 692 358 696 q 263 559 296 629 q 201 415 229 489 q 178 343 189 379 q 171 268 168 307 q 192 214 171 239 q 214 200 203 203 q 242 201 225 197 q 311 261 289 214 q 363 381 339 321 q 394 504 386 440 q 402 562 399 533 q 408 618 406 590 q 407 678 411 649 q 400 738 403 707 q 398 744 399 740 q 401 751 397 747 q 413 739 410 746 q 417 724 415 732 q 420 709 418 717 q 429 694 422 701 q 401 817 425 757 q 395 832 399 824 q 399 843 392 840 q 415 842 410 850 q 428 828 421 835 q 458 793 446 813 q 483 753 471 774 q 486 769 488 763 q 482 782 485 775 q 482 788 482 785 q 489 793 482 792 q 501 786 499 796 q 515 753 510 774 q 524 710 521 733 q 527 666 526 688 q 528 631 528 644 q 510 465 526 556 q 459 289 494 374 q 367 136 424 204 q 232 39 311 68 q 211 33 222 35 q 188 32 200 32 q 126 43 157 32 q 75 74 94 54 q 41 109 56 90 q 18 150 26 128 q 25 112 14 129 q 44 74 36 94 m 239 151 q 175 160 200 147 q 131 196 150 172 q 179 136 135 150 q 239 151 211 128 z "},"1":{"ha":407,"x_min":69,"x_max":476,"o":"m 175 85 q 178 113 172 100 q 185 139 185 125 q 141 60 158 100 q 99 -21 124 19 q 105 40 101 10 q 113 106 108 71 q 91 76 96 92 q 69 49 86 60 q 133 333 93 194 q 208 611 172 472 q 185 608 194 614 q 161 606 175 603 q 188 621 172 617 q 217 636 203 625 q 193 634 203 639 q 174 631 183 629 q 163 630 168 631 q 153 633 157 629 q 151 643 149 639 q 156 653 153 647 q 167 665 160 660 q 183 674 175 669 q 209 685 196 679 q 239 697 222 690 q 214 696 224 700 q 194 689 204 692 q 156 699 164 683 q 153 725 149 710 q 168 744 157 740 q 232 769 201 760 q 253 778 243 774 q 268 794 264 782 q 276 804 271 801 q 288 796 281 807 q 299 792 293 789 q 310 796 304 794 q 383 817 346 807 q 457 836 419 828 q 476 839 467 840 q 447 823 464 826 q 418 810 431 819 q 433 807 428 808 q 444 807 439 806 q 454 812 449 808 q 468 822 460 815 q 469 797 475 810 q 466 788 467 793 q 463 779 465 783 l 451 742 q 448 732 449 736 q 444 722 447 728 q 358 519 399 621 q 278 313 317 417 q 232 200 256 256 q 181 90 208 144 q 175 85 181 90 z "},"2":{"ha":571,"x_min":-100,"x_max":568,"o":"m 260 296 q 247 286 256 292 q 289 336 265 313 q 329 388 313 360 q 319 388 322 390 q 314 382 317 385 q 241 315 276 350 q 161 253 206 281 q 151 246 157 250 q 144 233 146 242 q 293 240 219 233 q 442 239 367 246 q 398 226 421 228 q 353 215 375 224 q 391 215 372 215 q 429 214 410 215 q 441 215 435 214 q 450 208 447 215 q 449 195 453 201 q 440 186 446 189 q 426 180 433 182 q 411 175 418 178 q 363 159 388 167 q 315 142 339 151 q 354 144 335 139 q 393 143 374 149 q 381 133 389 135 q 367 129 374 132 q 1 32 189 72 q -12 29 -6 31 q -26 28 -19 28 q -44 36 -39 28 q -40 55 -53 50 q -19 65 -26 60 q -29 76 -22 72 q -42 85 -36 79 q -67 67 -57 79 q -100 53 -78 54 q -75 83 -87 68 q -51 114 -62 99 q -26 147 -39 131 q -17 188 -12 164 q -9 206 -19 199 q 14 215 1 213 q 40 225 29 218 q 61 243 51 232 q 159 352 111 297 q 254 463 207 407 q 315 534 285 499 q 378 606 346 569 q 395 628 388 617 q 406 653 403 639 q 383 675 410 675 q 325 660 351 678 q 311 651 318 656 q 297 642 304 647 l 239 608 q 225 599 232 603 q 211 590 218 594 q 294 674 249 636 q 253 651 274 668 q 186 597 221 624 q 121 540 151 571 q 106 526 114 533 q 85 522 97 518 q 73 535 72 525 q 71 553 74 544 q 85 611 61 588 q 99 635 94 622 q 89 664 104 649 q 88 674 85 668 q 93 685 90 679 q 128 726 106 707 q 238 797 181 767 q 367 839 296 828 q 426 839 396 843 q 482 822 456 835 q 528 792 508 810 q 557 751 547 774 q 558 688 568 718 q 513 576 546 632 q 439 469 481 521 q 350 374 397 418 q 260 296 303 329 m 264 775 q 354 797 311 786 q 446 800 397 807 q 382 819 418 819 q 264 775 324 819 z "},"3":{"ha":525,"x_min":-57,"x_max":536,"o":"m 161 79 q 131 63 146 72 q 94 54 117 54 l 138 83 q 86 69 108 81 q 40 47 64 57 q -9 27 15 36 q -57 7 -33 18 q 22 69 -21 42 q 101 132 64 96 q 71 124 85 131 q 44 110 57 117 q 17 96 31 103 q -14 85 3 89 q 6 111 -6 101 q 29 131 18 121 q 134 214 79 175 q 242 293 189 253 q 276 320 260 307 q 307 350 293 333 q 314 371 318 365 q 290 379 310 376 q 231 377 260 382 q 174 364 201 372 q 153 356 163 360 q 128 350 143 351 q 162 372 143 365 q 199 389 181 378 q 167 385 181 390 q 142 376 154 379 q 117 367 129 372 q 94 357 106 363 q 67 354 75 350 q 56 375 58 358 q 52 385 53 381 q 42 393 51 389 q 42 417 11 403 q 61 426 51 422 q 82 433 71 429 q 115 453 100 439 q 102 456 108 457 q 90 453 96 456 q 77 450 83 451 q 64 451 71 449 q 95 478 79 467 q 129 501 111 490 q 206 551 169 525 q 278 603 242 576 q 318 638 301 619 q 354 676 335 657 q 339 700 375 700 q 290 693 315 700 q 239 675 264 686 q 190 651 214 664 q 146 626 165 638 q 134 617 139 622 q 118 614 129 613 q 113 625 113 619 q 111 638 114 631 q 129 669 106 658 q 152 678 136 672 q 185 692 168 685 q 217 706 203 699 q 238 718 232 714 q 210 710 222 715 q 186 701 197 706 q 170 696 178 699 q 154 690 163 693 q 106 697 119 679 q 97 719 99 708 q 103 742 94 731 q 113 754 111 750 q 108 757 113 757 l 106 756 q 101 758 101 756 q 102 763 100 761 q 106 765 104 764 q 231 815 168 793 q 368 831 294 836 q 433 817 404 828 q 483 779 461 806 q 481 803 483 797 q 461 824 478 808 q 513 793 493 821 q 518 711 536 756 q 484 663 508 686 q 431 618 460 639 q 371 580 401 597 q 318 551 340 563 q 297 541 307 546 q 276 526 288 536 q 297 523 288 524 q 317 521 307 522 q 413 474 379 513 q 435 383 446 436 q 427 346 432 364 q 418 308 422 328 q 431 315 429 308 q 440 324 433 321 q 444 321 442 324 q 443 317 444 318 q 410 269 428 293 q 369 225 393 244 q 302 169 336 197 q 235 114 268 142 q 215 98 225 106 q 188 93 206 90 q 175 89 182 94 q 161 79 168 83 m 254 725 q 282 735 278 725 q 269 732 275 735 q 254 725 264 729 z "},"4":{"ha":568,"x_min":-37,"x_max":599,"o":"m 460 478 q 455 465 457 471 q 450 453 453 460 q 461 439 446 440 q 478 440 469 439 q 493 435 486 442 q 465 429 479 429 q 439 422 450 429 l 439 415 l 525 415 q 506 388 519 399 q 476 375 493 378 q 417 348 436 368 q 388 297 399 328 q 347 194 368 244 q 303 93 325 144 q 295 75 300 83 q 286 57 290 67 q 285 74 279 65 q 285 92 290 82 q 252 31 267 61 q 221 -31 238 0 q 227 47 219 8 q 238 128 235 86 q 218 99 224 114 q 197 74 213 85 q 201 101 200 88 q 206 129 203 115 q 211 157 208 143 q 217 186 214 171 q 219 200 219 194 l 228 226 q 237 265 232 246 q 244 303 242 283 q 178 287 210 294 q 115 269 147 279 q 68 253 92 263 q 21 236 44 244 q 5 231 14 233 q -11 236 -4 229 q -12 251 -18 244 q 0 264 -7 258 q 10 271 4 269 q 24 275 17 272 q 69 290 46 283 q 111 308 92 296 q 69 302 89 308 q 28 292 49 296 q 11 288 19 290 q -6 285 3 285 q -25 293 -17 285 q -33 317 -37 304 q -25 340 -28 329 q -11 354 -22 350 q 3 365 0 358 q 1 381 6 372 q 1 399 -3 389 q 35 470 17 435 q 78 539 54 506 q 108 585 94 561 q 133 633 122 608 q 180 719 153 678 q 231 806 207 761 q 261 821 240 821 q 292 807 282 821 q 292 792 296 800 q 286 780 289 786 q 281 765 283 774 q 313 783 299 767 q 321 795 317 790 q 329 806 325 800 q 338 814 333 810 q 349 815 342 818 q 356 806 354 810 q 353 793 357 800 q 343 782 350 789 q 346 769 339 775 q 360 750 360 754 q 349 731 360 746 q 261 622 304 675 q 178 511 218 568 q 169 499 174 506 q 161 481 164 493 q 203 526 185 504 q 247 563 221 547 q 241 554 244 558 q 233 546 238 550 l 207 511 q 173 465 190 488 q 139 419 156 443 q 206 420 175 417 q 268 425 236 424 q 284 441 279 425 q 290 465 289 457 q 335 628 308 549 q 385 792 363 708 q 390 808 388 800 q 407 822 393 817 q 444 804 413 800 q 463 785 465 806 q 460 765 461 775 q 461 744 458 756 q 485 794 479 769 q 501 815 489 813 q 529 818 514 818 q 566 819 549 818 q 592 842 583 821 q 597 825 599 832 q 593 811 594 818 q 581 771 589 790 q 565 732 574 751 q 512 605 538 668 q 460 478 486 542 m 149 468 q 135 455 139 461 q 129 438 131 449 q 149 468 144 451 m 114 308 q 132 309 124 306 q 149 318 140 313 q 114 308 131 319 z "},"5":{"ha":651,"x_min":0,"x_max":708,"o":"m 540 774 q 622 770 581 772 q 708 761 664 768 q 621 737 663 750 q 536 714 579 724 l 565 710 q 548 699 558 700 q 528 694 538 697 q 440 680 483 688 q 351 665 396 672 q 325 656 335 663 q 311 635 315 650 q 292 585 303 610 q 272 536 282 560 q 285 532 279 531 q 296 535 290 533 q 353 539 325 539 q 426 531 386 539 q 502 504 467 522 q 561 457 538 486 q 585 388 585 428 q 571 412 576 401 q 558 432 565 422 q 514 454 544 453 q 549 372 546 414 q 542 286 553 331 q 515 233 536 260 q 465 184 493 207 q 406 144 436 161 q 353 118 376 126 q 280 84 322 103 q 207 60 238 65 q 244 94 224 79 q 286 124 265 108 q 274 124 279 126 q 265 118 268 121 q 219 92 242 106 q 174 64 197 78 q 169 61 171 63 q 164 58 167 60 l 143 47 q 132 42 138 46 q 126 42 128 40 q 122 45 124 43 q 117 49 119 47 q 110 47 114 50 q 79 33 92 38 q 76 32 76 32 q 72 31 75 32 l 57 25 q 54 24 56 24 q 50 22 53 24 q 34 17 42 19 q 18 11 26 14 q 8 9 13 10 q 0 8 4 8 q 13 22 6 18 q 26 32 19 26 q 103 83 65 58 q 179 136 142 108 q 344 275 267 197 q 365 333 369 300 q 353 361 363 353 q 319 372 343 369 q 242 375 281 378 q 165 363 203 372 q 140 356 153 358 q 115 351 128 354 q 132 363 122 360 q 153 372 142 367 q 236 404 193 392 q 223 408 229 407 q 210 408 217 408 q 175 404 192 408 q 135 393 154 400 q 96 379 115 386 q 89 377 93 378 q 81 379 85 376 q 77 385 76 382 q 79 392 78 389 q 85 408 82 400 q 90 422 88 415 q 115 508 107 464 q 122 538 118 524 q 129 567 125 551 l 146 625 q 108 665 157 665 q 95 665 101 665 q 82 668 89 665 q 101 679 89 678 q 124 688 113 681 q 119 701 124 694 q 119 717 115 708 q 147 738 126 728 q 151 750 156 742 q 148 779 142 765 q 158 808 154 793 q 196 829 167 831 q 319 823 258 824 q 442 817 379 822 q 558 810 500 811 q 675 803 617 810 q 608 790 642 794 q 540 774 574 785 m 419 469 q 361 482 396 490 q 390 473 375 474 q 419 469 404 472 z "},"6":{"ha":547,"x_min":-53,"x_max":518,"o":"m 457 301 q 435 249 451 281 q 400 183 419 217 q 360 119 381 149 q 328 75 340 90 q 260 18 300 42 l 314 82 q 297 76 303 82 q 285 65 292 69 q 269 55 276 60 q 254 46 261 50 q 200 20 228 28 q 143 13 172 13 q 77 22 110 13 q 18 49 44 31 q -26 95 -8 68 q -49 157 -44 122 q -44 256 -53 208 q -17 353 -35 304 q 38 467 4 407 q 110 587 71 528 q 191 700 149 646 q 274 796 233 754 q 309 817 290 811 q 351 819 328 822 q 360 819 356 819 q 368 815 365 818 q 385 798 375 804 q 411 793 394 792 q 419 788 418 793 q 419 776 421 782 q 414 765 418 769 q 406 756 410 761 l 343 689 l 347 685 q 403 736 375 711 q 458 786 431 761 q 473 799 465 793 q 493 801 481 804 q 501 781 518 797 q 414 700 456 740 q 333 618 372 660 q 258 531 294 576 q 189 432 222 485 q 149 359 165 396 q 115 285 132 322 q 101 178 93 233 q 111 149 104 157 q 133 142 118 142 q 178 153 156 142 q 222 183 201 165 q 258 223 242 201 q 283 263 274 244 q 292 288 290 274 q 257 308 296 319 q 210 288 231 301 q 168 261 190 275 q 151 253 163 257 q 174 284 160 271 q 201 310 188 297 q 234 337 217 324 q 268 369 251 350 q 206 336 231 357 q 154 300 182 315 l 154 303 l 153 304 q 218 376 189 339 q 286 444 247 413 q 338 478 310 464 q 397 493 365 493 q 469 438 454 493 q 472 368 478 401 q 457 301 465 335 m 104 104 q 147 85 126 85 q 190 110 169 85 q 163 103 175 106 q 135 100 150 100 q 104 104 121 100 z "},"7":{"ha":824,"x_min":69,"x_max":754,"o":"m 682 761 q 672 758 676 760 q 663 756 668 757 l 622 744 q 613 742 618 743 q 603 739 608 740 q 607 728 601 731 q 618 724 613 726 q 644 696 640 710 q 632 663 647 682 q 628 657 629 660 q 624 651 626 654 l 604 628 q 596 617 601 625 q 501 480 549 547 q 399 346 453 413 q 337 262 365 306 q 278 175 308 218 q 240 139 263 151 q 248 152 244 146 q 256 165 251 158 l 285 219 q 300 246 293 232 q 244 178 271 213 q 190 108 217 143 q 133 38 163 72 q 69 -29 104 4 q 162 143 114 60 q 253 313 210 226 q 208 253 226 285 q 160 194 189 222 q 160 211 156 206 q 167 222 164 217 q 206 303 188 263 q 243 383 224 343 q 289 467 264 426 q 342 549 314 508 q 376 605 360 576 q 408 664 392 633 q 307 650 356 661 q 210 635 258 639 l 210 639 q 208 640 208 640 l 428 696 q 411 701 417 703 q 399 697 406 700 q 297 674 349 685 q 193 658 246 664 q 172 653 182 656 q 150 647 161 651 q 122 649 132 643 q 114 671 111 656 q 126 708 118 699 q 168 724 133 718 q 181 726 175 725 q 192 728 186 726 l 242 735 q 253 737 247 736 q 265 739 258 738 q 221 739 242 743 q 178 733 200 735 q 172 732 175 733 q 164 731 168 731 q 118 749 126 726 q 140 788 110 771 q 150 791 144 790 q 157 797 156 792 q 174 817 160 815 q 203 818 188 818 q 365 818 285 818 q 528 824 446 818 q 600 827 564 826 q 672 826 636 828 q 688 826 679 826 q 704 822 696 825 q 697 806 703 811 q 681 798 690 801 q 661 792 671 794 q 644 783 651 789 q 699 785 672 781 q 754 792 726 789 q 745 783 749 786 q 735 778 742 781 q 716 772 728 775 q 682 761 704 768 z "},"8":{"ha":578,"x_min":-62,"x_max":575,"o":"m 332 78 q 285 49 313 64 q 228 21 258 33 q 169 1 199 8 q 114 -7 139 -7 q 67 -1 90 -7 q 22 15 44 6 l 44 15 q 38 24 44 21 l 33 25 q -56 140 -51 68 q -42 275 -62 211 q 28 397 -22 339 q 82 439 51 422 q 98 448 89 444 q 117 447 107 451 q 127 434 128 442 q 125 418 126 426 q 124 414 125 415 q 126 410 124 413 l 161 422 q 149 434 154 429 q 139 446 144 439 q 92 531 103 486 q 103 625 82 576 q 178 722 129 685 q 283 793 229 763 q 404 824 336 824 q 454 818 432 824 q 519 794 493 810 q 558 756 544 778 q 574 709 572 735 q 567 658 575 683 q 549 612 561 642 q 520 551 536 582 q 486 493 504 519 q 451 458 468 467 q 478 514 465 486 q 499 570 490 542 q 511 628 508 599 q 507 690 514 658 q 498 680 499 685 q 497 671 497 675 q 469 562 492 613 q 413 463 446 511 q 401 439 400 444 q 419 417 401 433 q 473 334 461 376 q 458 242 485 292 q 407 153 435 196 q 332 78 379 111 m 407 726 q 354 700 371 722 l 407 726 m 150 621 q 136 544 128 581 q 176 474 144 507 q 196 461 182 464 q 179 489 186 478 q 169 508 172 500 q 166 524 167 517 q 165 540 165 531 q 181 616 168 581 q 226 683 194 651 q 245 704 236 694 q 265 725 254 714 q 150 621 186 685 m 325 681 q 282 635 301 661 q 258 572 254 599 q 293 514 261 546 q 311 501 306 501 q 329 511 318 501 q 399 598 376 550 q 436 699 422 646 q 419 711 439 714 q 365 691 393 708 q 319 654 336 674 q 317 661 315 658 q 321 667 318 664 q 326 674 324 671 q 325 681 328 676 m 86 169 q 96 131 86 149 q 122 103 106 114 q 161 87 139 92 q 208 88 183 82 q 252 103 229 92 q 294 130 275 114 q 328 166 314 146 q 346 210 342 186 q 275 151 311 179 q 185 117 239 122 q 236 140 213 121 q 294 210 274 172 q 313 294 315 249 q 306 324 314 311 q 283 344 297 338 q 260 359 271 351 q 238 374 249 367 q 224 381 229 378 q 215 383 219 383 q 194 369 208 383 q 158 328 176 351 q 124 278 139 304 q 99 224 108 251 q 86 169 89 196 m 44 81 q 64 69 60 71 q 79 67 68 68 q 65 74 72 71 q 44 81 58 78 z "},"9":{"ha":546,"x_min":-19,"x_max":543,"o":"m 511 490 q 460 375 493 438 q 385 251 426 313 q 301 133 344 189 q 217 38 257 78 q 183 17 201 22 q 143 13 165 11 q 132 13 138 13 q 124 18 126 14 q 106 34 115 28 q 81 40 96 40 q 72 46 74 40 q 72 57 71 51 q 78 68 74 64 q 86 76 82 72 q 144 147 119 110 l 140 143 l 132 136 l 128 132 q 80 90 104 111 q 32 46 56 68 q 18 34 25 39 q 0 31 11 29 q -17 40 -14 33 q -10 51 -19 46 q 3 64 -3 58 q 17 76 10 69 l 71 125 q 233 301 158 206 q 357 506 308 397 q 381 568 371 538 q 392 632 392 599 q 392 645 392 639 q 390 658 392 651 q 374 689 386 682 q 335 689 361 696 q 303 675 317 685 q 246 623 272 650 q 204 563 219 596 q 199 543 201 554 q 208 525 199 531 q 232 524 217 519 q 278 544 258 531 q 321 569 299 557 q 339 579 328 575 q 285 519 319 543 q 219 460 250 494 q 284 496 258 475 q 338 533 310 517 q 339 531 338 532 q 339 529 340 531 q 274 458 303 496 q 206 390 246 421 q 154 355 182 369 q 94 340 126 340 q 46 356 65 340 q 22 400 26 371 q 23 488 14 444 q 51 575 32 532 q 89 646 68 611 q 131 715 110 681 q 221 803 165 772 l 171 743 q 208 768 190 756 q 244 792 225 781 q 292 813 264 806 q 351 819 319 819 q 417 810 385 819 q 476 781 450 800 q 521 734 503 763 q 540 669 539 706 q 535 579 543 624 q 511 490 526 535 m 299 722 q 343 733 322 729 q 388 729 364 736 q 347 749 365 749 q 299 722 325 749 m 344 711 q 304 696 318 711 l 344 711 z "},"\u0000":{"ha":0,"x_min":0,"x_max":0,"o":""},"\r":{"ha":347,"x_min":0,"x_max":0,"o":""}," ":{"ha":210,"x_min":0,"x_max":0,"o":""},"%":{"ha":801,"x_min":65,"x_max":735,"o":"m 728 857 q 728 838 735 849 q 698 786 713 811 q 664 736 683 761 q 535 553 596 647 q 476 476 508 513 q 419 399 444 439 q 417 394 418 396 q 414 390 415 393 l 403 374 q 400 369 401 371 q 397 365 399 368 q 282 217 347 285 q 246 169 263 193 q 213 121 229 144 q 193 97 204 108 q 224 170 201 136 q 257 240 246 204 q 167 122 213 181 q 69 8 122 64 q 97 69 81 40 q 131 128 114 97 q 166 186 149 157 q 194 247 183 215 q 167 214 178 232 q 138 181 156 196 q 136 193 132 186 q 213 337 172 267 q 299 475 254 407 q 392 620 347 547 q 485 764 436 693 q 508 805 499 783 q 532 846 517 826 q 540 858 536 853 q 550 871 544 864 q 585 892 569 892 q 621 878 597 892 q 641 892 633 883 q 656 910 649 900 q 692 924 668 925 q 716 910 710 921 q 714 886 722 900 q 703 872 711 881 q 697 865 700 868 q 694 856 694 861 q 707 854 699 851 q 717 860 713 857 q 728 857 721 864 m 183 518 q 107 528 140 507 q 71 588 74 549 q 79 692 65 640 q 124 788 93 743 q 152 825 136 806 q 188 862 168 844 q 228 892 207 879 q 272 910 250 906 q 301 912 288 913 q 328 899 314 911 q 351 878 339 888 q 378 861 364 868 q 380 869 381 865 q 378 877 379 874 q 375 885 376 881 q 375 893 374 889 q 385 890 382 893 q 392 882 389 886 q 409 844 407 864 q 407 803 411 824 q 249 578 374 665 q 190 549 221 558 q 118 546 158 539 q 147 524 129 526 q 183 518 165 522 m 335 842 q 327 869 333 863 q 299 872 321 875 q 320 860 313 868 q 335 842 328 853 m 176 681 q 172 650 168 667 q 207 636 181 625 q 239 663 225 642 q 274 713 257 688 q 308 763 292 738 q 321 790 318 776 q 324 819 324 803 q 320 833 322 826 q 310 842 318 839 q 294 842 301 844 q 282 835 288 839 q 251 806 267 824 q 176 681 210 747 m 171 631 q 162 631 164 635 q 160 622 160 628 q 174 608 160 611 q 193 609 185 607 q 204 622 201 611 q 171 631 188 622 m 649 367 q 659 367 656 371 q 665 361 663 364 q 684 322 681 342 q 682 281 688 301 q 626 154 665 211 q 521 53 588 97 q 493 35 506 42 q 467 26 481 29 q 435 21 453 22 q 390 19 417 19 q 424 0 406 4 q 467 -1 443 -4 q 451 -11 460 -10 q 436 -11 443 -12 q 374 10 399 -8 q 346 61 349 29 q 354 166 340 114 q 397 263 368 218 q 438 313 417 289 q 486 357 460 336 q 542 385 510 378 q 574 389 560 389 q 604 374 589 389 q 628 353 615 363 q 653 335 640 343 q 654 351 661 344 q 649 367 647 358 m 575 347 q 597 335 590 344 q 611 315 603 326 q 603 344 610 338 q 575 347 596 351 m 599 279 l 599 296 q 586 318 599 311 q 570 318 576 321 q 558 311 564 315 q 524 278 539 297 q 486 220 504 249 q 453 160 468 192 q 447 129 444 147 q 460 110 450 115 q 485 113 471 106 q 501 124 494 117 q 514 138 508 131 q 585 242 551 190 q 599 279 596 257 m 446 86 q 481 97 468 79 q 459 102 468 97 q 439 110 450 107 q 446 86 429 92 z "},"(":{"ha":369,"x_min":-14,"x_max":536,"o":"m 467 1011 q 498 1038 481 1026 q 536 1061 515 1050 q 531 1047 536 1051 q 521 1038 525 1042 q 449 965 485 1001 q 385 889 413 929 q 247 650 303 772 q 165 394 192 528 q 155 219 147 306 q 190 44 163 132 q 196 23 193 33 q 201 1 199 13 q 200 -15 203 -4 q 132 114 160 50 q 85 244 104 178 q 97 163 86 203 q 122 85 107 124 q 155 7 138 46 q 188 -71 172 -32 q 126 -3 158 -47 q 67 102 93 42 q 28 236 42 163 q 22 393 14 310 q 6 337 10 367 q 3 278 3 307 l 1 233 l 1 211 q -8 376 -14 289 q 26 554 -1 464 q 105 733 54 644 q 229 899 156 821 l 150 757 q 163 763 161 758 q 168 772 165 768 q 210 833 189 804 q 260 890 232 863 q 324 952 292 921 q 394 1010 356 983 q 419 1025 401 1015 q 443 1035 436 1035 q 467 1011 453 1035 m 440 1000 q 452 1006 447 1001 q 464 1011 457 1011 q 451 1010 454 1013 q 440 1000 449 1008 z "},")":{"ha":499,"x_min":-83,"x_max":467,"o":"m 224 90 q 243 126 233 108 q 264 161 253 143 q 283 197 274 179 q 303 233 292 214 q 290 227 292 232 q 285 218 288 222 q 242 156 264 186 q 193 100 221 126 q 129 38 161 68 q 60 -21 97 7 l 39 -33 q 10 -46 18 -46 q -14 -22 0 -46 q -44 -49 -26 -37 q -83 -71 -62 -60 q -77 -57 -82 -61 q -68 -47 -72 -53 q 4 25 -32 -11 q 68 101 40 61 q 206 340 150 218 q 288 594 261 461 q 298 772 306 685 q 263 946 290 858 q 257 967 260 957 q 251 988 254 976 q 251 997 251 992 q 253 1006 251 1001 q 321 876 293 940 q 368 744 349 811 q 356 826 367 786 q 331 906 346 867 q 298 983 315 944 q 265 1061 281 1022 q 327 993 294 1038 q 385 888 360 949 q 425 754 411 828 q 431 597 439 681 q 447 653 444 624 q 450 711 450 682 l 451 757 l 451 779 q 460 614 467 701 q 426 436 454 526 q 348 258 399 346 q 224 90 297 169 m -11 -22 q 1 -21 -1 -22 q 13 -11 4 -19 q 1 -16 6 -11 q -11 -22 -4 -21 z "},"*":{"ha":479,"x_min":61,"x_max":442,"o":"m 422 742 q 436 731 442 736 q 422 722 431 726 q 378 702 400 711 q 336 682 357 693 q 306 667 322 676 l 353 618 l 350 615 l 307 640 q 332 601 318 621 q 360 558 346 582 q 317 586 336 574 q 276 610 297 599 q 257 618 260 618 q 250 614 253 618 q 242 601 247 610 q 224 563 229 583 q 210 524 218 543 q 204 535 203 528 q 197 544 206 542 q 180 511 183 529 q 164 476 176 493 q 160 508 158 493 q 163 539 161 524 q 168 569 164 554 q 176 600 172 585 q 151 592 161 599 q 129 585 142 586 q 133 592 128 590 q 139 600 138 594 q 108 590 121 600 q 76 578 96 581 q 96 596 83 590 q 118 611 108 601 q 95 608 106 614 q 71 608 85 603 q 92 628 79 621 q 117 643 106 636 q 142 659 129 651 q 169 675 154 667 q 137 698 154 689 q 103 717 119 707 q 89 725 96 721 q 76 736 82 729 q 86 764 61 756 q 97 769 94 767 q 100 779 99 772 q 121 800 103 800 q 139 794 129 800 q 174 772 158 785 q 208 747 190 760 q 229 788 222 767 q 251 828 236 808 q 256 835 253 829 q 290 849 265 853 q 308 828 311 847 q 322 821 307 814 q 335 824 333 828 q 335 813 338 819 q 326 783 331 797 q 315 753 321 769 q 368 776 343 764 q 425 794 393 789 q 418 774 422 783 q 417 754 414 764 q 417 748 418 751 q 422 742 415 744 z "},"+":{"ha":746,"x_min":68,"x_max":676,"o":"m 667 453 q 676 447 676 453 q 668 438 676 440 q 643 432 656 435 q 618 426 631 429 q 540 411 578 419 q 464 396 503 403 q 436 374 440 392 q 432 363 433 365 l 425 338 q 421 326 424 335 q 372 210 404 267 q 365 222 361 214 q 363 239 368 229 q 304 114 332 175 q 301 211 293 163 q 321 311 310 260 q 298 274 304 293 q 274 238 292 256 q 283 302 279 271 q 292 365 288 333 q 178 347 233 358 q 69 321 124 335 q 81 366 68 353 q 135 389 93 379 q 133 394 138 394 q 125 396 128 394 q 113 428 101 408 q 124 449 118 439 q 136 471 129 460 q 156 485 143 482 q 182 486 169 488 l 206 486 l 251 483 l 274 483 q 300 483 290 483 q 315 487 310 483 q 322 497 319 490 q 328 518 325 504 q 336 556 332 538 q 347 593 340 574 q 369 628 356 619 q 414 633 382 636 q 426 633 421 633 q 436 639 431 633 q 453 649 444 647 q 467 653 460 651 q 481 654 474 654 q 510 646 497 654 q 520 627 524 638 q 513 606 517 617 l 475 503 q 471 483 471 493 q 551 483 511 476 q 633 483 590 489 q 603 469 619 471 q 571 458 586 467 q 595 453 585 453 q 617 454 606 454 l 629 454 l 654 453 l 667 453 z "},"/":{"ha":561,"x_min":-171,"x_max":492,"o":"m 492 767 q 486 750 492 756 q 459 703 472 726 q 429 660 446 681 q 358 563 393 611 q 292 465 324 514 q 236 393 267 428 q 182 318 206 358 q 179 314 181 315 q 176 310 178 313 l 165 294 q 163 290 164 292 q 160 286 161 289 q 42 132 107 200 q 6 88 22 110 q -25 42 -10 65 q -33 28 -29 35 q -43 18 -36 22 q -50 21 -49 21 l 18 151 l 11 154 q -75 36 -32 94 q -171 -76 -118 -22 q -110 42 -147 -14 q -47 160 -74 97 q -76 126 -64 144 q -108 93 -89 108 l -108 103 q -33 247 -71 175 q 56 385 4 318 q 57 388 57 386 q 164 558 106 475 q 271 729 222 642 q 290 761 279 746 q 313 790 301 776 q 344 807 329 807 q 372 799 356 807 q 383 797 379 796 q 393 801 388 797 q 414 824 407 813 q 446 840 426 840 q 465 835 458 840 q 469 797 488 822 q 466 792 468 794 q 463 788 464 790 q 456 780 460 783 q 457 772 453 776 q 465 769 461 767 q 475 775 469 772 q 485 776 482 779 q 492 767 489 772 z "},":":{"ha":215,"x_min":3,"x_max":208,"o":"m 186 567 q 205 568 201 574 q 207 553 208 563 q 206 543 207 547 q 201 533 204 539 q 135 418 171 471 q 126 411 129 413 q 120 426 118 418 q 115 443 122 435 q 114 442 114 443 q 113 442 114 442 l 106 439 q 103 438 104 438 q 65 458 65 429 q 69 506 65 483 l 74 551 q 81 569 75 563 q 104 578 88 576 q 141 581 124 581 q 174 569 158 582 q 186 567 178 564 m 133 332 q 145 332 140 335 q 150 322 150 329 q 146 301 150 313 q 112 235 131 268 q 71 172 93 203 q 62 186 60 179 q 60 200 64 193 q 53 201 57 203 q 44 200 49 200 q 3 229 6 197 q 21 321 3 279 q 41 338 25 332 q 75 344 57 344 q 107 338 93 344 q 119 330 114 333 q 133 332 124 326 z "},";":{"ha":232,"x_min":3,"x_max":211,"o":"m 192 568 q 207 569 203 574 q 211 557 211 565 q 206 535 211 544 q 192 508 203 528 q 169 466 182 488 q 146 428 157 444 q 128 411 135 411 q 124 422 122 417 q 119 435 126 428 q 94 432 107 432 q 69 442 81 432 q 58 463 58 451 q 60 486 57 474 q 61 494 61 490 q 63 501 61 497 l 68 531 q 78 563 71 551 q 110 578 86 575 q 144 581 128 581 q 176 569 161 581 q 192 568 182 564 m 131 329 q 161 310 157 331 q 161 297 161 303 q 158 285 161 292 q 124 201 142 243 q 76 124 107 160 q 64 117 72 115 q 65 159 61 138 q 61 201 69 181 q 47 197 54 199 q 35 196 40 196 q 3 233 6 196 q 19 308 3 274 q 43 335 26 325 q 79 344 60 344 q 113 336 96 344 q 120 331 117 333 q 131 329 124 328 z "},"<":{"ha":599,"x_min":69,"x_max":631,"o":"m 624 642 q 622 628 631 633 q 606 618 613 622 q 585 601 594 610 q 578 578 575 593 q 573 567 581 571 q 558 558 565 563 q 428 488 492 525 q 299 419 365 451 l 283 411 q 281 390 268 403 q 342 315 315 354 q 406 242 368 275 q 417 224 417 233 q 399 231 404 222 q 379 243 393 240 q 413 201 396 221 q 442 156 431 182 q 406 173 419 163 q 376 193 392 183 q 347 211 361 201 q 313 233 332 221 q 334 199 321 214 q 349 165 347 185 q 328 174 336 168 q 314 186 321 179 q 237 251 275 218 q 160 318 199 285 q 146 331 150 326 q 136 335 142 335 q 110 322 133 335 q 69 303 90 308 q 81 324 72 314 q 99 340 89 333 q 113 356 108 349 q 101 374 117 364 q 103 404 82 388 q 125 420 114 411 q 154 424 136 429 q 169 428 165 421 q 213 471 189 451 q 257 514 238 490 q 301 555 276 536 q 346 596 326 574 q 376 626 361 611 q 408 651 392 640 q 424 661 415 657 q 439 658 432 665 q 458 651 451 647 q 474 663 465 656 q 497 672 483 669 q 530 663 517 675 q 536 636 543 651 l 524 615 l 528 613 q 558 626 543 619 q 589 639 574 632 q 607 646 597 642 q 624 642 617 650 z "},"=":{"ha":568,"x_min":-49,"x_max":557,"o":"m 415 481 q 465 479 443 476 q 514 483 488 482 q 479 472 499 472 q 356 453 417 465 q 233 432 296 440 q 221 431 226 431 q 210 429 215 431 l 160 424 q 149 422 154 422 q 136 421 143 422 q 107 425 113 418 q 104 453 101 432 q 80 450 90 451 q 58 447 69 449 q 42 447 50 446 q 29 457 33 449 q 28 478 25 464 q 40 494 32 493 q 64 508 60 497 q 72 531 68 519 q 81 553 76 544 q 91 565 85 561 q 107 569 97 568 q 135 569 117 569 q 201 569 168 569 q 268 567 235 568 q 367 569 318 564 q 465 572 417 574 q 480 572 472 572 q 496 569 488 572 q 475 558 489 558 q 450 551 461 557 q 474 535 460 540 q 502 528 488 531 q 531 520 517 525 q 557 504 546 515 q 488 492 524 494 q 415 481 453 489 m 433 339 q 489 314 465 331 l 310 288 q 385 285 350 281 q 456 286 419 290 q 438 283 447 283 q 421 281 429 282 q 297 265 358 278 q 174 246 236 253 q 106 238 140 243 q 39 229 72 233 q 8 233 14 226 q 10 261 1 239 q -1 259 3 260 q -8 258 -6 258 q -29 256 -19 256 q -44 268 -39 257 q -43 292 -49 279 q -25 307 -37 304 q -11 314 -14 310 q -7 325 -8 318 l 1 350 q 15 374 8 368 q 46 379 22 379 q 108 379 78 379 q 169 378 138 379 q 288 378 229 375 q 406 383 346 382 l 428 383 q 420 374 425 376 q 408 369 415 372 l 394 367 q 389 365 392 365 q 383 363 386 365 q 405 344 390 347 q 433 339 419 342 z "},">":{"ha":536,"x_min":-96,"x_max":465,"o":"m 436 475 q 422 460 426 467 q 433 442 418 453 q 443 427 444 435 q 432 413 442 419 q 410 396 421 404 q 381 392 399 388 q 365 388 369 397 q 322 345 346 364 q 278 303 297 326 q 233 261 258 279 q 189 219 208 243 q 126 164 163 190 q 111 156 119 160 q 96 158 103 151 q 76 165 83 169 q 61 154 69 160 q 38 144 49 144 q 5 153 18 142 q -1 181 -8 165 q 5 191 1 186 q 11 200 8 196 l 7 204 q -24 190 -8 197 q -54 176 -39 183 q -72 170 -62 174 q -89 174 -82 167 q -87 188 -96 183 q -71 199 -78 193 q -50 215 -60 207 q -43 239 -40 222 q -38 250 -46 246 q -24 257 -31 254 q 106 328 43 292 q 236 397 169 364 l 251 406 q 254 426 265 413 q 193 501 219 463 q 129 575 167 540 q 118 592 118 583 q 136 584 131 593 q 156 574 142 575 q 122 615 139 594 q 93 661 106 635 q 129 644 115 654 q 158 624 143 633 q 188 604 174 614 q 222 582 203 594 q 201 617 214 603 q 186 651 188 632 q 206 643 199 649 q 221 631 214 638 q 240 614 231 622 q 260 597 250 606 l 336 532 q 356 515 347 524 q 375 499 365 507 q 389 486 385 490 q 399 482 393 482 q 425 494 403 482 q 445 505 436 500 q 465 514 454 510 q 454 492 463 501 q 436 475 446 483 z "},"A":{"ha":590,"x_min":-108,"x_max":550,"o":"m 531 526 q 540 520 533 522 q 550 511 546 518 q 540 498 547 501 q 524 492 532 494 q 500 478 506 489 q 493 453 494 468 q 484 365 489 408 q 475 276 479 321 q 468 192 471 235 q 457 104 465 149 q 442 144 443 124 q 435 182 442 164 q 416 88 418 136 q 404 -8 414 40 q 387 58 394 24 q 376 128 379 92 q 365 108 365 118 q 361 90 365 99 q 349 112 350 100 q 346 136 347 124 q 331 265 335 200 q 325 394 328 329 q 322 415 324 410 q 313 419 319 419 q 294 415 307 419 q 197 394 246 403 q 178 386 185 392 q 167 369 172 381 q 135 308 151 338 q 101 247 118 278 q 95 233 99 240 q 83 222 92 225 q 90 252 81 238 q 97 286 99 267 q 31 172 60 229 q -32 60 3 114 l 4 194 q -108 26 -64 121 q -83 108 -99 68 q -50 188 -67 149 q -17 267 -33 228 q 13 349 0 307 q 0 350 7 351 q -13 348 -7 349 q -26 347 -19 347 q -37 353 -32 347 q -15 420 -22 385 q 8 490 -7 456 q 36 514 15 511 q 64 519 50 517 q 93 525 78 522 q 79 531 86 529 q 65 532 72 532 q 51 533 58 532 q 39 539 44 533 q 85 547 60 550 q 111 565 104 547 q 156 658 133 613 q 200 753 179 704 q 215 788 207 771 q 235 822 224 806 q 263 853 250 847 q 307 857 275 860 q 311 878 311 868 q 311 900 311 889 q 310 916 313 908 q 319 931 308 924 q 344 938 333 938 q 360 932 354 938 q 382 921 374 921 q 401 936 392 921 q 411 942 403 942 q 422 936 417 942 q 440 923 429 924 q 461 922 450 922 l 471 922 l 490 924 l 500 924 q 524 919 519 922 q 526 896 528 915 q 519 740 524 817 q 506 585 514 664 q 504 564 504 571 q 507 553 504 557 q 517 547 510 549 q 538 542 524 544 q 538 536 540 538 q 533 534 536 535 q 528 532 529 533 q 531 526 526 531 m 308 561 q 318 565 317 561 q 321 575 322 569 q 320 617 319 596 q 317 658 321 638 l 310 658 q 286 617 299 638 q 263 578 274 597 q 261 560 257 568 q 285 559 272 557 q 308 561 297 561 z "},"B":{"ha":653,"x_min":-60,"x_max":675,"o":"m 675 803 q 661 734 672 767 q 626 672 650 701 q 542 585 588 626 q 449 507 497 543 q 456 501 451 501 q 463 500 460 501 q 485 498 474 499 q 507 494 496 497 q 604 436 588 476 q 597 338 621 396 q 490 201 564 256 q 431 163 461 179 q 368 128 400 146 q 180 52 276 79 q -21 10 83 25 q -1 23 -10 17 q 18 36 8 29 q 57 71 40 50 l -60 35 q 1 74 -28 51 q 63 111 29 96 q 86 142 83 118 q 92 188 89 165 q 99 233 96 210 q 81 191 86 214 q 60 149 76 168 q 51 174 49 161 q 56 200 53 188 q 104 424 75 313 q 168 646 133 536 q 193 671 172 661 q 229 672 214 681 q 240 667 236 668 q 250 674 243 665 q 275 689 263 689 q 297 675 286 689 q 301 665 301 669 q 297 656 300 661 q 283 596 286 631 l 292 613 l 310 646 l 318 663 q 367 688 332 692 q 329 592 350 639 q 290 499 308 546 q 340 513 310 499 q 401 551 369 528 q 459 601 432 574 q 500 653 486 628 q 474 632 483 644 q 449 614 464 619 q 451 626 446 621 q 458 638 456 632 q 478 682 474 660 q 476 706 482 694 q 458 724 471 718 q 406 740 433 739 q 350 740 378 742 q 278 731 319 739 q 194 710 238 722 q 112 686 151 699 q 43 663 72 674 q 70 685 57 678 q 92 704 83 693 q 126 747 108 728 q 114 752 121 756 q 104 754 107 749 q 107 763 101 760 q 171 836 150 790 q 191 860 178 851 q 219 874 204 868 q 287 892 253 885 q 354 907 321 899 q 361 909 357 908 q 368 914 365 910 q 290 903 328 914 q 211 886 251 893 q 226 908 215 901 q 247 918 236 914 q 287 928 263 924 q 338 934 311 932 q 390 938 365 936 q 431 939 415 939 q 504 933 463 939 q 584 911 546 926 q 649 869 622 896 q 675 803 675 843 m 207 206 q 331 263 274 232 q 433 343 388 293 q 385 363 410 358 q 335 368 360 368 q 292 365 314 368 q 250 358 271 363 q 233 349 239 356 q 224 332 228 342 q 192 255 208 293 q 157 179 175 217 q 151 170 154 175 q 154 158 149 165 q 285 221 224 179 q 248 213 265 222 q 207 206 231 204 z "},"C":{"ha":521,"x_min":-51,"x_max":619,"o":"m 597 932 q 611 913 619 932 q 595 872 603 892 q 578 832 588 851 q 518 713 546 772 q 463 590 490 653 q 448 561 456 575 q 429 535 440 547 q 432 568 426 554 q 436 597 438 582 q 425 588 428 593 q 419 576 422 582 q 384 502 401 539 q 349 429 367 465 q 331 392 340 410 q 304 354 321 374 q 326 435 314 397 q 342 513 339 474 q 331 507 333 514 q 317 497 328 500 q 335 595 324 547 q 349 692 346 643 q 328 690 336 694 q 314 679 321 685 q 188 549 236 622 q 115 386 140 475 q 114 333 110 361 q 154 275 122 289 q 225 261 186 261 q 278 268 253 261 q 329 286 304 275 q 368 306 349 296 q 408 326 388 317 q 358 263 388 292 q 300 201 329 235 q 360 231 333 213 q 414 267 386 249 q 413 235 417 249 q 401 211 408 222 l 376 167 q 392 168 385 163 q 407 172 399 174 q 303 104 382 131 q 113 72 225 78 q 163 63 139 65 q 211 58 186 61 q 174 49 192 51 q 140 47 157 47 q 18 89 69 47 q -44 200 -33 131 q -44 285 -51 243 q -26 368 -36 326 q 11 483 -15 421 q 72 607 38 546 q 144 724 106 668 q 219 819 183 779 q 234 836 226 828 q 253 850 242 844 q 249 836 256 842 q 244 821 242 831 q 313 880 281 850 q 389 929 346 910 q 381 911 389 918 q 369 893 372 904 q 421 847 407 885 q 438 874 433 861 q 450 901 443 888 q 476 926 463 926 q 499 918 485 926 q 510 915 506 914 q 521 919 514 917 q 558 930 539 929 q 597 932 578 931 z "},"D":{"ha":590,"x_min":-69,"x_max":644,"o":"m 617 814 q 635 663 644 736 q 582 517 625 590 q 425 303 514 400 q 225 125 336 207 q 134 71 182 93 q 35 31 86 49 q -3 17 15 25 q -44 10 -21 10 l 32 63 q -19 53 4 63 q -69 42 -43 44 q -17 78 -42 60 q 39 111 8 97 q 63 142 60 118 q 69 187 65 165 q 76 232 74 208 q 58 190 63 214 q 33 146 53 167 q 31 180 29 165 q 35 210 32 194 q 83 428 54 321 q 144 644 111 536 q 162 666 149 658 q 189 674 175 674 q 208 669 200 674 q 228 674 221 663 q 247 690 238 690 q 263 682 254 690 q 279 678 269 675 q 299 675 289 681 q 276 612 288 643 q 254 549 265 581 q 267 557 265 551 q 271 568 268 563 l 313 664 q 321 680 317 671 q 342 689 325 689 q 320 626 335 656 q 294 565 306 596 q 269 503 282 533 q 243 440 256 472 q 194 313 219 376 q 140 188 168 250 q 244 275 200 228 q 329 378 289 322 q 308 366 314 375 q 289 354 301 357 q 306 382 296 369 q 325 406 315 394 q 410 520 369 460 q 465 651 451 581 q 453 724 472 694 q 394 765 435 753 q 347 772 371 772 q 300 769 324 772 q 113 717 204 757 q 90 706 101 711 q 64 699 79 701 q 81 714 71 710 q 100 724 90 718 q 123 742 115 731 q 136 768 131 753 q 135 776 139 775 q 126 779 131 776 q 114 769 122 771 q 99 764 106 767 q 125 781 111 779 q 146 799 136 789 q 158 822 156 808 q 188 869 167 851 q 238 899 210 888 q 296 917 265 911 q 353 925 326 922 q 247 917 299 931 q 142 889 194 903 q 190 917 163 904 q 245 938 217 929 q 303 952 274 947 q 358 957 332 957 q 435 949 396 957 q 510 923 475 940 q 574 878 546 906 q 617 814 603 851 z "},"E":{"ha":608,"x_min":-119,"x_max":731,"o":"m 574 876 q 629 870 603 869 q 683 869 656 871 q 629 843 669 860 q 535 807 589 826 q 419 769 481 788 q 301 735 357 750 q 199 710 244 719 q 135 700 154 700 q 203 724 171 714 q 268 750 236 735 q 223 746 244 750 q 178 736 201 742 q 169 735 174 736 q 161 732 165 733 q 125 732 132 725 q 125 767 118 739 q 139 815 132 790 q 153 863 146 839 q 158 879 156 874 q 164 888 160 885 q 174 892 168 892 q 193 894 181 893 q 208 894 200 894 q 222 900 215 894 q 205 904 214 906 q 188 904 196 903 q 176 906 182 906 q 171 915 169 906 q 185 933 171 929 l 192 933 q 321 942 257 935 q 450 949 385 950 q 504 948 478 949 q 558 946 531 947 q 631 942 594 943 q 703 943 667 942 q 716 943 710 943 q 731 933 722 943 l 574 876 m 392 228 q 460 233 426 225 q 532 243 493 242 q 492 216 511 226 q 453 194 472 206 q 459 190 456 190 q 466 192 463 190 q 473 194 469 193 q 479 192 476 194 q 415 158 461 178 q 308 118 368 139 q 182 77 249 97 q 55 42 115 57 q -53 20 -6 28 q -119 17 -100 13 q -100 31 -110 26 q -79 39 -90 35 q -67 45 -72 42 q -58 56 -61 49 q -55 66 -56 63 q -62 75 -54 69 q -78 90 -78 83 q -68 108 -79 97 q -58 139 -54 122 q -31 176 -62 169 q 9 208 0 183 q 22 260 18 233 l 33 307 q 36 319 35 314 q 39 331 38 324 q 40 338 40 333 l 44 354 q 45 357 44 356 q 46 361 46 358 q 29 364 36 365 q 15 363 22 363 q -18 382 -17 361 q -12 409 -21 396 q 10 425 -3 422 q 35 431 24 426 q 60 442 47 436 q 68 451 68 444 q 51 453 60 456 q 35 453 43 451 q 21 481 11 458 q 61 506 32 506 q 89 517 81 507 q 103 544 97 528 q 119 598 110 572 q 138 651 129 624 q 156 676 143 667 q 183 685 168 685 q 204 679 194 685 q 222 683 217 672 q 243 700 232 700 q 258 692 250 700 q 275 688 265 683 q 294 685 285 692 l 243 556 q 255 560 253 556 q 260 569 257 565 l 306 671 q 310 680 308 675 q 315 689 313 685 q 333 697 322 701 q 337 690 338 694 q 333 682 336 686 q 314 636 324 658 q 293 590 304 614 q 278 556 288 574 q 381 563 331 553 q 486 581 432 574 q 445 558 467 563 q 403 543 424 554 q 465 544 435 538 q 528 544 494 550 q 480 501 503 521 q 428 472 457 482 q 338 444 383 457 q 246 422 293 431 q 203 386 215 417 q 172 313 188 350 q 138 235 156 275 q 322 270 231 254 q 508 289 413 286 q 449 253 479 265 q 392 228 419 242 m 46 210 q 54 239 58 222 q 46 210 40 229 z "},"F":{"ha":564,"x_min":-25,"x_max":724,"o":"m 724 933 q 649 906 688 917 q 574 876 611 894 q 626 870 600 869 q 676 868 651 871 q 622 842 663 858 q 527 806 581 825 q 413 769 474 788 q 295 735 351 750 q 194 710 239 719 q 128 700 150 700 q 204 725 167 713 q 278 754 242 738 q 219 746 249 750 q 163 733 190 742 l 142 729 q 118 751 114 725 q 128 791 122 771 q 139 831 133 811 q 147 859 143 849 q 156 875 150 869 q 174 883 163 881 q 204 890 185 886 q 215 892 208 892 l 239 896 q 244 897 242 896 q 250 897 247 897 q 271 901 261 900 q 292 906 281 903 q 210 906 250 910 l 204 906 l 194 904 l 189 904 q 174 903 182 904 q 165 913 165 903 q 172 929 165 922 q 189 933 181 935 q 212 934 200 933 q 235 936 224 935 l 281 940 q 418 949 350 946 q 556 946 486 951 q 628 942 592 943 q 700 943 664 942 q 711 943 706 943 q 724 933 717 943 m 397 543 q 458 543 429 538 q 514 546 486 549 q 514 536 519 539 q 465 493 490 513 q 406 465 439 474 q 329 443 367 456 q 251 425 292 431 q 224 413 233 422 q 210 388 215 403 q 199 357 207 379 q 179 307 190 335 q 156 249 168 279 q 131 194 143 219 q 110 149 119 168 q 94 126 100 131 q 107 170 101 150 q 119 211 113 190 l 115 213 q 109 198 113 206 q 103 182 106 190 l 79 124 q 47 48 64 85 q 6 -22 29 11 q 24 108 8 44 q 49 238 40 171 q 13 148 28 193 q -19 58 -3 103 q 6 211 -14 136 q 42 361 26 286 q 26 365 33 367 q 13 363 19 363 q -22 381 -21 361 q -17 409 -25 396 q 7 425 -8 422 q 37 435 24 428 q 64 453 50 442 q 47 453 56 453 q 31 454 39 453 q 17 481 6 456 q 56 506 28 506 q 84 517 75 507 q 99 543 93 526 q 115 597 106 571 q 133 651 125 624 q 151 676 139 667 q 178 685 163 685 q 208 674 193 685 q 218 683 215 678 q 224 692 221 688 q 236 700 229 699 q 249 696 243 701 q 268 688 257 688 q 290 692 278 688 q 265 622 281 654 q 247 553 250 589 q 253 567 250 560 q 260 581 257 574 l 286 636 q 300 665 293 651 q 315 694 307 679 q 329 697 322 701 q 332 686 335 696 l 290 594 q 282 576 288 585 q 278 554 276 567 q 378 563 329 553 q 478 578 428 572 q 440 558 461 563 q 397 543 419 554 z "},"G":{"ha":575,"x_min":-42,"x_max":657,"o":"m 481 608 q 481 621 479 615 q 484 632 482 626 q 487 644 486 638 q 485 657 488 650 q 442 594 461 626 q 392 535 422 563 q 397 570 389 554 q 406 606 404 586 q 376 557 386 582 q 351 508 365 532 q 346 513 344 510 q 347 518 347 515 l 351 531 q 371 600 363 565 q 388 669 379 635 q 364 697 393 697 q 300 671 326 694 q 165 506 217 599 q 133 425 143 465 q 131 340 124 385 q 176 274 138 293 q 182 271 179 272 q 188 267 185 269 l 188 263 q 169 257 179 253 q 151 257 160 261 q 192 242 168 242 q 240 261 217 242 q 292 315 268 286 q 332 378 315 344 q 292 374 311 381 q 256 364 274 368 q 237 360 244 361 q 224 358 229 358 q 206 369 208 358 q 208 404 204 379 q 224 428 211 424 q 251 435 236 432 q 235 442 244 443 q 221 449 225 440 q 235 472 224 467 q 263 481 246 478 q 393 491 329 486 q 524 506 457 496 l 531 506 q 558 506 543 506 q 575 496 572 507 q 565 478 579 481 q 542 468 551 475 q 528 459 535 463 q 513 450 521 456 l 532 443 q 517 433 524 438 q 474 403 488 424 q 451 357 460 383 q 382 177 421 265 q 307 -1 343 89 q 286 -47 297 -25 q 260 -87 275 -68 q 276 -3 267 -43 q 296 81 285 36 q 280 49 286 65 q 267 17 274 33 q 253 -13 261 1 q 229 -42 244 -28 q 238 49 235 6 q 250 138 242 92 q 211 106 226 122 q 174 79 196 89 q 186 77 181 72 q 197 79 192 82 q 142 46 174 46 q 111 51 126 46 q -2 135 32 79 q -39 267 -36 190 q -26 389 -42 329 q 18 507 -10 449 q 131 694 63 607 q 276 860 199 782 q 295 878 286 869 q 319 892 304 888 q 297 865 308 878 q 278 836 286 851 q 362 904 319 869 q 463 956 404 939 q 433 924 450 936 q 404 892 417 911 q 429 875 418 885 q 447 846 440 865 q 463 874 458 861 q 475 897 468 886 q 487 919 482 913 q 500 925 492 925 q 510 922 504 925 q 526 915 517 919 q 531 913 529 914 q 536 914 533 911 q 565 927 549 925 q 596 943 582 929 q 625 964 613 960 q 657 967 638 968 q 629 893 642 931 q 597 819 617 856 q 550 728 572 775 q 508 635 528 682 q 500 617 504 626 q 481 608 496 608 z "},"H":{"ha":611,"x_min":-26,"x_max":728,"o":"m 718 997 q 726 988 728 994 q 724 978 725 982 q 694 889 714 933 q 642 760 668 824 q 589 629 615 696 q 582 612 586 621 q 578 592 578 603 q 591 588 583 588 q 606 588 599 588 q 619 585 613 588 q 631 576 626 583 q 619 557 626 564 q 601 547 611 550 q 578 540 590 543 q 557 532 567 538 q 578 528 568 524 q 599 525 589 532 q 590 510 597 514 q 575 503 583 506 q 560 496 568 499 q 546 490 553 493 q 535 485 540 488 q 532 476 531 483 q 538 469 533 471 q 546 467 542 468 q 568 460 558 467 q 564 452 568 453 q 557 450 560 451 q 515 429 528 447 q 493 389 501 411 q 447 269 471 328 q 394 153 422 211 q 382 128 390 140 q 391 170 383 150 q 401 213 399 190 q 351 93 375 153 q 289 -21 326 33 q 308 109 292 46 q 332 238 324 172 q 297 149 313 193 q 264 60 281 104 q 295 235 274 149 q 343 410 317 322 q 326 415 335 417 q 311 411 318 413 q 264 401 288 407 q 217 393 240 396 q 172 356 185 388 q 131 249 154 301 q 85 144 108 197 q 84 143 85 143 q 83 142 83 143 l 79 135 q 78 132 79 133 q 83 167 76 151 q 90 200 90 183 q 43 111 63 157 q -3 21 24 65 q 8 94 3 57 q 19 174 13 132 q -2 138 4 156 q -25 104 -8 121 q 1 242 -15 176 q 36 372 18 307 q 19 377 28 379 q 4 375 11 375 q -19 380 -12 374 q -24 403 -26 386 q -12 428 -22 419 q 14 444 -1 438 q 31 451 22 447 q 49 460 40 454 q 35 459 42 460 q 21 460 28 458 q 3 488 -8 463 q 11 508 7 499 q 22 528 15 518 q 35 540 26 539 q 56 543 44 542 q 82 550 78 546 q 92 575 86 554 q 145 753 115 665 q 200 931 175 840 q 201 935 201 933 q 203 938 201 936 l 207 953 q 210 960 210 958 q 219 973 217 972 q 233 961 222 974 q 247 956 240 954 q 260 956 253 957 q 280 951 276 954 q 282 932 283 947 q 278 911 279 921 q 276 892 278 901 q 306 946 296 914 q 318 968 308 963 q 343 974 328 974 q 352 975 347 975 q 361 975 357 975 q 392 976 378 972 q 415 999 406 979 q 417 974 419 985 q 410 951 414 963 q 395 908 403 929 q 378 867 388 888 q 322 730 349 799 q 267 592 294 661 q 262 580 264 585 q 261 568 260 575 q 271 563 265 561 q 283 564 276 564 q 322 567 303 565 q 361 569 342 568 q 390 576 385 572 q 401 601 396 579 q 451 758 426 681 q 503 913 475 835 q 510 932 508 926 q 538 954 514 951 l 540 954 l 546 956 l 549 956 q 586 952 581 958 q 586 915 592 946 q 585 883 581 897 q 599 914 592 899 q 613 944 606 929 q 626 968 619 964 q 653 975 633 972 l 671 975 q 699 976 686 972 q 718 997 711 979 m 297 429 q 323 428 310 428 q 350 439 336 429 q 322 437 335 442 q 297 429 310 432 z "},"I":{"ha":251,"x_min":-60,"x_max":385,"o":"m 378 982 q 383 971 385 975 q 382 961 382 967 q 364 903 375 932 q 342 847 353 875 q 253 633 296 740 q 169 418 210 526 q 108 265 140 340 q 43 114 76 190 q 36 107 43 114 q 47 144 42 126 q 57 181 51 163 q 8 94 28 140 q -37 6 -11 49 q -27 78 -32 42 q -17 156 -22 115 q -37 123 -32 140 q -60 94 -43 106 q 44 517 -17 310 q 172 935 106 725 q 178 949 175 942 q 192 961 181 957 q 228 939 197 935 q 244 935 239 942 q 246 918 249 929 q 242 875 242 897 q 259 902 251 888 q 269 932 267 917 q 282 951 274 946 q 303 957 290 956 l 318 957 q 353 957 336 954 q 378 982 369 960 z "},"J":{"ha":481,"x_min":-68,"x_max":642,"o":"m 642 961 q 635 950 638 954 q 624 942 632 946 q 601 935 617 939 q 558 925 586 932 q 575 917 565 918 q 594 915 585 915 q 611 913 603 914 q 626 907 619 913 q 622 899 626 903 q 615 893 618 896 q 610 887 611 890 q 615 876 610 883 q 612 871 618 874 q 601 865 606 868 q 515 842 557 847 q 482 815 492 838 q 401 612 442 713 q 321 407 360 511 q 260 258 292 332 q 194 106 229 183 q 201 148 193 129 q 211 190 210 167 q 163 94 182 142 q 119 0 143 47 q 119 22 115 11 q 117 43 122 32 q 99 19 107 31 q 81 -3 90 8 q 51 -31 69 -15 q 14 -47 32 -47 q -11 -33 3 -47 q -61 75 -57 13 q -64 220 -68 149 q -36 364 -60 292 q -33 384 -33 374 q -21 406 -32 394 q -18 354 -15 379 q -10 304 -21 329 q -1 367 -4 336 q 7 428 3 397 q 17 404 17 417 q 17 381 17 392 q 18 326 15 353 q 26 272 21 300 q 41 235 31 256 q 72 214 51 214 q 92 228 83 214 q 104 251 101 242 q 156 385 128 319 q 201 521 183 451 q 239 653 219 588 q 279 785 258 718 q 281 796 281 788 q 242 792 261 797 q 204 783 224 786 q 180 782 185 779 q 171 803 175 785 q 169 808 171 806 q 167 814 168 811 q 161 833 157 825 q 175 849 165 842 q 185 853 179 851 q 193 863 190 856 q 180 880 181 869 q 182 903 179 890 q 190 933 186 922 q 199 949 193 943 q 215 955 204 954 q 246 956 226 956 q 364 958 306 958 q 481 957 422 957 q 510 960 497 957 q 529 981 524 963 q 538 977 536 981 q 539 969 539 974 q 540 962 539 965 q 547 958 542 958 l 575 958 q 608 960 592 960 q 642 961 625 961 z "},"K":{"ha":668,"x_min":-46,"x_max":746,"o":"m 743 893 q 738 878 746 883 q 667 808 701 842 q 596 739 632 774 q 586 731 590 733 l 568 715 q 563 711 565 713 q 558 707 561 710 q 418 578 488 642 q 278 451 349 515 q 260 434 267 440 q 254 422 254 428 q 258 410 254 417 q 272 393 263 404 q 344 312 308 353 q 414 226 381 271 q 421 220 417 224 q 424 210 425 217 q 441 200 435 207 q 454 186 447 193 q 424 210 432 190 q 409 215 415 210 q 392 224 403 221 q 465 134 424 174 q 538 46 506 94 l 396 133 q 417 101 403 114 q 439 71 432 89 q 299 163 367 114 q 163 265 231 211 q 108 138 131 201 q 44 18 85 75 q 53 67 49 43 q 61 115 58 90 q 21 28 38 72 q -17 -61 4 -17 q -17 -28 -22 -44 q -8 3 -11 -12 q -1 36 -6 19 q 6 69 3 53 q 11 103 8 86 q 17 139 14 119 q -1 115 3 129 q -21 90 -6 101 q 1 197 -11 144 q 28 303 13 250 q -8 283 7 296 q -46 267 -24 269 q -26 292 -35 281 q -8 314 -18 303 q 6 333 -1 324 q 21 350 14 342 q 28 367 28 360 q 17 381 29 374 q 10 385 14 383 q 3 390 6 388 q -11 415 -8 400 q -7 444 -14 431 q 11 451 1 454 q 22 444 17 449 q 36 442 26 440 q 17 467 28 456 q 10 497 6 479 q 29 540 17 521 q 44 549 36 549 q 60 557 53 550 q 76 558 68 564 q 94 550 83 551 q 157 756 124 654 q 226 963 190 858 q 245 942 235 949 q 271 939 256 936 q 285 935 281 942 q 288 919 289 929 q 286 874 282 899 q 300 902 293 889 q 310 931 307 915 q 323 951 314 946 q 346 957 332 956 l 361 957 q 378 956 369 957 q 394 957 388 956 q 408 964 401 958 q 415 982 414 969 q 424 972 425 978 q 422 963 424 967 q 408 910 417 935 q 388 858 399 885 q 350 769 368 814 q 314 679 332 724 q 307 664 311 672 q 306 647 303 656 q 312 648 310 646 q 317 653 314 650 q 381 735 347 696 q 451 815 415 775 q 558 943 507 881 q 576 963 569 956 q 594 971 583 971 q 622 960 603 971 q 635 956 631 954 q 649 960 643 961 q 661 955 656 958 q 673 949 667 951 q 686 947 679 946 q 692 943 690 949 q 690 933 693 938 q 681 922 686 928 q 672 911 676 917 q 658 898 665 904 q 644 878 651 892 q 667 894 660 885 q 683 910 675 903 q 711 921 697 921 q 731 914 722 921 q 743 893 740 907 z "},"L":{"ha":524,"x_min":-90,"x_max":469,"o":"m 329 219 q 354 220 342 215 q 382 219 367 225 q 308 201 346 206 q 235 176 271 196 q 283 178 260 174 q 331 181 306 183 q 310 167 319 169 q 292 161 301 164 q 192 135 242 149 q 92 110 143 122 q 58 83 68 104 q 45 57 53 69 q 24 33 38 44 l 36 89 q 3 33 14 63 q -26 -25 -7 3 q -24 18 -24 -3 q -22 60 -24 39 q -24 78 -21 71 q -43 82 -28 86 q -50 82 -47 79 q -64 83 -57 83 q -74 90 -71 82 q -69 100 -76 97 q -61 110 -61 103 q -71 115 -65 113 q -79 122 -76 118 q -85 156 -90 138 q -60 176 -79 174 q -33 186 -46 176 q -61 222 -54 199 q -57 268 -68 246 q -28 283 -50 283 q 0 290 -6 286 q 11 315 6 293 q 67 519 38 418 q 125 722 96 619 q 133 747 129 735 q 140 771 136 760 l 171 869 q 178 894 175 882 q 186 918 182 906 q 194 941 190 929 q 211 963 197 953 q 249 939 219 935 q 264 935 260 942 q 267 918 268 929 q 263 896 265 907 q 263 871 260 885 q 279 901 272 886 q 290 932 286 915 q 303 951 294 946 q 324 957 311 956 l 335 957 q 360 958 351 957 q 376 960 369 958 q 388 967 382 963 q 401 979 393 971 q 404 971 406 975 q 403 961 403 967 q 387 908 396 933 q 367 857 378 882 q 281 649 322 753 q 199 440 240 544 q 174 378 186 408 q 150 315 161 347 q 147 297 144 300 q 167 296 150 293 q 276 301 221 301 q 385 304 331 301 l 432 304 q 385 284 408 289 q 338 268 361 279 q 402 268 371 263 q 469 276 433 274 q 398 244 433 253 q 329 219 363 235 z "},"M":{"ha":711,"x_min":-62,"x_max":844,"o":"m 839 986 q 842 963 844 972 q 838 944 840 954 q 825 906 832 925 q 810 867 818 886 q 716 640 761 754 q 626 411 671 526 q 570 269 599 340 q 506 122 542 197 q 510 159 503 143 q 518 194 517 175 q 469 97 489 146 q 422 4 450 49 q 424 22 424 14 q 428 40 425 31 l 436 111 q 440 128 439 119 q 442 146 440 138 q 420 117 426 133 q 397 85 414 100 q 455 342 421 217 q 524 593 489 467 q 484 542 500 569 q 451 489 468 515 q 418 433 435 461 q 386 378 401 406 q 353 324 369 350 q 322 269 338 297 q 290 215 307 242 q 253 161 274 188 q 255 348 256 256 q 261 535 254 440 q 247 459 250 497 q 236 383 243 421 q 231 478 233 431 q 226 579 229 526 q 203 518 208 547 q 186 461 199 489 q 165 405 175 433 q 143 349 156 376 q 137 335 140 342 q 131 321 133 328 l 110 264 q 79 195 94 229 q 47 128 64 161 q 51 158 44 143 q 57 188 57 172 q 10 96 29 143 q -36 4 -10 49 q -27 76 -32 40 q -17 153 -22 113 q -38 118 -32 136 q -62 85 -44 100 q -48 160 -54 125 q -32 228 -42 194 q 11 387 -11 308 q 56 546 33 465 q 111 733 81 640 q 168 921 142 825 q 172 932 169 926 q 176 943 174 938 q 181 953 178 949 q 189 960 183 958 q 197 956 196 961 q 199 946 197 951 q 208 938 201 938 q 219 939 214 939 q 245 934 242 938 q 246 910 249 931 q 242 888 244 899 q 238 867 240 878 l 242 864 q 257 899 249 882 q 272 933 265 915 q 303 956 279 956 q 312 957 307 957 q 321 957 317 957 q 338 956 329 957 q 355 958 347 956 q 368 965 363 960 q 376 985 374 971 q 383 975 383 975 q 367 926 368 951 q 365 878 367 901 q 356 694 360 786 q 347 511 351 603 q 348 506 347 508 q 356 503 349 504 q 402 593 379 547 q 449 686 425 639 q 498 776 472 732 q 554 860 524 819 q 513 771 533 815 q 472 678 493 726 q 488 692 483 685 q 494 706 492 699 q 549 810 522 758 q 603 915 575 863 q 613 933 608 925 q 625 947 617 940 q 637 955 632 951 q 649 958 642 958 q 665 947 656 958 q 692 938 675 938 q 718 943 707 938 q 749 955 733 950 q 782 957 765 960 q 815 959 801 954 q 839 986 829 964 z "},"N":{"ha":608,"x_min":-62,"x_max":743,"o":"m 736 982 q 742 970 743 975 q 739 961 740 965 q 722 905 732 932 q 700 850 711 878 q 613 636 656 743 q 528 421 569 529 q 467 268 499 343 q 403 117 435 193 q 396 110 400 111 q 403 146 397 129 q 413 182 410 163 q 365 94 385 140 q 322 4 346 49 q 331 73 325 39 q 336 147 336 107 q 317 117 322 132 q 300 92 313 103 q 299 112 296 103 q 304 129 301 121 q 312 185 311 157 q 311 240 313 213 q 307 337 308 289 q 303 433 306 385 q 297 306 293 369 q 293 179 300 243 q 262 378 276 279 q 243 582 247 478 q 228 567 231 576 q 222 551 225 558 q 159 387 190 468 q 92 224 128 306 q 70 176 81 200 q 47 129 60 153 q 51 158 44 144 q 58 188 57 172 q 10 96 29 143 q -36 4 -10 49 q -27 76 -32 40 q -17 154 -22 113 q -38 118 -32 136 q -62 85 -44 100 q -49 158 -56 124 q -33 225 -42 192 q 17 410 -8 318 q 68 596 42 503 q 119 764 93 681 q 171 931 144 847 q 183 956 175 946 q 197 956 194 967 q 206 940 199 940 q 224 939 214 939 q 244 935 240 939 q 246 915 249 932 q 242 890 244 903 q 238 865 240 878 l 243 864 l 258 897 q 265 914 261 906 q 271 931 268 922 q 288 953 276 950 q 318 957 300 957 q 353 958 336 956 q 381 988 369 960 q 380 949 385 965 q 369 918 375 933 q 367 899 367 907 q 383 889 367 892 q 395 881 393 888 q 397 868 397 875 q 397 841 397 854 q 394 814 396 828 q 376 610 386 713 q 363 404 367 508 q 373 418 371 411 q 378 432 375 425 q 419 575 401 503 q 461 718 438 647 q 492 817 478 767 q 522 915 507 867 q 530 939 526 926 q 549 963 533 951 q 586 939 554 935 q 601 935 597 942 q 604 918 606 929 q 599 896 601 907 q 599 871 596 885 q 628 932 619 900 q 658 956 633 956 q 672 957 663 957 q 709 957 692 956 q 736 982 726 958 z "},"O":{"ha":554,"x_min":-1,"x_max":600,"o":"m 581 863 q 600 757 600 810 q 588 650 600 704 q 526 467 565 554 q 439 293 488 379 q 436 291 438 292 q 432 288 435 290 q 438 315 431 303 q 443 342 446 326 q 417 306 429 325 q 397 268 406 288 q 340 174 375 218 q 268 90 306 131 q 250 74 260 79 q 171 43 214 43 q 118 58 143 43 q 79 104 93 74 q 50 193 60 147 q 47 288 40 239 q 57 344 53 315 q 65 401 61 374 q 47 363 56 388 q 31 306 38 338 q 19 237 24 274 q 14 160 15 200 q 1 206 3 183 q 0 251 -1 229 q 17 370 1 301 q 58 510 33 439 q 114 647 83 582 q 175 754 144 713 q 215 782 194 782 q 240 775 224 782 q 253 772 249 771 q 264 779 257 774 q 283 793 276 793 q 299 775 293 793 q 310 765 301 765 q 336 749 333 757 q 325 719 339 742 q 281 638 301 679 q 239 556 261 596 q 236 543 236 547 q 249 556 247 547 q 257 572 251 565 q 278 607 271 590 q 279 594 282 600 q 274 585 276 589 q 204 433 232 511 q 154 276 176 356 q 153 217 144 247 q 174 196 160 196 q 197 208 183 196 q 225 235 211 219 q 251 267 239 251 q 268 292 263 283 q 365 478 324 383 q 431 675 407 572 q 435 709 435 692 q 432 743 436 726 q 349 819 418 807 q 275 815 311 826 q 183 785 226 804 q 100 738 140 767 q 89 729 94 735 q 76 726 83 724 q 87 737 82 732 q 97 746 92 742 l 138 786 q 148 796 143 792 q 158 806 153 800 q 205 838 179 825 q 256 865 231 850 q 189 843 219 860 q 124 813 158 826 q 126 826 121 822 q 136 832 132 829 q 167 875 167 843 q 174 894 167 888 q 190 906 181 900 q 232 925 214 915 q 339 962 285 954 q 449 963 393 969 q 529 931 494 956 q 581 863 564 907 m 236 542 q 226 528 229 536 q 221 508 224 521 q 235 526 231 519 q 236 542 239 533 m 246 97 q 291 147 269 121 q 329 203 313 174 q 262 136 293 171 q 186 81 231 101 q 246 97 225 79 z "},"P":{"ha":576,"x_min":32,"x_max":674,"o":"m 654 858 q 671 822 668 840 q 671 783 674 804 q 653 715 667 747 q 621 651 640 682 q 485 501 564 563 q 307 404 407 440 q 337 427 321 417 q 364 453 353 438 q 322 432 343 442 q 281 411 301 422 q 271 399 274 407 q 265 385 268 392 q 213 268 239 326 q 163 150 188 210 q 150 129 158 140 q 149 144 147 136 q 154 158 151 151 q 158 173 157 165 q 160 188 160 181 q 113 96 132 143 q 65 4 93 49 l 86 154 q 64 118 71 136 q 40 85 57 100 q 54 156 47 122 q 68 222 61 189 q 72 240 71 233 l 82 274 q 86 292 83 281 q 90 318 93 314 q 65 328 88 322 q 85 343 72 339 q 106 361 99 347 q 67 352 83 363 q 32 339 51 342 q 49 356 38 351 q 54 359 51 358 q 60 363 57 360 l 81 376 q 85 380 83 379 q 90 383 88 381 q 122 429 118 400 q 151 538 136 483 q 179 646 167 592 q 197 676 185 667 q 229 690 210 686 q 245 694 238 693 q 254 679 253 694 q 260 673 256 672 q 269 678 265 674 q 274 689 272 683 q 281 700 276 694 q 296 708 288 708 q 307 697 304 708 q 312 681 310 689 q 311 663 314 674 q 300 624 304 643 q 289 579 296 604 q 307 612 300 594 q 319 647 314 629 q 340 684 326 671 q 382 694 353 697 q 347 600 367 646 q 310 507 328 554 q 363 526 333 511 q 419 563 392 542 q 467 608 446 585 q 494 653 488 632 q 472 632 482 643 q 449 614 463 621 q 449 625 444 621 q 456 635 453 629 q 463 648 458 642 q 471 661 468 654 q 476 705 482 689 q 442 731 469 721 q 408 740 425 738 q 372 742 390 742 q 302 735 342 742 q 221 717 263 728 q 140 695 179 707 q 72 674 101 683 q 60 669 67 671 q 43 663 54 667 q 68 685 54 678 q 90 704 82 693 q 106 726 97 715 q 125 747 115 736 q 115 751 121 756 q 106 750 108 747 q 103 760 100 757 q 171 839 147 789 q 189 860 178 853 q 214 872 200 867 q 258 886 236 881 q 303 896 281 892 l 338 904 q 356 908 344 906 q 372 913 358 908 q 290 904 329 915 q 210 886 250 893 q 222 907 214 901 q 242 917 231 913 q 282 928 257 924 q 334 934 307 932 q 387 938 361 936 q 429 939 413 939 q 490 935 458 939 q 551 923 521 932 q 608 899 582 914 q 654 858 635 883 z "},"Q":{"ha":564,"x_min":-51,"x_max":604,"o":"m 418 272 q 368 219 396 240 q 390 264 375 246 q 410 303 404 282 q 344 242 376 274 q 269 182 313 210 q 297 181 283 181 q 322 181 310 181 q 347 178 335 181 q 368 169 358 176 q 358 160 365 161 q 344 151 351 158 q 383 149 364 147 q 424 150 401 150 q 385 125 406 133 q 344 111 365 117 q 301 100 322 106 q 258 82 279 94 l 381 99 q 362 85 372 88 q 340 81 351 83 q 223 50 281 68 q 107 17 165 32 q -7 -12 49 0 q -37 -11 -29 -18 q -42 18 -44 -4 q -40 22 -42 21 q -40 25 -39 24 q -49 59 -51 43 q -25 89 -46 75 q -22 93 -21 92 q -25 96 -24 94 q -29 114 -36 108 q -12 124 -22 119 q 21 134 3 131 q 56 142 39 138 q 78 146 67 144 q 103 150 90 147 q 96 165 100 160 q 88 176 92 169 q 60 239 68 206 q 60 308 53 272 q 65 358 63 333 q 71 408 68 383 q 31 290 46 350 q 18 164 15 229 q 5 203 7 183 q 3 242 3 222 q 32 416 6 328 q 93 582 58 504 q 122 652 108 617 q 157 721 136 688 l 182 758 q 219 781 199 781 q 243 775 232 781 q 257 772 253 771 q 268 781 261 774 q 289 793 281 793 q 303 775 299 793 q 308 767 306 768 q 314 765 310 767 q 340 750 338 758 q 329 719 342 742 q 242 542 281 636 q 264 576 253 558 q 288 617 275 594 q 282 590 288 600 q 271 569 276 579 q 219 449 239 511 q 185 324 200 386 q 181 303 182 313 q 182 282 181 293 q 201 256 185 256 q 225 264 211 256 q 244 278 233 268 q 267 301 256 289 q 288 326 278 314 q 301 346 297 338 q 384 514 349 428 q 438 692 419 600 q 438 735 442 714 q 350 819 426 808 q 279 817 317 825 q 188 787 232 806 q 104 739 144 768 q 94 730 99 735 q 78 728 89 725 q 169 810 121 772 q 275 871 217 847 q 200 847 235 865 q 126 813 165 828 q 127 819 128 817 q 128 822 126 821 q 160 848 146 833 q 172 886 174 863 q 188 901 172 892 q 225 922 204 911 q 265 940 246 932 q 290 949 285 947 q 348 962 319 957 q 404 967 376 967 q 460 960 432 967 q 514 941 489 954 q 558 908 539 928 q 586 858 576 888 q 604 760 604 810 q 593 658 604 710 q 418 272 544 447 m 158 238 q 169 212 165 219 q 182 204 174 204 q 192 207 186 204 q 208 214 199 210 q 181 224 193 219 q 158 238 169 228 z "},"R":{"ha":626,"x_min":28,"x_max":674,"o":"m 613 894 q 658 846 643 874 q 667 778 674 818 q 619 653 654 711 q 535 549 585 596 q 427 466 486 503 q 310 403 368 429 q 340 357 325 379 q 371 311 356 335 q 382 297 376 304 q 393 281 388 289 q 412 251 410 257 q 413 239 414 246 q 420 213 410 224 q 438 190 431 203 q 453 166 444 178 q 469 143 461 154 q 485 121 476 132 q 497 92 493 110 q 453 128 472 110 q 413 164 435 146 q 418 144 410 151 q 426 125 426 136 q 317 197 367 156 q 217 283 268 239 l 142 110 q 146 147 139 129 q 154 183 153 164 q 107 95 126 140 q 63 6 88 50 l 83 154 q 62 122 67 139 q 39 89 57 104 q 67 226 49 160 q 100 360 85 293 q 74 358 86 364 q 49 353 61 351 q 58 362 51 360 q 68 369 64 364 q 48 366 57 372 q 28 361 39 360 q 47 381 39 375 q 82 397 54 386 q 109 415 100 404 q 122 444 118 425 q 136 497 129 471 q 150 549 143 522 l 179 653 q 183 668 182 660 q 193 679 183 676 q 216 688 204 683 q 240 693 228 693 q 247 690 246 693 q 249 684 249 688 q 251 677 250 681 q 257 672 253 674 q 269 683 267 675 q 275 697 271 690 q 292 707 279 710 q 304 693 301 707 q 306 654 310 675 q 298 626 301 640 q 292 597 294 613 q 306 622 301 608 q 315 649 310 635 q 324 672 322 664 q 331 683 326 679 q 347 690 336 688 q 379 696 357 692 q 344 601 363 647 q 307 506 325 554 q 358 526 331 511 q 412 561 386 542 q 458 603 438 581 q 489 646 479 626 q 466 630 474 642 q 443 614 458 618 q 447 628 442 622 q 456 640 453 633 q 472 679 468 660 q 471 707 475 699 q 450 725 467 715 q 399 740 425 739 q 344 740 372 742 q 290 733 317 739 q 236 721 263 728 q 188 708 213 714 q 140 694 164 701 q 92 681 117 688 q 43 668 68 675 q 119 749 92 700 q 108 752 115 754 q 97 754 101 750 q 103 763 101 761 q 164 833 143 790 q 185 859 171 850 q 215 874 199 868 q 281 892 247 885 q 346 907 314 899 l 360 911 q 322 910 340 914 q 285 903 304 906 q 247 894 265 900 q 207 888 228 888 q 219 907 210 901 q 239 917 228 913 q 278 928 253 924 q 331 934 303 932 q 385 938 358 936 q 426 939 411 939 q 498 934 463 939 q 569 915 533 929 q 613 894 592 910 m 294 414 q 328 424 317 414 q 351 446 340 433 q 322 434 336 439 q 294 414 308 429 z "},"S":{"ha":511,"x_min":-97,"x_max":617,"o":"m 610 928 q 615 917 617 926 q 610 901 613 908 q 579 828 594 865 q 547 756 564 792 q 524 704 536 729 q 503 653 513 679 q 477 601 493 625 q 444 550 461 578 q 451 587 443 571 q 458 625 458 603 q 411 544 432 583 q 371 467 390 506 q 374 495 368 482 q 383 522 381 508 q 390 553 386 538 q 396 586 393 569 q 404 653 404 618 q 380 598 388 625 q 347 547 372 571 q 374 658 361 606 q 400 767 386 711 q 362 743 379 756 q 329 715 344 731 q 335 716 332 715 q 339 715 338 717 q 340 710 343 713 q 335 707 338 708 q 333 706 333 706 q 331 704 332 706 l 322 699 q 320 697 321 697 q 318 696 319 697 q 274 653 299 672 q 228 613 250 635 q 169 542 193 582 q 162 514 160 525 q 182 494 164 503 q 251 465 215 479 q 325 433 286 450 q 301 458 315 451 q 275 475 286 464 q 358 445 321 472 q 404 379 394 418 q 414 251 418 319 q 390 198 411 218 q 342 164 369 178 q 215 114 278 133 q 106 83 161 97 q -4 54 51 69 q -21 57 -12 50 q 40 83 10 72 q 99 114 71 94 q 42 103 71 108 q -15 90 13 97 q -51 84 -33 86 q -85 75 -68 82 q -97 78 -93 69 l -97 85 q -92 89 -94 88 l -67 101 q 11 141 -26 119 q 86 186 49 163 q 12 167 47 183 q -64 139 -24 151 q 7 189 -29 171 q 81 222 43 207 q 180 269 132 243 q 275 325 228 296 q 269 335 274 333 q 260 338 265 336 q 90 404 172 365 q 22 522 13 440 q 44 607 29 567 q 89 683 60 647 q 310 881 183 803 q 326 889 318 885 q 342 896 333 893 q 375 910 358 904 q 407 915 392 915 q 454 901 432 915 q 464 914 461 908 q 469 926 467 919 q 488 943 476 939 l 550 956 q 556 956 553 956 q 561 954 558 957 q 610 928 579 932 m 214 751 q 315 815 267 779 q 415 881 363 850 q 306 829 354 863 q 214 751 257 796 m 304 371 q 238 390 272 383 q 167 404 203 397 q 228 378 197 389 q 293 360 260 367 q 304 371 304 357 z "},"T":{"ha":592,"x_min":75,"x_max":743,"o":"m 743 886 q 679 868 711 874 q 617 849 647 863 l 671 849 q 660 828 669 833 q 642 821 651 824 q 567 797 604 810 q 492 778 531 785 q 454 747 464 774 q 383 569 419 657 q 314 390 347 481 q 263 262 290 325 q 207 136 236 199 q 199 125 201 128 q 204 160 197 144 q 213 196 211 175 q 165 99 185 147 q 117 4 144 50 l 138 153 q 115 119 121 136 q 97 90 110 101 q 101 135 96 103 q 117 212 107 168 q 140 307 126 256 q 168 410 153 358 q 215 569 192 490 q 261 731 238 649 q 224 730 242 735 q 190 722 207 725 l 169 718 l 128 711 l 107 707 q 92 703 100 704 q 79 713 83 703 q 80 735 75 722 q 94 754 85 749 q 113 760 103 758 q 132 771 122 763 q 120 774 126 775 q 108 773 114 774 q 95 773 101 772 q 83 778 89 774 q 102 789 90 788 q 117 801 114 790 q 122 808 118 804 q 119 814 126 811 q 113 826 113 819 q 115 839 113 832 q 124 865 121 851 q 138 889 128 878 q 148 894 142 894 q 160 894 154 894 q 224 899 192 897 q 288 901 256 900 q 324 929 319 901 q 332 949 325 938 q 343 960 335 958 q 351 956 350 960 q 351 947 351 951 q 361 938 354 938 q 375 939 368 939 q 395 937 388 940 q 401 918 403 933 q 408 910 399 910 q 419 917 415 910 q 421 919 421 919 q 441 953 424 947 q 481 957 458 958 q 499 957 492 957 q 510 960 506 957 q 521 967 515 963 q 536 982 526 972 q 535 953 539 967 q 528 929 531 940 q 542 910 521 908 q 639 915 590 914 q 736 915 688 915 q 723 903 733 903 q 707 894 713 903 q 724 890 714 886 q 743 886 735 894 z "},"U":{"ha":519,"x_min":-40,"x_max":624,"o":"m 581 858 q 604 894 597 876 q 624 926 611 911 q 606 851 621 901 q 569 733 592 800 q 519 590 547 667 q 461 438 490 514 q 402 291 432 361 q 347 168 372 221 q 344 176 343 172 q 347 185 344 181 q 350 194 349 189 q 349 204 351 199 q 276 106 317 154 q 219 58 249 78 q 146 46 189 39 q 147 37 144 39 q 154 34 150 35 q 162 32 158 33 q 165 25 165 31 q 40 51 90 22 q -26 138 -11 79 q -35 243 -40 190 q -18 349 -31 296 q 44 559 7 457 q 125 761 82 661 l 149 819 q 155 833 151 826 q 161 847 158 840 q 176 875 167 861 q 212 913 192 903 q 264 919 232 922 q 289 890 289 918 q 283 869 288 879 q 279 849 278 860 q 293 869 289 857 q 306 892 297 881 q 332 901 317 907 q 343 885 347 897 q 337 868 340 876 q 329 853 333 860 q 274 728 301 790 q 219 601 246 665 q 168 463 192 533 q 128 321 144 393 q 122 279 122 300 q 133 239 121 258 q 161 218 146 218 q 186 232 172 218 q 253 314 225 267 q 306 422 283 367 q 356 533 329 478 q 430 691 393 613 q 499 853 467 769 q 508 867 500 858 q 500 816 508 840 q 489 765 492 792 q 549 888 521 826 q 619 1007 578 950 q 604 934 617 969 q 581 858 592 899 m 196 667 q 219 706 207 683 q 244 754 232 729 q 265 803 256 779 q 278 846 274 828 q 253 811 267 835 q 228 760 240 788 q 208 708 217 733 q 196 667 199 682 m 107 201 q 149 163 124 163 q 182 175 164 163 q 142 181 158 172 q 107 201 125 190 z "},"V":{"ha":501,"x_min":71,"x_max":638,"o":"m 588 931 q 626 925 615 936 q 626 889 638 914 q 601 834 614 861 q 574 779 589 807 q 458 554 515 667 q 336 329 400 442 q 240 162 288 246 q 139 -3 193 78 q 129 -15 139 -4 q 151 61 131 28 q 182 131 171 94 q 207 201 193 167 q 233 272 221 236 q 177 169 201 222 q 125 64 153 117 q 116 171 118 117 q 107 282 114 225 q 97 242 100 261 q 92 202 94 222 q 85 163 89 182 q 74 125 82 144 q 73 168 74 147 q 72 210 72 189 q 81 503 71 357 q 100 796 90 649 q 101 812 101 804 q 103 826 101 819 q 111 860 103 846 q 143 879 119 875 q 156 892 156 879 q 157 904 157 899 q 158 915 157 910 q 178 945 163 936 q 213 947 193 954 q 227 934 226 943 q 225 914 228 925 q 213 820 214 868 q 211 725 211 772 l 214 725 q 224 794 219 760 q 232 863 228 828 q 239 891 235 875 q 261 907 243 907 q 273 901 269 906 q 279 889 276 896 q 281 865 282 878 q 278 842 279 853 q 275 822 276 832 q 272 803 274 813 l 260 725 q 258 706 258 715 q 254 686 257 696 q 231 529 243 607 q 207 372 218 451 q 204 349 206 361 q 208 326 203 338 q 255 426 232 376 q 301 528 278 476 l 389 721 q 410 769 400 744 q 432 817 421 793 l 444 846 l 468 906 l 481 935 q 487 949 483 942 q 496 963 490 956 q 531 974 510 982 q 565 961 544 964 q 578 949 576 958 q 582 932 579 940 q 588 931 583 931 z "},"W":{"ha":815,"x_min":76,"x_max":968,"o":"m 911 946 q 944 903 968 953 q 890 786 919 844 q 775 567 832 676 q 660 349 718 458 q 635 303 649 325 q 606 260 621 282 q 550 161 575 211 q 493 63 525 111 q 472 32 482 47 q 450 1 461 17 q 472 77 453 42 q 503 150 492 113 q 529 222 514 186 q 557 294 544 258 q 499 188 525 242 q 442 79 472 133 l 429 285 l 422 285 q 411 213 414 249 q 397 140 408 176 q 392 284 393 213 q 394 431 390 356 q 268 215 331 322 q 138 3 206 108 q 139 32 135 18 q 150 58 143 46 q 194 165 176 111 q 235 272 213 219 q 223 264 225 271 q 218 251 221 257 q 182 180 199 215 q 147 108 165 144 q 141 93 144 101 q 128 76 138 85 q 121 188 122 133 q 113 299 119 242 q 103 258 106 278 q 97 219 100 239 q 91 180 94 199 q 79 142 88 161 q 78 177 79 160 q 78 214 78 194 q 87 528 76 372 q 108 843 97 685 q 117 876 110 867 q 149 892 125 885 q 161 906 160 896 q 163 917 163 911 q 164 929 163 922 q 175 956 168 950 q 203 963 182 961 q 228 956 222 963 q 231 932 235 950 q 225 890 228 911 q 219 847 222 869 q 219 736 215 793 q 222 754 221 746 q 224 772 222 763 l 233 843 q 235 860 235 851 q 238 878 236 869 q 244 907 238 893 q 268 919 253 922 q 283 904 281 918 q 283 864 288 883 q 279 834 281 849 q 275 804 278 819 l 257 683 q 253 653 254 668 q 249 624 251 639 q 226 483 238 553 q 207 342 215 414 q 233 363 224 346 q 375 649 310 506 q 507 940 440 793 l 515 963 q 521 978 519 969 q 535 986 522 988 q 556 976 546 986 q 565 954 565 965 q 560 888 563 921 q 560 822 557 856 q 579 892 571 857 q 603 961 588 928 q 566 647 589 803 q 525 333 543 492 l 574 436 q 663 635 618 536 q 753 835 708 735 q 776 890 765 863 q 799 946 788 918 q 805 960 801 953 q 813 974 808 967 q 853 986 829 997 q 882 976 868 976 q 897 965 896 975 q 900 944 897 954 q 906 945 903 944 q 911 946 908 946 m 235 274 q 247 303 244 286 q 236 289 240 296 q 235 274 232 282 z "},"X":{"ha":629,"x_min":-137,"x_max":808,"o":"m 806 992 q 804 978 808 983 q 796 969 800 974 q 633 771 714 869 q 469 572 553 672 q 459 560 464 565 q 447 547 454 554 l 404 496 q 393 483 399 489 q 382 471 388 478 q 368 433 368 457 q 372 285 371 358 q 374 136 374 211 q 370 102 375 119 q 367 67 365 85 q 355 125 361 96 q 340 183 349 154 q 335 111 333 147 q 333 39 336 75 q 313 110 321 74 q 285 182 304 146 q 288 131 282 154 q 288 85 293 108 q 260 194 267 138 q 236 311 253 251 q 85 163 168 232 q 83 171 79 167 q 79 181 86 175 l 13 118 q -23 87 -6 103 q -64 58 -40 71 q -48 84 -58 74 q -31 107 -37 94 q -15 129 -24 118 q 0 153 -7 140 q -68 91 -37 125 q -135 29 -99 57 l -137 32 q -124 56 -133 46 q -107 78 -114 67 q -90 105 -97 92 q -79 136 -82 118 q -67 163 -78 146 q -41 197 -56 179 q -12 231 -26 215 q 10 256 3 247 l 111 381 q 138 411 125 396 q 163 442 150 426 q 176 460 169 451 q 190 478 183 469 q 200 513 206 490 q 170 672 181 592 q 142 833 160 753 q 138 861 139 847 q 136 890 136 875 q 160 919 136 914 q 181 925 167 922 q 203 931 194 926 q 214 951 211 936 q 246 981 218 976 q 258 983 253 982 q 271 988 264 985 q 290 993 281 993 q 315 985 304 993 q 336 974 325 978 q 349 958 349 969 q 350 935 350 946 q 350 913 350 924 q 351 892 350 903 l 351 804 q 353 782 353 793 q 353 760 353 771 q 353 741 353 750 q 360 722 353 732 q 378 743 371 731 q 393 767 386 756 q 463 871 425 821 q 542 969 501 921 q 558 985 550 981 q 581 986 567 989 q 613 983 596 982 q 647 1001 629 983 q 626 956 644 974 q 597 915 608 939 q 675 983 638 951 q 760 1035 713 1015 q 722 963 744 996 q 675 894 699 931 q 744 941 715 914 q 806 992 774 968 m 224 810 q 228 706 224 757 q 244 604 233 656 q 238 708 242 657 q 224 810 233 758 z "},"Y":{"ha":610,"x_min":119,"x_max":793,"o":"m 788 992 q 788 980 793 985 q 781 971 783 975 q 614 769 697 869 q 447 567 531 668 q 412 524 425 539 q 390 497 399 510 q 376 467 382 485 q 358 415 369 449 q 299 245 331 329 q 239 75 267 161 q 221 47 235 57 q 230 115 225 83 q 231 179 235 147 q 220 155 225 167 q 210 131 215 143 l 167 32 q 156 8 161 21 q 146 -17 151 -4 l 138 -15 q 150 74 144 29 q 163 165 156 119 q 147 135 149 153 q 131 103 144 118 q 129 142 125 125 q 153 281 140 213 q 182 421 167 350 q 179 531 194 475 q 159 628 167 579 q 144 726 151 678 q 141 753 143 740 q 136 781 139 767 l 125 835 q 121 856 122 846 q 119 878 119 867 q 126 910 121 903 q 156 922 131 917 q 184 931 171 926 q 200 957 197 936 q 225 979 203 974 q 249 986 236 981 q 271 993 260 993 q 298 985 286 993 q 322 972 310 978 q 332 959 332 969 q 332 939 332 949 l 336 760 q 336 742 336 751 q 342 722 336 732 q 360 740 354 729 q 374 763 367 751 q 526 972 442 875 q 563 986 543 992 q 595 983 579 982 q 626 999 611 983 q 624 975 632 983 q 610 958 617 967 q 597 940 603 949 q 585 921 590 932 q 753 1049 661 992 q 710 971 733 1008 q 661 897 686 933 q 726 942 697 915 q 788 992 756 968 m 207 814 q 206 772 206 797 q 210 717 207 746 q 217 658 213 688 q 228 606 222 629 q 220 710 225 658 q 207 814 215 761 z "},"Z":{"ha":651,"x_min":-97,"x_max":808,"o":"m 585 914 q 667 916 626 910 q 751 917 708 922 q 742 902 749 907 q 729 894 736 897 q 714 889 722 892 q 699 882 706 886 q 704 869 701 874 q 710 828 717 847 q 686 793 704 810 q 649 762 668 776 q 613 728 629 747 q 596 704 603 718 l 661 756 q 618 692 650 721 q 408 497 514 592 q 197 306 303 403 q 185 294 192 299 q 172 278 178 289 q 269 278 222 276 q 363 276 315 279 q 454 275 408 274 q 544 267 500 276 q 447 254 496 254 q 349 243 397 254 q 445 235 396 233 q 544 225 494 236 q 510 206 528 213 q 474 196 493 200 q 438 188 456 192 q 403 176 419 185 q 410 174 406 172 q 417 168 414 175 q 288 142 351 157 q 161 113 225 128 q 54 86 107 100 q -51 54 1 72 q -64 51 -58 51 q -76 49 -69 50 q -94 65 -97 44 q -87 97 -93 82 q -56 119 -81 113 q -70 138 -64 129 q -74 161 -76 147 q -61 181 -71 174 q -40 196 -51 189 q -53 210 -43 208 q -74 214 -64 211 q -86 226 -86 217 q -82 234 -86 233 q -74 238 -78 235 l -71 238 q -8 264 -32 242 q 38 314 15 286 q 415 742 208 543 q 438 765 428 753 q 468 785 449 778 q 456 763 465 772 q 443 738 447 753 l 571 847 q 558 850 564 851 q 546 847 551 849 q 374 803 458 825 q 201 761 289 782 q 183 756 192 758 q 167 757 175 754 q 154 768 157 757 q 163 782 151 776 q 189 792 172 788 q 234 804 211 799 q 279 821 257 810 q 153 792 215 813 q 142 788 147 789 q 129 783 136 786 q 115 785 121 781 q 111 797 110 789 q 116 832 114 814 q 136 863 118 850 q 146 879 144 871 q 149 888 149 885 l 157 906 q 160 914 157 908 q 178 941 165 933 q 210 950 190 949 q 367 956 289 953 q 524 963 444 960 q 588 963 556 964 q 651 965 619 963 q 725 963 689 968 q 799 958 761 958 q 808 949 806 958 q 697 931 753 935 q 585 914 640 928 m 558 910 l 551 910 q 550 907 542 910 q 558 910 556 907 z "},"[":{"ha":465,"x_min":-119,"x_max":632,"o":"m 632 1010 q 550 1006 592 1007 q 464 993 508 1004 q 542 988 504 989 q 615 979 579 988 q 526 958 569 971 q 436 939 482 944 q 401 926 413 936 q 383 897 390 917 q 343 783 364 839 q 299 671 322 728 q 232 503 263 588 q 171 333 201 418 q 143 266 160 299 q 110 201 126 233 q 126 279 117 240 q 142 358 135 318 q 128 335 133 350 q 88 217 108 275 q 43 100 67 158 q 40 85 38 88 q 57 79 42 82 q 142 72 100 76 q 226 68 183 68 q 261 65 244 67 q 296 60 278 64 q 262 47 279 49 q 226 44 244 44 q 188 42 207 43 q 149 38 168 40 q 140 37 144 38 q 132 29 136 36 q 194 26 164 25 q 254 24 224 28 q 146 12 200 18 q 33 0 92 6 q 133 -2 83 -3 q 232 1 182 -1 q 224 -7 229 -6 q 213 -10 219 -8 q 74 -31 143 -19 q -65 -47 6 -43 q -76 -48 -71 -49 q -89 -47 -82 -47 q -111 -35 -107 -44 q -104 -15 -115 -26 q -98 -4 -97 -8 q -103 6 -99 0 q -107 56 -119 35 q -57 85 -94 78 q -35 101 -36 88 q -10 189 -25 146 q 19 276 4 232 q 49 363 35 319 q 75 450 64 406 q 131 636 99 544 q 189 824 164 728 q 200 865 194 844 q 207 907 206 885 q 188 905 196 907 q 171 901 179 903 q 143 921 139 897 q 149 951 146 936 q 178 971 153 965 q 182 982 186 972 q 181 995 179 989 q 186 1008 183 1001 q 206 1038 193 1026 q 244 1050 218 1049 q 365 1052 306 1053 q 485 1049 424 1051 q 499 1048 492 1049 q 514 1047 507 1047 l 571 1043 q 585 1043 578 1043 q 600 1042 593 1043 l 603 1042 l 610 1040 q 625 1035 618 1040 q 575 1024 601 1024 q 519 1018 549 1024 q 578 1015 550 1014 q 632 1010 606 1017 m -15 83 q -8 119 -3 104 q -17 104 -11 113 q -15 83 -22 96 z "},"]":{"ha":586,"x_min":-83,"x_max":668,"o":"m 651 983 q 656 933 668 956 q 606 906 643 911 q 590 900 594 903 q 582 888 585 897 q 558 800 572 843 q 529 714 544 757 q 499 628 514 671 q 474 540 485 585 q 417 353 450 444 q 360 167 385 261 q 349 126 354 146 q 342 83 343 106 q 361 84 353 82 q 378 89 369 86 q 400 86 393 92 q 404 68 407 81 q 399 38 401 53 q 371 19 396 24 q 367 7 361 18 q 367 -6 369 1 l 361 -18 q 343 -48 356 -37 q 304 -60 331 -58 q 184 -62 243 -62 q 64 -58 125 -61 q 6 -56 35 -57 q -51 -51 -24 -54 q -64 -51 -58 -51 q -76 -46 -69 -51 q -26 -35 -53 -35 q 29 -29 0 -35 q -30 -26 -3 -24 q -83 -21 -57 -28 q -1 -16 -43 -17 q 85 -4 40 -15 q 6 2 43 1 q -68 11 -32 3 q 23 32 -21 18 q 113 51 67 46 q 147 64 136 54 q 165 93 158 74 q 206 207 185 151 q 250 319 226 263 q 317 487 286 403 q 378 657 347 571 q 406 723 389 690 q 439 789 422 756 q 423 710 432 749 q 407 632 414 672 q 419 654 417 640 q 460 773 440 714 q 506 890 481 832 q 508 906 511 903 q 490 910 506 908 q 407 918 449 914 q 322 922 365 922 q 288 924 304 922 q 253 929 271 926 q 287 942 269 940 q 322 946 304 944 q 361 947 342 946 q 400 951 381 949 q 408 953 404 953 q 417 961 413 954 q 355 963 385 964 q 294 967 325 961 q 403 978 349 971 q 515 990 457 985 q 416 992 465 993 q 317 988 367 990 q 324 996 319 994 q 335 999 329 997 q 474 1021 406 1008 q 613 1038 542 1033 q 625 1038 619 1038 q 638 1036 631 1038 q 659 1025 654 1033 q 653 1006 664 1017 q 646 994 644 999 q 651 983 647 990 m 557 869 q 565 886 560 878 q 564 906 571 894 q 557 869 550 889 z "},"a":{"ha":589,"x_min":-92,"x_max":542,"o":"m 521 506 q 531 501 525 503 q 542 493 538 499 q 533 481 540 485 q 517 476 525 478 q 494 465 500 474 q 488 442 489 456 q 484 367 486 404 q 479 290 482 329 q 476 217 476 254 q 469 140 475 181 q 452 176 454 158 q 443 208 450 193 q 429 128 429 169 q 422 44 429 86 q 401 101 411 72 q 388 161 392 129 q 378 145 376 154 q 374 129 379 136 q 360 148 363 138 q 356 168 358 158 q 337 279 343 224 q 324 392 331 335 q 315 413 321 411 q 292 410 308 414 q 244 399 268 404 q 196 392 219 394 q 165 371 175 389 l 107 264 q 101 252 104 258 q 89 243 99 246 q 94 269 86 257 q 101 299 103 282 q 40 200 65 250 q -18 103 14 150 l 11 219 q -92 74 -53 153 q -70 144 -83 110 q -42 213 -57 179 q -12 282 -26 247 q 13 353 3 317 q -13 351 -1 357 q -37 356 -25 346 q -17 415 -24 383 q 1 475 -11 446 q 28 496 8 493 q 56 500 42 499 q 85 504 69 501 q 56 510 71 513 q 31 517 42 508 q 75 524 53 525 q 100 539 94 526 q 140 620 119 579 q 179 701 161 661 q 194 731 186 717 q 211 761 201 746 q 238 789 225 783 q 282 792 250 794 q 285 810 285 801 q 285 829 285 819 q 283 842 285 836 q 292 854 281 849 q 313 860 301 860 q 331 857 324 861 q 353 846 346 846 q 372 860 363 846 q 382 864 375 864 q 393 860 389 864 q 410 848 400 849 q 432 847 421 847 q 452 849 443 849 q 471 849 461 849 q 495 845 490 849 q 500 825 500 842 q 499 690 500 757 q 494 556 497 624 q 497 528 493 533 q 528 519 501 524 q 528 515 531 517 q 524 513 526 514 q 519 511 521 513 q 521 506 517 510 m 299 536 q 310 547 313 536 q 307 583 307 565 q 301 619 307 601 l 294 619 q 289 611 292 615 q 283 601 286 607 l 263 568 q 257 558 260 563 q 251 550 254 554 q 251 535 246 543 q 274 533 263 532 q 299 536 286 535 z "},"b":{"ha":653,"x_min":-43,"x_max":653,"o":"m 611 632 q 546 570 581 599 q 475 514 511 542 q 458 501 467 507 q 443 489 450 496 q 456 483 449 481 q 478 481 467 482 q 501 478 490 481 q 602 428 583 463 q 599 343 621 393 q 499 225 567 267 q 441 192 471 206 q 381 163 411 178 q 197 96 292 119 q -3 60 101 72 q 17 72 8 67 q 36 83 26 76 q 72 113 58 94 l -43 81 q 16 115 -11 96 q 76 147 43 135 q 97 174 94 154 q 102 213 100 193 q 106 253 104 233 q 91 217 94 236 q 72 179 88 197 q 61 201 60 190 q 64 224 63 213 q 103 417 81 322 q 154 608 126 513 q 178 631 158 622 q 214 632 199 639 q 225 627 221 628 q 236 633 229 626 q 260 646 247 646 q 283 635 269 646 q 286 626 288 631 q 283 618 285 622 q 272 565 272 592 q 289 594 281 581 q 304 624 297 608 q 351 644 317 649 q 317 563 336 603 q 283 482 299 522 q 332 494 303 482 q 392 526 361 507 q 448 569 422 546 q 486 614 474 593 q 461 597 469 607 q 438 581 453 586 q 439 592 435 588 q 446 601 443 597 q 457 619 453 610 q 464 640 461 629 q 442 676 467 665 q 388 690 415 689 q 332 690 360 692 q 251 679 293 690 q 142 656 197 668 q 29 624 88 643 q 54 642 42 636 q 75 660 67 649 q 91 678 82 669 q 107 696 100 688 q 96 701 103 703 q 85 703 89 699 q 88 710 82 707 q 147 774 128 733 q 167 794 154 788 q 194 806 179 800 q 260 822 226 817 q 328 835 294 828 q 334 836 331 836 q 340 840 338 836 q 263 831 300 840 q 186 817 226 822 q 199 835 189 831 q 219 844 208 840 q 259 853 235 850 q 310 859 283 857 q 360 862 336 861 q 401 863 385 863 q 464 860 432 863 q 527 849 496 857 q 587 826 558 840 q 636 788 615 811 q 653 744 653 771 q 643 685 651 714 q 611 632 635 657 m 215 229 q 335 277 281 251 q 435 347 390 303 q 384 365 410 360 q 333 369 358 369 q 251 361 293 369 q 226 338 231 357 q 199 272 214 304 q 168 207 183 239 q 162 198 165 203 q 165 188 158 193 q 231 210 199 197 q 292 243 263 224 q 256 235 272 243 q 215 229 239 226 z "},"c":{"ha":519,"x_min":-44,"x_max":592,"o":"m 569 856 q 585 839 592 858 q 571 803 578 821 q 554 769 564 786 q 501 666 526 718 q 451 561 476 614 q 438 536 446 549 q 422 513 431 524 q 424 541 419 529 q 426 567 428 553 q 415 559 418 564 q 410 549 413 554 l 346 422 q 330 391 339 407 q 306 357 321 375 q 323 428 313 394 q 335 494 333 461 q 324 489 326 494 q 311 481 322 483 q 324 565 315 524 q 333 649 332 607 q 313 647 321 651 q 299 638 306 643 q 180 525 224 589 q 115 385 136 461 q 117 339 111 360 q 188 281 129 292 q 263 278 226 274 q 333 299 299 283 q 343 303 339 301 q 353 307 347 304 l 392 325 q 401 329 397 328 q 411 333 406 331 q 364 278 392 303 q 308 225 336 254 q 367 251 342 236 q 419 281 392 265 q 419 255 422 265 q 411 233 417 244 q 399 215 404 224 q 388 194 393 206 q 402 197 396 192 q 417 200 408 201 q 317 141 393 164 q 128 113 240 118 q 178 106 154 107 q 228 103 203 104 q 156 93 193 93 q 32 128 85 93 q -36 224 -21 164 q -39 297 -44 261 q -26 369 -33 333 q 7 471 -17 417 q 62 578 31 525 q 128 678 93 631 q 197 758 164 725 q 211 773 204 765 q 229 786 218 781 q 226 774 233 779 q 222 760 219 768 q 288 812 256 786 q 363 854 319 838 q 354 838 363 843 q 343 822 346 833 q 376 809 361 818 q 399 783 390 800 q 414 806 410 794 q 425 829 418 818 q 437 846 432 840 q 450 851 442 851 q 472 844 456 851 q 493 844 483 838 q 531 853 511 853 q 569 856 550 854 z "},"d":{"ha":589,"x_min":-53,"x_max":626,"o":"m 594 754 q 621 624 626 688 q 575 497 615 560 q 428 314 513 397 q 239 160 344 231 q 187 131 222 149 q 112 98 151 114 q 35 71 72 82 q -25 60 -3 60 l 49 106 q -3 98 21 106 q -53 88 -26 90 q -1 119 -25 103 q 53 147 24 136 q 75 174 74 156 q 80 213 78 193 q 83 251 82 232 q 74 234 78 243 q 68 215 71 225 q 60 196 65 206 q 46 178 56 186 q 40 206 39 193 q 43 232 40 219 q 81 422 58 328 q 132 608 104 515 q 147 626 135 619 q 175 633 160 633 q 194 629 186 633 q 213 633 207 624 q 232 647 222 647 q 249 640 238 647 q 265 636 256 633 q 283 635 274 639 l 246 525 q 258 533 257 528 q 263 542 260 538 q 281 583 272 563 q 299 624 289 604 q 306 638 301 631 q 326 646 310 646 q 308 592 321 618 q 285 539 296 565 q 274 513 281 526 l 251 458 q 246 444 249 451 q 240 431 243 438 q 219 378 231 404 q 199 325 208 353 q 176 271 189 297 q 150 213 164 244 q 250 289 208 249 q 329 378 292 329 q 308 367 314 375 q 290 357 303 360 q 306 381 297 371 q 324 401 315 390 q 385 476 356 439 q 435 558 415 514 q 453 614 446 583 q 375 713 461 689 q 328 719 351 719 q 281 715 304 718 q 96 669 186 706 l 74 661 q 61 657 67 658 q 49 654 56 656 q 64 669 54 665 q 83 676 74 672 q 117 715 110 688 q 115 722 119 721 q 107 724 111 722 q 95 715 103 717 q 79 711 88 714 q 106 725 90 725 q 138 761 131 740 q 166 804 144 788 q 216 831 188 821 q 274 844 244 840 q 326 850 304 849 q 220 842 271 854 q 117 819 169 831 q 219 863 158 847 q 331 878 279 878 q 404 871 365 878 q 480 849 443 864 q 547 811 517 835 q 594 754 578 788 z "},"e":{"ha":608,"x_min":-101,"x_max":701,"o":"m 549 808 q 604 802 578 801 q 658 801 631 803 q 605 778 644 793 q 512 748 565 764 q 398 715 458 732 q 282 685 338 699 q 183 664 226 672 q 118 656 139 656 q 185 676 153 667 q 250 699 218 685 q 197 694 222 697 q 143 683 171 690 q 106 683 114 676 q 106 714 99 689 q 116 754 111 733 q 128 796 121 775 q 138 819 133 815 q 167 824 143 822 q 181 824 174 824 q 196 828 189 824 q 178 832 186 833 q 161 832 169 831 q 149 834 154 833 q 143 842 143 835 q 158 857 143 853 l 163 858 l 164 858 q 292 865 229 858 q 421 871 356 872 q 475 870 449 871 q 529 868 501 869 q 601 865 565 867 q 674 865 638 864 q 701 857 689 869 l 549 808 m 400 249 q 467 253 433 246 q 538 261 500 261 q 499 239 518 247 q 461 219 481 231 q 475 217 468 213 q 489 217 482 222 q 426 188 471 204 q 322 153 381 171 q 197 118 263 135 q 72 88 131 101 q -35 69 13 75 q -101 65 -82 63 q -83 78 -93 74 q -62 85 -72 82 q -43 100 -47 89 q -40 109 -40 106 q -49 117 -40 113 q -65 129 -64 124 q -56 146 -67 135 q -46 171 -42 157 q -21 204 -53 197 q 13 223 4 210 q 24 256 21 236 q 31 297 26 276 q 42 336 36 317 q 44 350 43 343 q 46 364 44 357 q 29 365 36 367 q 15 364 22 364 q -19 381 -15 363 q -14 405 -22 393 q 7 418 -6 417 q 19 420 10 418 q 39 426 29 422 q 56 433 49 429 q 64 442 64 438 q 47 443 56 444 q 31 443 39 442 q 15 465 7 447 q 31 482 21 476 q 54 488 42 488 q 82 498 74 489 q 94 521 90 507 q 109 567 101 544 q 124 614 117 590 q 149 640 129 632 q 189 639 169 647 q 207 642 201 632 q 226 656 217 656 q 243 649 233 656 q 259 645 250 642 q 278 643 268 649 l 235 531 q 246 535 244 531 q 249 543 247 539 q 254 554 251 549 q 260 565 257 560 l 281 608 q 286 620 283 615 q 292 631 289 625 q 295 639 293 635 q 300 646 297 643 q 317 653 304 657 q 321 647 321 651 q 318 640 321 643 q 301 601 310 621 q 282 561 292 581 q 276 547 279 554 q 269 531 272 540 q 372 537 322 528 q 475 553 421 546 q 435 534 456 538 q 394 521 414 531 q 456 521 426 515 q 519 521 485 526 q 474 484 496 501 q 422 460 451 467 q 334 435 378 447 q 243 415 290 422 q 203 385 213 411 q 175 322 190 353 q 144 254 160 290 q 326 285 236 272 q 513 300 417 297 q 456 270 485 281 q 400 249 428 260 m 54 232 q 61 258 65 243 q 54 232 47 249 z "},"f":{"ha":564,"x_min":-26,"x_max":696,"o":"m 696 857 q 622 833 660 842 q 549 808 585 824 q 601 802 576 801 q 653 800 626 803 q 599 777 639 792 q 506 747 560 763 q 393 715 453 731 q 278 685 333 699 q 178 664 222 672 q 113 656 133 656 q 185 677 149 667 q 258 703 222 688 q 201 695 231 699 q 144 685 172 692 l 124 681 q 103 683 108 679 q 100 700 97 688 q 117 768 106 733 q 124 793 121 785 q 132 806 126 801 q 149 814 138 811 q 179 819 160 817 q 201 823 190 822 q 224 826 213 824 q 244 829 235 828 q 265 833 254 831 q 183 833 224 838 q 173 833 178 833 q 161 832 168 832 q 147 832 154 832 q 139 839 140 832 q 144 853 138 847 q 161 857 150 858 q 207 859 185 858 q 251 863 229 860 q 389 870 321 869 q 526 868 457 871 q 599 865 563 865 q 671 865 635 864 q 683 866 678 867 q 696 857 689 865 m 389 521 q 449 520 421 515 q 506 522 478 525 q 507 514 511 517 q 459 478 483 494 q 401 454 435 461 q 326 435 363 446 q 249 418 289 424 q 222 408 231 415 q 208 386 214 400 q 191 340 204 374 q 162 267 178 306 q 131 198 146 229 q 107 160 115 167 q 118 197 114 179 q 128 233 122 215 l 124 235 q 118 222 121 228 q 113 208 115 215 l 92 158 q 86 145 89 151 q 81 132 83 139 q 25 33 63 79 q 38 145 25 90 q 56 256 50 200 q 24 179 36 218 q -4 101 11 140 q 15 233 -1 168 q 42 363 31 297 q 26 365 33 367 q 13 364 19 364 q -22 381 -18 363 q -17 406 -26 393 q 6 418 -10 418 q 60 443 38 422 q 43 442 51 443 q 26 443 35 442 q 11 465 3 444 q 27 482 17 476 q 50 488 38 488 q 78 497 69 489 q 90 521 86 506 q 105 567 97 544 q 119 614 113 590 q 164 642 131 642 q 194 633 181 642 q 203 641 201 636 q 208 649 204 646 q 220 656 213 654 q 232 653 228 657 q 274 649 249 640 q 253 588 267 617 q 239 528 240 560 q 262 577 250 553 q 285 625 274 601 q 300 651 292 639 q 313 654 306 657 q 315 644 319 651 q 311 635 313 639 q 307 625 310 631 l 289 585 q 281 565 286 579 q 272 549 276 557 q 269 531 267 542 q 369 538 319 529 q 467 550 418 546 q 431 534 451 538 q 389 521 411 531 z "},"g":{"ha":575,"x_min":-40,"x_max":628,"o":"m 469 578 q 473 598 467 589 q 471 618 479 607 q 432 564 450 592 q 385 513 414 536 q 388 543 382 529 q 396 574 394 557 q 367 531 376 553 q 346 490 358 510 q 340 494 339 492 q 342 499 342 496 q 344 510 342 501 q 374 631 364 568 q 350 653 378 654 q 293 635 322 653 q 238 591 264 617 q 192 537 213 565 q 160 488 172 508 q 133 419 140 454 q 133 346 125 383 q 150 311 138 326 q 182 289 163 296 q 193 281 190 283 q 193 278 193 281 q 176 274 186 271 q 158 272 167 276 q 199 260 179 260 q 239 272 218 260 q 278 303 260 285 q 310 342 296 321 q 333 378 325 363 q 293 374 311 381 q 257 365 275 368 q 225 361 236 361 q 208 369 210 361 q 208 400 206 378 q 223 421 211 417 q 250 428 235 425 q 233 433 243 435 q 219 439 224 432 q 231 459 221 454 q 258 467 242 464 q 388 475 324 471 q 518 488 453 479 l 525 488 q 552 488 538 488 q 569 479 567 488 q 561 464 575 467 q 538 456 547 461 q 524 448 531 451 q 510 440 518 444 l 529 433 q 514 425 525 431 q 474 399 486 417 q 454 360 461 382 q 394 204 428 281 q 328 50 360 128 q 308 12 318 31 q 285 -24 297 -7 q 297 48 290 14 q 313 121 304 82 q 297 93 303 107 q 285 66 290 79 q 272 40 279 53 q 250 15 264 26 q 255 93 254 56 q 263 169 256 131 q 226 142 240 157 q 190 119 211 128 q 202 117 197 113 q 213 119 207 122 q 160 90 192 90 q 144 92 153 90 q 128 96 136 93 q 11 167 49 119 q -33 281 -26 214 q -26 388 -40 336 q 13 489 -11 439 q 117 652 54 578 q 253 793 181 726 q 271 810 261 801 q 294 821 281 818 q 274 799 285 810 q 256 774 263 788 q 336 832 296 801 q 433 876 376 863 q 407 849 422 860 q 379 822 392 838 q 406 806 394 815 q 425 782 417 797 q 440 805 435 794 q 450 826 444 815 q 461 844 457 839 q 474 850 465 850 q 501 842 483 850 q 506 840 504 842 q 510 840 507 838 q 539 853 522 851 q 568 865 556 854 q 596 884 583 881 q 628 886 608 888 q 603 822 614 854 q 575 760 593 790 q 533 680 553 719 q 496 600 514 640 q 489 585 493 593 q 469 578 485 576 z "},"h":{"ha":614,"x_min":-22,"x_max":701,"o":"m 690 913 q 700 904 701 910 q 699 894 699 899 q 688 856 694 875 q 674 819 682 838 q 627 707 650 763 q 581 594 604 651 q 574 580 578 588 q 572 563 571 572 q 599 559 583 557 q 625 549 615 561 q 614 532 622 538 q 595 523 606 526 q 574 517 585 519 q 553 510 563 514 q 575 507 564 503 q 596 506 586 511 q 588 492 594 496 q 574 485 581 488 q 559 480 567 482 q 544 475 551 478 q 532 463 531 469 q 538 457 533 458 q 546 454 542 456 q 569 447 556 454 q 565 442 569 443 q 557 440 560 440 q 516 422 528 438 q 497 388 504 407 q 456 284 478 335 q 411 183 435 233 q 399 163 406 171 q 406 199 399 182 q 414 235 413 215 q 369 132 390 183 q 314 33 349 81 q 325 145 313 90 q 343 257 338 200 q 312 180 325 218 q 283 103 299 142 q 308 255 290 181 q 346 404 325 329 q 329 410 338 411 q 314 407 321 408 q 267 398 290 403 q 221 390 244 393 q 192 381 201 388 q 178 358 183 374 q 142 266 163 311 q 100 176 121 221 q 97 171 99 174 q 93 165 96 168 q 98 196 92 182 q 103 225 104 210 q 60 147 78 188 q 19 69 43 107 q 26 133 22 101 q 33 200 31 164 q 13 171 18 186 q -7 140 8 156 q 13 260 0 203 q 40 374 25 317 q 24 377 32 379 q 8 375 15 375 q -21 399 -22 374 q -10 422 -19 414 q 14 435 0 429 q 49 449 35 442 q 35 448 42 449 q 21 449 28 447 q 1 472 -7 451 q 17 507 8 496 q 51 521 26 518 q 78 526 74 524 q 86 549 82 529 q 131 701 106 626 q 176 854 156 776 q 181 867 179 861 q 185 881 182 874 q 194 892 190 892 q 208 882 197 893 q 222 876 215 875 q 235 876 228 878 q 256 872 251 875 q 258 856 260 869 q 256 838 256 847 q 256 821 256 829 q 281 868 275 842 q 293 888 283 883 q 318 893 303 892 l 335 893 q 366 894 351 890 q 388 914 381 897 q 392 892 394 903 q 386 872 389 882 q 372 835 379 853 q 358 800 365 818 q 308 681 332 740 q 261 561 285 622 q 256 553 258 557 q 256 542 254 549 q 266 537 260 536 q 278 539 272 538 q 317 541 297 540 q 356 543 336 542 q 384 549 379 546 q 394 571 389 553 q 436 706 415 639 q 481 840 457 774 q 483 848 482 843 q 486 857 485 853 q 501 873 489 869 q 524 876 513 876 q 561 874 556 879 q 564 842 567 868 q 563 814 560 829 q 576 841 569 828 q 588 867 582 854 q 601 888 594 883 q 628 893 607 892 l 644 893 q 674 894 661 890 q 690 913 686 897 m 299 422 q 325 422 313 421 q 351 431 338 422 q 324 429 336 433 q 299 422 311 425 z "},"i":{"ha":247,"x_min":-46,"x_max":354,"o":"m 347 899 q 353 890 354 894 q 351 882 353 885 q 338 831 347 856 q 318 783 329 807 q 240 598 278 690 q 167 413 203 506 q 113 281 142 346 q 57 150 85 217 q 49 144 57 150 l 67 208 q 22 133 39 172 q -19 56 4 93 q -13 119 -17 88 q -6 185 -10 150 q -26 157 -21 172 q -46 132 -31 142 q 38 497 -14 318 q 143 858 89 676 q 149 872 146 865 q 163 881 151 878 q 200 863 168 858 q 215 859 211 865 q 218 844 219 853 q 216 826 217 835 q 217 807 215 817 q 242 856 235 828 q 253 872 244 868 q 274 876 261 876 q 289 878 279 878 q 324 877 307 875 q 347 899 340 879 z "},"j":{"ha":481,"x_min":-56,"x_max":614,"o":"m 614 881 q 607 872 610 875 q 597 865 604 868 q 574 859 589 863 q 532 850 560 856 q 550 842 540 843 q 569 842 560 842 q 586 840 578 840 q 601 833 594 839 q 598 827 601 829 q 591 822 594 825 q 587 817 588 819 q 592 808 586 814 q 589 803 594 806 q 578 799 583 800 q 493 778 536 783 q 473 771 479 776 q 463 756 467 765 q 390 580 426 668 q 321 403 354 492 q 268 274 296 338 q 210 143 240 210 q 215 178 207 163 q 222 215 222 194 q 178 133 194 174 q 140 51 163 92 q 139 70 136 63 q 136 89 142 78 q 118 68 126 78 q 101 49 110 58 q 72 24 90 38 q 36 11 54 11 q 11 24 26 11 q -44 115 -36 63 q -55 241 -56 179 q -35 365 -54 303 q -31 383 -32 374 q -21 401 -31 392 q -15 357 -14 378 q -4 314 -17 336 q 1 368 -1 342 q 6 421 3 394 q 17 401 17 411 q 18 379 18 390 q 21 341 18 365 q 31 293 24 317 q 50 252 38 269 q 82 235 63 235 q 101 247 92 235 q 107 258 104 253 q 113 268 110 263 q 156 383 132 326 q 196 501 181 440 q 226 615 211 560 q 261 728 242 671 l 261 738 q 224 735 242 739 q 186 728 206 731 q 162 727 167 725 q 151 744 157 729 q 146 754 150 751 q 140 771 136 764 q 153 785 143 778 q 162 788 157 788 q 169 796 167 789 q 156 811 157 803 q 157 831 154 819 q 163 856 161 847 q 171 870 165 865 q 188 876 176 875 q 218 876 199 876 q 336 878 278 878 q 454 878 394 878 q 483 880 469 878 q 501 897 496 882 q 510 888 513 897 q 519 879 508 879 q 563 879 542 879 q 607 882 585 879 q 614 881 611 882 z "},"k":{"ha":671,"x_min":-40,"x_max":721,"o":"m 718 822 q 714 810 721 817 q 697 795 706 803 q 679 779 689 788 l 613 719 q 594 704 603 713 q 578 689 586 696 q 574 685 575 686 q 569 682 572 685 l 551 668 q 547 665 549 665 q 543 661 546 664 q 408 551 475 606 q 275 440 342 496 q 258 426 264 432 q 253 417 253 421 q 258 407 253 413 q 272 392 263 401 q 349 320 311 356 q 422 247 386 285 q 429 241 425 244 q 433 233 433 238 q 451 225 444 231 q 464 213 457 219 q 433 232 444 215 q 417 237 424 232 q 400 244 411 242 q 479 167 436 201 q 556 90 522 132 l 410 167 q 432 140 417 151 q 456 113 447 128 q 310 192 381 150 q 169 281 239 233 q 121 170 142 225 q 63 67 100 115 q 70 109 65 89 q 75 150 75 129 q 39 76 53 114 q 7 -1 25 38 q 5 27 0 14 q 11 54 10 40 q 16 82 13 68 q 22 111 19 96 q 26 141 25 126 q 29 172 26 156 q 13 151 17 163 q -6 129 10 139 q 32 313 7 224 q -2 295 13 307 q -40 281 -17 283 q -21 303 -29 293 q -4 322 -12 313 q 10 338 3 331 q 24 354 17 346 q 31 367 31 361 q 18 379 31 374 q 4 388 13 382 q -12 410 -8 396 q -8 435 -15 424 q 8 440 -3 446 q 19 435 15 438 q 35 432 24 432 q 13 455 24 444 q 6 481 3 465 q 22 518 10 501 q 37 526 28 525 q 53 532 46 526 q 68 533 60 538 q 88 526 76 528 q 139 704 111 617 q 197 882 167 792 q 217 865 207 871 q 243 863 228 860 q 261 846 264 864 q 263 806 257 825 q 274 830 268 818 q 283 854 281 842 q 295 872 286 868 q 318 878 304 876 l 332 878 q 349 877 340 878 q 366 877 358 876 q 379 883 374 878 q 386 899 385 888 q 395 891 396 896 q 394 882 394 886 q 382 837 390 858 q 364 793 374 815 q 356 774 360 783 q 347 754 351 764 l 315 676 q 307 657 311 667 q 299 638 303 647 q 293 624 296 631 q 293 610 290 618 q 304 615 300 610 q 365 687 332 653 q 431 756 397 721 q 482 810 457 783 q 531 865 507 838 q 547 883 540 876 q 565 889 554 889 q 594 879 576 889 q 601 876 597 878 q 607 876 604 875 q 622 880 615 881 q 633 876 628 879 q 645 871 639 874 q 658 869 651 868 q 664 865 663 869 q 663 857 665 860 q 646 839 657 847 q 633 826 640 832 q 621 810 626 821 q 643 822 636 815 q 658 836 650 829 q 685 846 674 846 q 718 822 710 846 z "},"l":{"ha":522,"x_min":-78,"x_max":474,"o":"m 336 242 q 360 242 347 238 q 388 242 372 246 q 315 225 351 229 q 243 204 279 221 q 292 206 269 201 q 339 207 314 210 q 320 196 329 199 q 301 190 311 193 q 203 168 253 179 q 104 146 154 157 q 72 124 79 142 q 60 101 67 113 q 40 81 53 89 l 49 128 q 20 80 29 106 q -8 31 11 54 q -6 66 -6 49 q -7 103 -7 83 q -10 119 -7 113 q -29 122 -14 125 q -36 122 -33 119 q -51 123 -43 124 q -61 129 -58 122 q -56 138 -64 136 q -49 146 -49 140 q -58 151 -53 149 q -67 157 -64 154 q -74 185 -78 169 q -50 203 -71 200 q -25 211 -35 206 q -55 243 -46 222 q -53 283 -64 264 q -24 296 -46 296 q 3 301 -1 299 q 13 324 8 304 q 81 585 44 456 q 158 844 118 715 q 165 865 161 854 q 181 882 168 875 q 219 863 189 858 q 235 859 231 865 q 239 844 239 853 q 235 825 238 835 q 236 804 233 815 q 261 856 254 826 q 272 872 264 868 q 294 878 281 876 l 304 878 q 330 878 321 878 q 345 880 339 878 q 356 886 351 882 q 369 897 361 890 q 374 890 375 894 q 371 882 372 885 q 359 836 367 858 q 340 792 351 814 q 243 558 290 675 q 151 324 196 442 q 150 308 147 311 q 169 307 153 304 q 278 311 224 311 q 388 314 333 311 q 408 315 397 315 q 433 314 418 314 q 387 297 410 300 q 342 283 364 293 q 406 283 375 278 q 474 290 438 288 q 403 262 439 269 q 336 242 368 254 z "},"m":{"ha":707,"x_min":-49,"x_max":814,"o":"m 807 903 q 813 883 814 892 q 808 867 811 875 q 798 833 804 850 q 785 800 792 817 q 702 604 742 701 q 625 407 663 507 q 576 283 601 344 q 518 157 550 222 q 520 188 514 175 q 526 219 526 201 q 481 136 499 178 q 440 54 464 94 q 447 116 443 86 q 453 178 450 146 q 432 152 438 167 q 411 124 426 138 q 457 347 429 239 q 513 564 485 456 q 476 520 490 543 q 446 474 461 497 q 438 462 442 467 q 431 450 435 457 l 400 401 q 392 390 396 396 q 385 378 389 385 q 356 331 369 354 q 328 283 342 307 q 297 236 313 260 q 263 190 282 213 q 255 352 261 272 q 251 513 249 432 q 242 448 243 481 q 235 382 240 415 q 225 465 229 422 q 215 551 221 507 q 197 499 200 525 q 182 450 193 474 q 177 438 179 443 q 172 426 175 432 l 154 376 q 109 269 132 322 q 58 163 86 215 q 61 188 56 176 q 67 214 67 200 q 23 135 40 175 q -18 56 6 94 q -12 117 -15 86 q -6 183 -8 147 q -26 153 -21 168 q -49 124 -32 139 q -37 189 -42 158 q -25 249 -32 219 q 10 385 -8 318 q 46 522 28 453 q 92 684 67 604 q 140 846 118 764 q 147 865 142 856 q 158 879 150 878 q 167 877 165 882 q 169 868 168 872 q 178 862 172 861 q 190 863 185 863 q 217 858 213 861 q 218 838 221 856 q 217 833 218 835 q 217 828 217 831 l 214 810 q 213 805 214 807 q 213 800 213 803 l 217 797 q 231 827 224 813 q 243 857 238 842 q 274 876 249 876 q 290 878 279 878 q 325 878 308 878 q 344 901 342 878 q 353 893 353 893 q 340 852 339 874 q 339 810 340 831 l 339 731 l 340 572 l 340 493 q 341 489 340 490 q 349 485 342 488 l 432 643 q 477 721 453 683 q 529 794 501 758 q 492 717 510 756 q 456 638 475 679 q 471 649 467 643 q 478 661 475 654 l 575 842 q 592 866 582 853 q 618 879 603 879 q 636 869 626 879 q 664 861 647 861 q 689 865 676 861 q 753 878 718 881 q 785 879 771 875 q 807 903 799 883 z "},"n":{"ha":604,"x_min":-49,"x_max":711,"o":"m 704 900 q 710 889 711 893 q 708 881 710 885 q 695 833 704 857 q 676 786 686 810 q 599 601 636 693 q 525 414 561 508 q 472 283 500 347 q 415 153 443 218 q 408 147 414 147 q 415 178 408 163 q 421 210 421 193 q 379 133 396 172 q 340 56 363 93 q 345 115 340 85 q 347 178 350 144 q 331 152 335 165 q 313 131 326 139 q 310 148 308 140 q 315 164 313 156 q 321 211 322 188 q 317 260 319 235 q 309 342 313 300 q 300 425 306 383 q 298 370 297 397 q 300 315 299 343 q 303 260 301 288 q 301 206 304 233 q 261 378 281 293 q 232 554 242 464 q 217 542 219 550 q 213 526 215 533 q 158 385 185 456 q 99 244 131 315 q 81 203 90 224 q 60 163 71 183 q 62 188 57 176 q 67 214 67 200 q 23 135 40 176 q -19 56 6 94 q -13 117 -17 86 q -6 185 -10 149 q -26 154 -21 169 q -49 124 -32 139 q -37 187 -42 157 q -26 246 -33 217 q 14 406 -7 326 q 57 565 35 486 q 99 710 76 639 q 143 856 121 782 q 154 876 144 867 q 162 880 157 879 q 167 876 167 881 q 177 863 169 864 q 194 863 185 863 q 216 859 213 863 q 218 842 219 856 q 217 820 218 831 q 213 799 215 810 l 218 797 q 231 826 225 813 q 242 856 238 840 q 278 878 249 878 l 288 878 q 324 878 307 876 q 350 904 340 881 q 351 871 356 885 q 342 843 346 857 q 340 827 339 833 q 358 819 340 821 q 369 813 367 818 q 372 801 372 807 l 372 754 q 364 579 368 667 q 361 401 360 492 q 370 413 368 407 q 375 424 372 418 q 410 548 396 486 q 443 672 424 610 q 470 756 458 714 q 494 842 482 799 q 501 863 497 853 q 518 883 504 874 q 557 863 526 858 q 573 859 568 865 q 576 844 578 853 q 573 825 575 835 q 574 804 571 815 q 599 856 592 826 q 628 876 604 876 q 642 878 633 878 q 678 878 661 876 q 704 900 696 879 z "},"o":{"ha":554,"x_min":7,"x_max":585,"o":"m 557 782 q 583 692 581 738 q 575 599 585 646 q 522 441 557 517 q 443 292 488 365 q 442 289 443 289 q 438 286 440 289 q 442 308 435 297 q 446 332 449 318 q 404 269 418 303 q 351 187 388 229 q 283 115 315 144 q 276 108 281 111 q 267 100 271 104 q 190 75 232 75 q 135 88 161 75 q 93 128 108 101 q 60 203 71 164 q 54 286 49 243 q 60 335 57 310 q 65 385 63 360 q 35 302 46 360 q 26 175 24 244 q 10 215 13 196 q 7 254 8 235 q 19 355 7 300 q 49 465 31 410 q 91 571 68 519 q 138 661 114 622 q 147 675 143 668 q 157 689 151 682 q 194 711 174 711 q 222 706 207 711 q 235 704 231 703 q 244 711 239 706 q 265 722 258 722 q 281 707 272 722 q 292 697 282 700 q 318 684 315 690 q 308 658 321 678 q 269 588 286 624 q 232 518 251 553 q 229 507 229 510 q 242 517 240 510 q 249 532 243 525 q 259 547 254 539 q 268 561 264 554 q 270 550 272 554 q 265 542 268 546 q 203 413 226 479 q 160 276 179 346 q 163 225 153 249 q 183 207 171 207 q 206 217 193 207 q 233 241 219 228 q 257 268 246 254 q 272 289 268 282 q 361 450 324 368 q 417 621 399 532 q 415 679 425 647 q 328 744 396 736 q 254 742 292 750 q 164 716 207 732 q 83 675 121 700 q 73 667 78 672 q 61 665 68 663 q 99 699 81 682 q 138 733 118 717 q 183 760 158 749 q 232 785 208 771 q 166 765 196 781 q 103 739 136 750 q 105 750 100 747 q 115 756 110 753 q 143 793 143 765 q 149 810 143 804 q 165 819 156 815 q 186 828 176 824 q 206 836 196 832 q 310 868 256 861 q 421 868 364 875 q 502 841 467 861 q 557 782 538 821 m 229 506 q 217 476 218 497 q 229 506 232 494 m 261 122 q 339 213 307 160 q 276 156 306 185 q 203 107 246 126 q 261 122 240 106 z "},"p":{"ha":579,"x_min":29,"x_max":654,"o":"m 631 793 q 650 762 646 778 q 653 728 654 746 q 638 668 650 696 q 608 614 626 640 q 481 485 557 538 q 307 400 406 432 q 335 419 319 411 q 361 443 350 428 q 342 433 347 438 l 300 417 q 281 407 294 413 q 271 397 274 403 q 265 383 268 390 q 221 283 243 333 q 175 181 199 232 q 164 163 171 171 q 162 175 161 169 q 165 188 163 181 q 171 214 171 199 q 127 135 144 176 q 86 56 110 94 q 92 117 89 86 q 99 185 96 149 q 78 154 83 169 q 56 124 72 139 q 67 186 63 157 q 78 243 71 215 q 85 273 81 258 q 93 303 89 288 q 94 326 97 322 q 69 335 92 331 q 88 347 76 343 q 107 364 100 351 q 70 356 86 364 q 35 344 54 347 q 42 353 38 351 q 50 358 46 356 q 71 371 61 365 q 92 382 81 376 q 121 422 117 396 q 144 515 132 469 q 167 608 157 561 q 183 636 171 628 q 214 649 194 644 q 231 650 224 650 q 240 638 238 650 q 247 632 242 631 q 256 638 253 633 q 260 646 258 640 q 265 656 263 651 q 281 663 272 663 q 293 654 290 663 q 299 640 296 647 q 299 624 301 632 q 289 590 292 607 q 281 551 286 572 q 307 611 299 578 q 325 642 313 631 q 368 651 338 653 q 337 569 354 610 q 304 489 319 529 q 356 506 328 493 q 410 538 385 519 q 456 576 436 556 q 482 614 476 597 q 460 597 469 607 q 438 581 451 588 q 438 591 433 588 q 444 599 442 594 q 447 604 447 604 l 456 617 q 458 622 456 619 q 426 682 478 667 q 354 693 389 693 q 285 687 325 693 q 205 672 246 681 q 126 652 164 663 q 60 633 88 642 q 47 628 53 631 q 29 624 40 626 q 53 643 40 638 q 75 660 67 649 q 91 678 82 669 q 107 696 100 688 q 97 699 103 703 q 89 699 90 696 q 85 707 83 706 q 149 775 128 732 q 167 794 156 788 q 192 804 178 800 q 260 822 225 815 q 331 835 294 828 q 346 840 333 836 q 263 832 301 842 q 185 817 225 822 q 197 834 189 829 q 217 843 206 839 q 256 853 232 849 q 307 859 281 857 q 358 862 333 861 q 400 863 383 863 q 460 860 428 863 q 523 849 492 857 q 582 828 554 842 q 631 793 610 814 z "},"q":{"ha":561,"x_min":-33,"x_max":588,"o":"m 424 286 q 375 240 401 257 q 395 279 382 264 q 413 314 408 294 q 350 260 381 288 q 278 208 319 232 q 331 208 306 204 q 378 197 356 211 q 368 189 375 190 q 354 182 361 188 q 393 180 374 179 q 435 181 413 181 q 398 159 418 167 q 356 147 378 151 q 313 137 335 142 q 272 122 292 132 l 394 136 q 376 126 386 128 q 356 121 365 124 q 240 94 296 110 q 125 65 183 79 l 13 40 q -17 42 -10 36 q -24 67 -25 47 q -23 70 -24 69 q -22 72 -22 71 q -32 103 -33 89 q -10 128 -31 117 q -11 135 -7 131 q -16 150 -22 146 q 0 158 -10 154 q 33 168 15 165 q 67 174 50 171 q 90 177 78 176 q 114 181 101 178 q 106 194 111 189 q 97 203 101 199 q 63 317 56 254 q 67 360 65 339 q 68 404 68 382 q 34 301 46 353 q 29 193 22 249 q 15 226 18 208 q 10 260 11 243 q 11 313 8 288 q 19 365 14 339 q 82 554 40 463 q 108 615 97 583 q 139 674 119 646 q 151 690 146 682 q 163 706 156 699 q 200 726 179 726 q 222 721 211 726 q 237 718 232 717 q 249 725 242 719 q 267 736 260 736 q 283 719 278 736 q 288 715 285 715 q 294 711 290 714 q 321 699 318 706 q 311 672 324 692 q 269 597 289 636 q 233 518 250 558 q 254 549 244 533 q 276 585 264 565 q 272 560 276 569 q 261 543 267 551 q 216 438 232 492 q 186 331 200 385 q 184 313 185 322 q 186 296 183 304 q 208 272 189 272 q 228 278 218 272 q 246 290 239 283 q 277 318 263 304 q 303 350 292 332 q 377 495 346 421 q 422 649 408 569 q 419 686 424 665 q 389 736 413 718 q 328 760 365 754 q 257 756 293 764 q 168 730 211 746 q 86 689 125 714 q 76 682 81 686 q 60 681 71 678 q 146 751 100 719 q 250 803 192 783 q 176 782 210 799 q 106 753 142 765 q 106 761 106 761 q 137 784 124 772 q 147 817 150 796 q 151 825 146 822 q 164 831 157 828 q 211 852 188 840 q 261 871 235 864 q 318 882 289 878 q 375 886 347 886 q 429 881 401 886 q 483 865 457 876 q 529 836 508 854 q 563 792 550 818 q 585 707 582 750 q 579 619 588 664 q 424 286 542 443 m 165 257 q 190 228 176 228 q 217 236 199 228 q 190 244 201 240 q 165 257 178 249 z "},"r":{"ha":636,"x_min":38,"x_max":663,"o":"m 596 824 q 645 782 628 806 q 656 724 663 758 q 617 619 647 668 q 542 531 586 571 q 448 462 499 492 q 349 413 397 432 q 335 406 342 410 q 318 399 328 403 q 351 359 335 379 q 383 319 368 339 q 387 317 386 318 q 389 314 388 315 l 401 301 q 404 298 403 299 q 407 294 406 297 q 421 277 417 283 q 427 268 425 271 q 429 263 429 265 q 429 258 429 261 q 439 235 428 244 q 457 215 450 226 q 473 195 464 204 q 490 175 482 186 q 506 155 497 164 q 521 131 515 146 q 475 162 494 146 q 432 193 456 178 q 439 176 431 182 q 449 158 447 169 q 335 222 386 186 q 231 296 283 258 q 196 219 213 256 q 164 146 179 182 q 167 178 161 163 q 174 210 174 194 q 131 134 149 174 q 90 56 114 94 q 97 119 93 88 q 103 185 100 150 q 83 156 88 172 q 63 128 79 140 q 83 247 69 190 q 111 361 97 303 q 84 360 96 365 q 60 357 72 356 q 67 365 61 363 q 78 371 74 367 q 58 367 67 372 q 38 363 49 363 q 56 380 49 375 q 90 394 63 385 q 117 410 108 401 q 129 435 125 419 q 151 526 139 481 q 174 615 163 571 q 177 628 176 622 q 188 638 178 635 q 210 646 199 642 q 233 650 221 650 q 242 648 240 650 q 244 642 243 646 q 246 636 244 639 q 251 632 247 633 q 263 641 261 635 q 268 654 264 647 q 285 663 272 663 q 297 650 294 661 q 300 617 306 632 q 295 592 297 604 q 290 568 293 579 q 303 589 299 578 q 311 611 307 600 q 319 631 317 624 q 326 642 321 638 q 341 648 331 646 q 374 653 351 650 q 342 569 358 610 q 310 489 325 529 q 359 506 332 493 q 411 535 386 518 q 456 572 436 553 q 485 610 476 592 q 463 595 469 606 q 440 581 456 585 q 444 594 439 589 q 451 604 449 599 q 467 638 463 621 q 465 661 469 653 q 442 678 460 669 q 390 690 417 689 q 335 690 363 692 q 228 674 279 688 q 181 663 204 668 q 133 651 157 658 q 86 639 110 644 q 38 628 63 633 q 111 697 82 656 q 99 701 106 703 q 88 703 92 699 q 93 710 90 708 q 150 771 129 731 q 170 793 157 786 q 200 806 183 800 q 265 822 232 815 q 329 835 297 828 q 342 839 336 835 q 304 838 322 842 q 268 832 286 835 q 231 824 249 829 q 190 818 213 818 q 224 842 194 833 q 289 856 253 851 q 360 861 325 860 q 410 863 394 863 q 481 858 446 863 q 551 842 515 853 q 596 824 578 835 m 303 410 q 335 417 324 408 q 357 436 346 425 q 328 426 343 431 q 303 410 314 421 z "},"s":{"ha":511,"x_min":-83,"x_max":592,"o":"m 583 853 q 590 844 592 851 q 586 829 589 836 q 558 766 572 797 q 529 703 544 735 q 492 615 508 661 q 468 571 483 592 q 438 526 453 550 q 442 558 435 544 q 449 590 450 572 q 407 524 426 558 q 368 454 388 490 q 370 478 365 467 q 378 503 375 490 q 383 530 381 517 q 388 557 385 543 q 392 586 390 572 q 393 615 394 600 q 371 568 378 592 q 340 524 364 544 q 361 619 351 574 q 382 713 371 665 q 345 693 363 703 q 314 669 328 683 q 324 669 324 669 q 325 665 328 667 q 321 663 322 664 q 304 653 315 658 q 262 617 285 633 q 218 581 239 600 q 163 519 185 553 q 178 479 146 490 q 249 453 213 465 q 325 425 285 440 q 299 446 314 440 q 272 461 285 451 q 356 435 318 458 q 406 378 394 411 q 419 324 414 351 q 422 268 424 296 q 401 222 421 240 q 354 193 382 204 q 293 169 324 181 q 231 150 263 158 q 123 123 178 135 q 14 97 68 111 q -3 100 7 96 q 57 124 26 115 q 114 150 88 132 q 57 140 86 144 q 0 129 28 136 q -34 124 -17 126 q -68 115 -51 122 q -79 118 -75 114 q -75 128 -83 125 q -62 133 -68 131 q -50 139 -57 136 q 25 174 -11 154 q 97 213 61 193 q 25 196 60 210 q -50 171 -10 182 q 19 215 -17 199 q 90 243 54 231 q 188 284 140 261 q 279 332 235 307 q 274 340 278 339 q 264 343 269 342 q 92 400 178 365 q 33 440 51 415 q 18 503 14 465 q 48 601 21 554 q 115 687 75 647 q 200 758 154 726 q 288 811 246 789 q 318 825 300 818 q 349 837 333 832 q 382 842 365 842 q 429 829 407 842 q 439 840 436 835 q 444 851 442 846 q 461 865 449 863 q 469 867 465 867 q 476 868 474 867 l 508 874 q 516 875 513 875 q 524 876 519 875 q 529 877 526 876 q 533 876 532 878 q 583 853 554 856 m 197 700 q 296 754 250 724 q 392 811 342 785 q 285 767 332 796 q 197 700 238 738 m 307 371 q 238 388 274 382 q 167 400 203 394 q 296 363 229 375 q 304 364 299 361 q 307 371 307 367 z "},"t":{"ha":597,"x_min":61,"x_max":722,"o":"m 722 817 q 659 801 690 806 q 597 783 628 796 l 651 783 q 642 767 651 771 q 624 760 633 763 q 550 740 586 751 q 475 724 514 728 q 439 697 449 719 q 424 659 432 678 q 408 621 417 640 l 347 467 q 317 389 332 431 q 298 340 311 375 q 269 268 285 306 q 239 199 254 231 q 215 160 224 168 q 219 189 213 175 q 226 221 226 203 q 182 137 200 178 q 139 56 164 96 l 153 183 q 133 155 138 169 q 115 129 128 140 q 117 168 114 140 q 128 234 121 196 q 147 317 136 272 q 171 406 158 361 q 209 543 190 475 q 247 682 228 611 q 211 681 228 685 q 176 675 194 678 q 156 672 163 672 l 115 664 q 94 661 108 664 q 79 659 88 660 q 67 667 71 658 q 66 687 61 675 q 79 703 71 699 q 97 708 88 706 q 117 717 107 710 q 105 719 111 719 q 92 719 99 719 q 78 718 85 718 q 67 722 72 718 q 85 733 74 732 q 100 743 97 733 q 105 749 101 746 q 103 754 108 751 q 94 764 94 758 q 96 775 93 769 q 103 797 100 786 q 115 818 107 808 q 126 824 119 824 q 139 824 132 824 q 202 828 171 826 q 265 829 233 829 q 300 853 296 829 q 307 869 301 861 q 318 879 310 879 q 326 877 325 881 q 328 869 326 874 q 338 861 331 861 q 351 863 344 861 q 372 860 364 864 q 378 844 379 857 q 386 836 378 836 q 396 843 393 836 q 397 846 397 844 q 417 874 400 869 q 456 878 433 879 q 474 878 467 878 q 485 880 481 878 q 496 886 490 882 q 510 899 501 890 q 510 874 514 885 q 504 853 507 864 q 519 836 500 836 q 546 838 533 838 q 572 839 558 839 q 583 840 581 839 l 607 840 q 618 842 611 842 l 714 842 q 701 831 711 832 q 685 824 690 831 q 702 820 692 817 q 722 817 713 824 z "},"u":{"ha":515,"x_min":-32,"x_max":594,"o":"m 556 792 q 577 823 571 807 q 594 851 583 839 q 581 786 593 831 q 549 685 568 742 q 507 561 531 628 q 457 429 483 494 q 405 303 431 364 q 356 196 379 242 q 352 204 351 200 q 355 212 353 208 q 358 219 357 215 q 356 228 358 224 q 342 208 349 218 q 329 190 336 199 q 288 143 313 168 q 234 101 264 118 q 161 90 204 83 q 164 83 161 85 q 170 80 167 81 q 177 78 174 79 q 181 74 181 78 q 54 96 106 71 q -15 169 3 121 q -31 261 -32 215 q -18 353 -29 307 q 29 519 0 438 q 94 683 58 601 l 136 783 q 142 796 139 790 q 150 807 146 801 q 184 840 165 831 q 235 846 203 849 q 261 819 261 844 q 256 801 261 810 q 254 783 251 793 q 267 802 263 792 q 278 821 271 813 q 304 829 288 836 q 315 815 321 826 q 304 788 311 803 q 256 679 281 733 q 207 571 231 625 q 129 328 156 453 q 125 292 125 310 q 139 258 125 275 q 168 240 151 240 q 192 250 179 240 q 217 274 204 260 q 239 301 229 288 q 254 322 249 314 q 302 416 282 368 q 346 511 322 464 q 413 649 379 581 q 474 788 446 717 q 483 800 475 794 q 478 756 485 776 q 468 713 471 735 q 522 819 496 765 q 586 921 547 872 q 574 858 585 889 q 556 792 564 828 m 181 626 q 194 649 188 638 q 208 674 201 661 q 233 727 219 701 q 253 782 247 753 q 231 751 243 772 q 209 708 219 731 q 191 663 199 685 q 181 626 183 640 m 114 225 q 157 192 133 192 q 190 203 174 192 q 151 208 168 200 q 114 225 133 217 z "},"v":{"ha":503,"x_min":76,"x_max":615,"o":"m 565 856 q 604 850 593 860 q 606 818 615 840 q 558 724 585 771 q 454 529 506 626 q 344 336 403 432 q 256 191 300 263 q 163 49 213 119 q 154 38 161 47 q 158 73 153 57 q 172 104 164 89 q 187 134 179 119 q 199 164 194 149 q 220 226 208 196 q 243 286 232 256 q 193 197 215 242 q 144 107 171 151 q 131 199 135 153 q 117 294 126 246 q 109 260 111 278 q 106 226 107 243 q 101 193 104 210 q 92 160 99 176 q 91 169 92 165 q 90 178 90 174 l 88 215 q 87 224 88 219 q 86 233 86 229 q 79 486 76 360 q 85 739 82 613 l 85 765 q 92 794 85 782 q 124 810 100 807 q 135 822 135 811 q 135 832 135 828 q 138 842 136 836 q 155 867 140 860 q 189 869 169 875 q 204 858 203 865 q 203 840 206 850 q 196 776 196 808 q 196 713 196 744 q 197 694 197 703 q 199 678 197 686 l 201 676 q 207 737 204 707 q 213 796 210 767 q 218 822 213 810 q 240 835 224 835 q 252 829 247 833 q 258 818 257 825 q 260 799 261 808 q 258 778 260 789 q 251 711 256 744 q 243 644 247 678 q 239 611 240 628 q 236 576 238 594 l 219 442 q 217 408 218 425 q 213 374 215 390 q 210 353 211 363 q 217 333 210 344 q 222 345 219 340 q 228 356 225 350 l 249 401 q 356 628 303 515 q 457 858 408 742 q 463 871 460 865 q 471 882 467 876 q 506 892 483 899 q 522 885 514 888 q 540 881 531 883 q 554 871 553 879 q 558 856 556 863 q 562 855 561 856 q 565 856 563 854 z "},"w":{"ha":817,"x_min":81,"x_max":943,"o":"m 888 868 q 924 831 943 875 q 901 780 913 806 q 875 731 889 754 q 771 541 822 635 q 667 353 719 447 q 643 314 656 333 q 617 275 631 294 q 566 190 589 235 q 513 106 543 146 q 494 78 503 92 q 474 53 485 65 q 479 87 474 71 q 492 118 485 103 q 507 149 499 133 q 519 181 515 164 q 542 243 528 213 q 567 306 556 274 q 513 214 538 261 q 461 119 489 167 q 458 142 460 131 q 456 164 457 153 l 444 253 q 442 275 443 264 q 439 297 440 286 l 432 297 q 424 235 425 267 q 414 172 422 204 q 401 297 406 235 q 396 422 397 360 q 281 238 338 329 q 161 54 224 146 q 160 79 157 67 q 171 103 164 92 q 210 194 194 147 q 244 286 225 240 q 233 279 235 285 q 229 268 232 274 q 197 207 213 238 q 165 144 181 176 q 160 131 163 138 q 147 117 157 125 q 135 213 139 165 q 121 308 132 260 q 113 274 115 292 q 110 240 111 257 q 106 207 108 224 q 96 174 103 190 q 95 182 96 178 q 94 189 94 186 l 92 221 q 91 228 92 225 q 90 236 90 232 q 83 508 81 372 q 89 779 86 643 q 97 807 90 800 q 128 821 104 814 q 140 833 139 825 q 140 842 140 838 q 142 853 140 847 q 151 877 144 872 q 179 882 157 882 q 208 856 213 883 q 204 820 206 838 q 201 783 203 803 q 207 688 199 732 q 212 748 210 718 q 217 810 214 778 q 218 823 217 817 q 224 835 219 829 q 246 846 231 849 q 263 832 260 843 q 264 797 267 817 q 253 693 258 744 q 240 590 247 642 q 226 469 233 529 q 214 346 218 408 q 239 365 231 350 q 367 612 308 488 q 483 863 425 736 q 488 873 486 868 q 492 882 489 878 q 495 897 494 889 q 510 903 496 904 q 531 894 521 903 q 540 875 542 885 q 540 818 540 847 q 543 761 539 789 q 558 822 551 792 q 579 882 565 853 q 558 610 572 744 q 532 339 543 476 l 575 428 q 655 599 615 514 q 735 771 694 685 q 740 783 738 778 q 744 794 742 789 l 765 844 q 770 856 768 850 q 775 868 772 861 q 788 892 779 882 q 828 903 804 913 q 857 894 840 894 q 872 884 871 893 q 876 867 874 875 q 882 867 879 867 q 888 868 885 868 m 246 288 q 257 314 254 299 q 247 301 250 307 q 246 288 243 294 z "},"x":{"ha":629,"x_min":-118,"x_max":781,"o":"m 776 908 q 776 896 781 900 q 768 889 771 892 q 615 717 690 801 q 461 546 539 632 q 421 502 442 524 q 379 458 400 481 q 367 425 364 446 q 378 297 374 361 q 388 169 383 233 q 385 139 389 154 q 383 108 382 124 q 369 160 376 135 q 351 210 361 185 q 349 147 347 178 q 353 85 351 117 q 326 146 338 115 q 296 208 315 176 q 301 165 294 185 q 304 125 307 144 q 284 171 292 147 q 270 219 276 194 q 258 269 264 243 q 242 319 251 294 q 96 192 174 246 q 94 199 92 194 q 90 207 97 203 q 59 180 75 193 q 26 153 43 167 q -7 126 10 139 q -47 101 -24 113 q -32 124 -42 115 q -15 143 -22 132 q -8 153 -14 147 l 6 174 q 13 183 10 178 q -52 130 -24 160 q -117 76 -81 100 l -118 79 q -106 99 -115 90 q -90 119 -97 108 q -74 142 -82 131 q -65 169 -67 154 q -53 196 -64 183 q -32 219 -43 208 q 65 326 17 272 q 161 433 113 379 q 174 449 168 440 q 188 464 181 457 q 194 493 201 476 q 157 632 171 563 q 121 771 143 701 q 113 819 113 794 q 133 846 111 840 l 154 850 q 176 856 168 851 q 188 874 185 860 q 197 890 189 883 q 218 899 206 896 q 240 904 226 899 q 260 910 250 910 q 285 903 274 910 q 308 893 297 896 q 321 878 319 889 q 324 858 322 868 q 325 840 325 849 q 326 821 325 831 l 332 744 q 333 726 333 735 q 335 707 333 717 q 336 691 336 700 q 343 675 336 682 q 361 692 354 682 q 375 713 368 703 q 440 804 404 761 q 514 889 475 847 q 530 901 522 897 q 551 903 538 906 q 584 899 568 899 q 617 915 600 900 q 599 877 615 892 q 572 842 582 863 q 647 900 611 872 q 728 944 682 928 q 694 884 715 913 q 650 824 674 856 q 717 864 689 840 q 776 908 744 888 m 203 750 q 213 661 206 706 q 233 574 221 617 q 221 662 228 618 q 203 750 214 706 z "},"y":{"ha":614,"x_min":99,"x_max":768,"o":"m 761 907 q 763 897 768 900 q 756 890 758 893 q 599 715 676 803 q 442 540 521 628 q 408 504 421 517 q 389 481 396 492 q 376 455 382 469 q 361 411 369 440 q 310 263 338 336 q 258 115 282 190 q 243 92 256 100 q 249 151 246 124 q 244 207 251 179 q 207 122 225 164 q 169 38 189 79 l 161 39 q 169 116 165 78 q 178 194 174 154 q 163 169 164 183 q 149 140 161 154 q 146 174 143 154 q 163 294 153 235 q 183 415 172 354 q 176 510 194 461 q 151 594 161 551 q 132 678 142 636 q 119 725 126 701 q 106 772 113 749 q 101 791 103 782 q 99 810 100 800 q 103 838 99 832 q 133 849 108 843 q 161 856 149 851 q 175 878 174 860 q 183 890 176 885 q 200 897 190 894 q 211 899 206 899 q 222 903 217 900 q 244 908 233 908 q 272 902 260 908 q 297 892 285 896 q 308 880 307 889 q 310 863 308 871 q 315 785 313 824 q 321 708 318 747 l 321 704 l 322 696 q 328 675 322 685 q 347 691 340 682 q 358 710 353 700 q 425 803 389 758 q 501 890 461 847 q 538 903 515 907 q 569 900 553 900 q 600 914 585 900 q 599 893 607 900 q 586 879 592 886 q 583 875 585 876 q 581 871 582 874 l 568 856 q 565 851 565 853 q 561 847 564 850 q 725 957 638 908 q 685 890 707 922 q 640 826 664 858 q 703 864 676 842 q 761 907 731 886 m 190 754 q 191 718 189 740 q 197 670 193 696 q 208 619 201 644 q 221 574 214 594 q 208 665 215 619 q 190 754 201 710 z "},"z":{"ha":651,"x_min":-78,"x_max":781,"o":"m 560 840 q 642 842 601 838 q 725 843 683 847 q 705 824 722 826 q 675 814 688 821 q 681 803 678 806 q 689 767 694 783 q 667 736 683 751 q 631 708 650 721 q 596 679 611 696 q 582 660 586 669 l 643 704 q 628 674 639 688 q 604 649 618 660 q 404 481 506 563 q 203 315 303 399 q 190 305 196 310 q 179 290 183 300 q 275 292 228 290 q 368 290 322 293 q 460 288 414 288 q 553 282 507 289 q 454 271 504 271 q 356 261 404 271 q 453 253 404 253 q 554 246 503 254 q 520 229 538 235 q 484 221 503 224 q 448 215 465 218 q 414 204 431 211 q 422 203 417 201 q 428 197 426 204 q 195 154 311 178 q -35 99 79 131 q -46 95 -40 96 q -58 93 -51 94 q -78 107 -78 89 q -71 135 -76 122 q -42 154 -65 149 q -57 171 -50 163 q -61 190 -64 179 q -49 208 -58 201 q -29 219 -40 214 q -44 232 -33 231 q -64 236 -54 233 q -78 247 -76 239 q -73 253 -78 253 q -65 256 -68 254 q -62 257 -62 257 q -1 278 -24 260 q 42 322 22 297 q 399 692 204 522 q 420 713 410 701 q 449 729 431 724 q 439 710 447 718 q 426 689 431 701 l 549 783 q 536 785 542 786 q 524 783 531 785 q 354 746 439 764 q 183 708 269 728 q 149 704 167 701 q 136 714 140 707 q 143 726 133 724 q 156 731 150 729 q 169 735 163 733 q 215 747 192 742 q 258 761 238 751 q 196 750 226 757 q 133 735 165 743 q 111 728 121 729 q 97 728 103 725 q 92 739 90 732 q 95 769 93 754 q 113 796 97 785 q 122 810 119 800 l 135 842 q 182 871 143 871 q 339 876 261 874 q 496 882 417 879 q 512 882 504 882 q 528 883 519 882 l 592 883 q 608 885 600 885 q 624 885 615 885 q 697 883 660 888 q 771 879 733 878 q 781 871 778 879 q 670 855 726 858 q 560 840 614 851 m 533 836 q 529 837 531 836 q 526 838 528 838 q 525 835 517 838 q 533 836 531 835 z "},"{":{"ha":549,"x_min":63,"x_max":688,"o":"m 521 899 q 563 936 546 914 q 608 972 579 958 q 592 949 600 961 q 574 925 585 936 q 515 832 536 881 q 478 732 493 783 q 452 658 464 689 q 424 603 440 628 q 384 556 408 579 q 322 503 360 532 l 326 514 q 226 458 282 479 q 306 344 293 406 q 303 215 318 283 q 290 169 297 192 q 276 122 283 146 q 278 48 265 82 q 321 -17 290 14 q 331 -29 324 -18 q 281 -3 303 -17 q 244 29 260 10 q 269 -15 250 3 q 306 -53 289 -33 q 226 -17 261 -39 q 178 47 192 6 q 172 89 171 68 q 171 132 172 110 l 171 165 q 165 153 163 160 q 161 142 168 146 q 160 143 161 143 q 158 144 160 144 q 163 216 161 181 q 168 288 165 251 q 168 347 171 317 q 158 404 165 376 q 135 449 151 429 q 88 479 119 468 q 75 485 79 482 q 78 500 63 494 l 81 500 q 158 529 128 507 q 213 582 188 551 q 276 671 247 625 q 326 765 306 717 q 379 867 350 818 q 363 817 374 840 q 344 765 351 793 q 357 773 354 768 q 363 782 360 778 q 426 896 396 836 q 474 963 446 935 q 535 1008 501 990 q 608 1036 569 1026 q 688 1050 647 1046 q 588 986 626 1026 q 521 899 550 946 m 363 565 q 386 603 388 579 l 363 565 m 182 231 q 183 243 182 238 q 181 257 185 249 q 181 243 181 249 q 182 231 182 238 m 175 188 q 178 207 179 197 q 182 226 176 217 q 173 208 171 218 q 175 188 175 199 z "},"}":{"ha":618,"x_min":-69,"x_max":557,"o":"m 543 506 q 542 490 557 496 q 538 489 540 489 q 461 461 492 483 q 407 408 431 439 q 342 319 371 364 q 292 224 314 274 q 240 122 268 169 q 256 173 246 149 q 274 225 267 197 q 253 204 265 222 q 229 165 242 186 q 207 122 217 143 q 193 93 197 101 q 83 -19 150 14 q -69 -61 15 -51 q 31 3 -7 -37 q 99 92 69 43 q 76 74 86 83 q 56 53 65 64 q 35 33 46 43 q 10 17 25 24 q 26 41 18 29 q 44 64 35 53 q 104 157 82 108 q 142 258 126 206 q 179 358 157 308 q 227 429 194 399 q 296 488 260 460 q 294 482 294 485 q 293 476 294 479 q 392 532 342 513 q 340 585 358 557 q 313 644 321 614 q 307 708 306 675 q 317 774 308 740 q 328 821 322 797 q 342 868 335 844 q 341 942 353 908 q 297 1006 329 975 q 288 1018 297 1007 q 337 992 315 1006 q 374 960 358 979 q 349 1005 368 986 q 314 1043 331 1024 q 391 1008 364 1026 q 431 966 418 990 q 445 908 443 942 q 447 825 447 874 q 453 838 456 831 q 457 849 450 844 q 460 844 460 846 q 455 773 457 808 q 450 701 453 738 q 460 586 446 640 q 483 541 467 560 q 531 511 500 522 q 533 510 533 510 l 540 507 q 542 506 542 507 q 543 506 542 506 m 436 763 q 447 781 449 771 q 444 801 444 792 q 440 782 439 792 q 436 763 442 772 m 436 763 q 435 749 438 756 q 439 732 433 743 q 438 749 438 743 q 436 763 438 756 m 233 388 q 244 406 239 397 q 257 425 250 415 q 233 388 232 413 z "},"~":{"ha":517,"x_min":6,"x_max":503,"o":"m 351 463 q 392 477 374 467 q 428 499 411 488 q 464 524 446 511 q 503 546 482 536 q 474 508 493 524 q 401 442 436 479 q 358 409 382 422 q 306 396 333 396 q 260 408 283 396 q 239 417 256 411 q 203 431 222 424 q 167 443 183 438 q 143 449 150 449 q 110 440 131 449 q 70 418 90 431 q 33 392 50 406 q 8 369 17 378 q 14 392 6 385 q 29 407 22 400 q 42 422 36 414 q 58 440 49 429 q 38 432 44 438 q 22 426 32 426 q 25 443 15 433 q 71 489 49 467 q 124 529 93 511 q 165 547 143 540 q 210 547 186 554 q 253 535 232 540 q 290 513 275 529 q 340 492 314 492 q 394 508 365 492 l 436 533 q 399 493 422 508 q 351 463 375 478 z "},"!":{"ha":283,"x_min":6,"x_max":379,"o":"m 346 915 q 373 910 367 917 q 374 888 379 904 q 325 750 350 818 q 272 614 300 682 q 225 498 249 556 q 186 379 201 440 q 173 356 183 367 q 154 333 163 344 q 143 326 150 328 q 129 324 136 325 q 106 346 101 319 q 115 413 110 379 q 128 479 121 446 q 131 493 129 486 q 128 510 132 500 q 106 456 113 483 q 85 400 100 428 q 78 413 78 407 q 79 425 79 419 q 98 530 86 478 q 125 635 110 582 q 154 751 140 693 q 176 871 168 810 q 179 890 176 876 q 199 908 182 908 q 222 910 210 910 q 244 901 235 911 q 250 892 250 896 q 252 878 251 885 q 254 865 253 872 q 266 883 264 874 q 272 903 268 893 q 300 929 282 929 q 328 918 310 929 q 346 915 336 914 m 153 267 q 181 253 176 272 q 176 222 181 239 q 163 186 171 204 q 145 152 154 168 q 128 125 136 136 q 117 117 121 115 q 106 132 114 118 q 67 117 90 111 q 53 124 57 119 q 50 134 50 128 q 51 147 50 140 q 49 158 51 153 q 28 137 35 149 q 6 118 22 125 q 20 185 13 153 q 40 250 28 218 q 58 270 46 264 q 83 274 69 276 q 104 263 97 271 q 114 232 111 256 q 130 253 122 243 q 153 267 138 263 z "},"?":{"ha":539,"x_min":69,"x_max":539,"o":"m 514 771 q 526 776 524 769 q 539 786 528 783 q 492 686 522 731 q 374 542 438 611 q 239 410 310 474 q 208 385 224 396 q 178 361 193 374 q 206 401 188 385 q 235 440 224 418 q 177 400 207 418 q 115 363 147 382 q 140 411 131 386 q 164 460 150 436 l 143 446 q 142 453 139 447 q 191 517 165 486 q 244 575 217 547 q 284 615 261 590 q 329 667 307 639 q 370 723 351 694 q 396 774 389 751 q 394 800 403 793 q 361 803 386 807 q 306 789 336 799 q 246 767 276 779 q 188 740 215 754 q 138 713 160 726 q 130 708 135 710 q 118 710 125 706 q 149 740 132 726 q 188 768 167 753 q 158 759 169 765 q 135 746 146 753 q 114 740 124 740 q 97 763 99 740 q 97 788 96 775 q 111 811 97 800 q 115 826 121 817 q 113 844 107 838 q 128 858 118 851 q 184 885 151 874 q 253 906 217 897 q 325 920 289 915 q 390 925 361 925 q 485 890 451 921 q 518 808 519 858 l 514 771 m 215 265 q 237 265 231 268 q 244 249 243 263 q 243 235 244 239 q 193 126 229 176 q 188 119 190 124 q 178 118 185 115 q 174 124 175 119 q 169 132 172 128 q 153 117 163 122 q 129 117 144 113 q 117 124 119 119 q 114 134 114 128 q 114 147 114 140 q 111 158 114 153 q 93 135 100 147 q 69 117 86 124 q 83 180 75 149 q 101 243 90 211 q 144 274 111 276 q 167 265 160 272 q 178 233 175 257 q 194 252 189 242 q 215 265 199 263 z "},"#":{"ha":738,"x_min":-61,"x_max":697,"o":"m 606 585 q 652 576 629 574 q 697 572 675 579 q 690 565 694 565 q 681 564 685 564 q 627 559 653 564 q 575 556 601 554 q 556 544 563 556 q 537 505 546 525 q 521 461 528 485 l 610 461 q 588 452 600 453 q 564 449 576 451 q 604 440 583 440 q 644 432 625 439 q 625 424 635 425 q 604 422 615 424 q 560 418 582 419 q 517 415 539 417 q 489 396 496 415 l 447 313 q 443 304 444 310 q 435 301 442 299 q 428 309 428 304 q 429 318 428 314 l 446 372 q 451 404 454 386 q 432 377 436 392 q 421 350 428 363 q 408 322 414 336 q 394 293 401 308 q 342 179 369 233 l 335 182 q 349 241 342 211 q 364 303 357 271 q 349 288 353 296 q 340 272 346 279 q 332 259 336 265 q 322 247 328 253 q 314 235 318 242 q 297 232 310 228 q 290 242 288 236 q 294 256 292 249 q 311 317 303 286 q 331 378 319 347 q 315 393 336 394 q 275 390 296 390 q 235 388 254 389 q 210 371 217 388 q 188 333 199 351 q 165 292 178 314 q 161 316 160 304 q 167 338 163 328 q 174 358 171 349 q 176 379 178 368 q 165 375 167 381 q 160 365 163 369 l 89 215 q 80 195 85 206 q 64 174 75 185 q 78 236 68 207 q 90 300 88 265 q 67 267 78 281 q 46 239 57 253 q 40 233 43 236 q 29 231 36 229 q 20 238 21 233 q 22 247 19 243 q 33 285 28 267 q 46 324 39 304 q 51 341 49 332 q 56 360 53 350 q 22 359 38 363 q -11 356 6 356 q -22 354 -17 356 q -35 353 -28 353 q -57 364 -53 353 q -58 376 -61 369 q -49 385 -54 383 q -32 399 -35 390 q -26 418 -29 407 q 21 453 -21 451 q 29 454 26 453 l 44 454 q 53 456 47 456 q 73 457 65 457 q 85 459 81 457 q 92 467 89 461 q 99 488 94 474 q 103 500 100 494 q 103 514 106 506 q 60 510 81 511 q 21 507 40 510 q 7 505 14 506 q -7 507 0 504 q -19 525 -24 511 q -3 555 -15 544 q 38 571 10 565 l 42 571 q 44 572 44 572 q 43 581 47 578 q 38 588 39 585 q 40 610 33 601 q 65 619 47 619 q 111 615 89 619 q 139 631 133 614 q 153 676 146 653 q 171 721 160 700 q 214 754 188 754 q 228 753 221 754 q 244 749 236 751 q 251 752 250 749 q 254 760 251 756 q 290 774 263 781 q 313 767 300 772 q 336 752 333 758 q 326 729 339 746 q 303 681 308 707 q 321 701 313 694 q 350 706 335 715 q 358 697 357 703 q 356 685 358 692 q 345 663 350 674 q 333 642 340 653 q 331 635 331 636 l 322 619 q 319 613 322 618 q 324 610 322 611 q 326 608 325 608 q 365 606 351 607 q 385 610 378 606 q 398 626 393 615 q 410 657 403 636 q 419 687 415 672 q 431 717 424 701 q 449 744 439 736 q 475 753 458 753 q 507 749 489 753 q 513 755 513 751 q 515 761 514 758 q 550 774 526 781 l 567 769 q 597 753 594 761 q 585 725 600 746 q 577 712 581 718 q 572 696 574 706 q 592 707 582 703 q 615 704 603 711 q 618 685 624 697 q 601 649 610 667 q 585 613 593 632 q 616 608 600 607 q 647 600 632 608 q 628 591 640 590 q 606 585 617 592 m 293 463 q 336 465 321 463 q 359 474 351 467 q 369 494 367 481 q 372 533 371 508 q 335 532 353 532 q 299 531 317 532 q 279 521 285 531 q 265 492 272 506 q 257 463 258 479 l 293 463 z "},"@":{"ha":783,"x_min":-31,"x_max":718,"o":"m 639 724 q 709 606 700 669 q 699 475 718 543 q 661 388 688 428 q 599 317 635 349 q 570 297 585 306 q 536 286 556 289 q 467 301 501 283 q 418 347 433 318 q 413 360 415 354 q 404 372 411 367 q 368 349 389 363 q 324 324 347 336 q 278 304 301 313 q 236 296 256 296 q 176 315 201 296 q 147 367 150 335 q 149 403 144 386 q 161 440 153 421 q 144 425 147 435 q 129 408 140 415 q 128 420 125 415 q 133 431 131 425 q 230 556 171 501 q 367 635 289 610 q 397 639 383 639 q 465 604 443 639 q 479 586 472 594 q 485 564 486 578 q 462 581 474 574 q 435 588 450 588 q 379 569 404 589 q 411 574 397 572 q 439 574 425 576 q 464 550 468 569 q 450 531 460 538 q 428 526 440 524 q 389 528 406 533 q 356 513 372 522 q 292 458 315 490 q 254 390 269 426 q 252 383 253 386 q 251 375 251 379 q 253 372 251 374 l 253 365 q 254 363 254 365 q 296 370 278 363 q 332 388 314 378 q 396 428 364 407 q 454 475 428 449 q 487 490 469 489 q 522 493 504 490 q 538 487 533 496 q 538 467 542 478 q 530 449 535 457 q 519 432 525 440 q 512 414 515 424 q 511 392 508 404 q 589 474 563 418 q 606 535 601 503 q 606 599 611 567 q 514 676 596 664 q 533 681 525 681 q 554 677 540 681 q 597 667 568 674 q 492 715 553 708 q 399 715 443 722 q 314 688 356 707 q 159 576 215 644 q 79 419 103 508 q 72 358 71 389 q 89 297 72 326 q 101 282 92 289 q 103 290 104 286 q 101 299 103 294 q 99 308 100 304 q 103 317 99 313 q 110 314 110 317 q 124 272 111 289 q 155 247 136 256 q 197 234 174 238 q 242 232 219 231 q 326 252 290 235 q 401 296 363 269 q 406 275 407 279 q 394 263 406 271 q 308 214 354 232 q 210 189 263 196 q 178 188 194 186 q 147 192 163 190 q 190 176 167 181 q 238 175 214 171 q 305 192 272 182 q 369 218 338 203 q 354 203 363 207 q 338 196 346 200 q 333 194 335 194 q 328 192 331 193 l 307 182 q 196 154 254 154 q 124 163 164 154 q 60 193 85 172 q -6 267 15 225 q -29 358 -28 310 q -10 492 -31 428 q 58 614 10 556 q 67 624 63 619 q 75 636 71 629 l 75 640 q 58 630 64 638 q 43 619 53 622 l 11 589 q 39 624 19 610 q 111 690 71 664 q 287 773 194 746 q 488 788 379 800 q 572 776 535 783 q 647 736 608 768 q 644 734 647 735 q 639 732 642 733 q 635 729 636 731 q 639 724 635 728 m 617 375 q 676 565 685 464 q 640 447 669 503 q 563 340 611 392 q 597 353 586 342 q 617 375 608 364 z "},"":{"ha":617,"x_min":-51,"x_max":592,"o":"m 579 807 q 590 744 592 775 q 564 683 588 713 q 499 622 535 647 q 460 592 479 607 q 419 560 440 576 q 460 540 440 550 q 493 513 479 531 q 493 524 499 519 q 494 536 488 529 q 529 494 514 515 q 547 447 544 474 q 531 358 551 399 q 406 217 488 269 q 224 164 324 164 q 188 166 206 164 q 150 171 169 168 q 227 190 189 185 q 296 218 265 196 q 256 211 276 214 q 217 208 236 208 q 149 218 182 208 q 213 240 181 229 q 278 271 246 251 q 228 265 250 271 q 178 265 206 258 q 247 301 213 288 q 328 342 292 318 q 399 396 365 367 q 428 429 415 408 q 431 450 435 443 q 410 463 428 457 q 361 468 386 469 q 311 464 336 467 q 288 460 300 463 q 264 456 275 458 q 251 454 257 454 q 242 460 244 454 q 242 470 238 467 q 251 476 246 474 q 259 481 254 479 q 267 488 264 483 q 263 490 264 490 q 248 490 256 493 q 238 496 240 488 q 241 506 235 503 q 253 513 247 510 q 322 569 288 540 q 388 629 357 597 q 395 636 390 632 q 399 650 400 640 q 359 619 376 635 q 318 593 342 604 q 333 609 325 601 q 347 624 340 617 q 356 633 351 629 q 365 642 361 638 l 400 679 q 440 725 424 699 q 460 782 456 751 q 451 819 463 806 q 419 832 440 832 q 390 826 406 832 q 321 774 346 814 q 339 778 332 771 q 358 781 346 786 q 355 778 356 779 q 351 775 354 776 l 338 763 q 256 667 289 714 q 200 554 222 619 q 159 447 181 500 q 122 339 138 393 q 118 320 119 329 q 114 303 117 311 l 97 228 q 93 210 94 219 q 89 192 92 201 q 79 158 85 175 q 68 124 74 142 q 62 110 65 117 q 49 96 58 103 q 49 135 43 115 q 49 178 56 154 q -29 53 6 115 q -25 105 -28 79 q -24 158 -22 131 q -37 146 -36 154 q -47 132 -37 138 q -51 142 -51 138 q -50 153 -51 147 q -28 256 -42 206 q -1 360 -15 307 q 4 376 1 371 q 5 381 7 381 q -1 382 3 382 q -8 382 -4 382 q -10 386 -11 382 l -1 415 q 1 428 0 422 q 6 440 3 433 q 8 455 7 447 q 13 469 10 463 l 21 497 q 26 511 24 504 q 32 525 29 518 l 40 550 l 53 578 q 60 594 57 586 q 67 611 64 603 q 115 716 82 668 q 192 808 149 764 q 288 876 235 853 q 410 899 340 900 q 488 879 456 899 q 533 824 519 860 q 548 760 546 792 q 535 697 550 729 q 571 749 565 721 q 579 807 576 776 z "},"":{"ha":561,"x_min":-81,"x_max":517,"o":"m 517 713 q 495 744 506 728 q 453 764 485 760 q 483 703 485 733 q 469 642 481 674 q 456 608 463 625 q 439 576 450 592 q 434 588 432 583 q 438 597 436 592 q 441 607 440 603 q 432 617 442 611 q 427 626 425 619 q 428 640 429 633 q 375 674 424 688 q 285 639 328 660 q 208 585 242 618 q 196 568 201 579 q 208 546 189 550 q 222 543 217 543 l 249 535 q 350 504 304 521 q 442 451 396 488 q 426 486 438 472 q 400 509 415 500 q 367 524 385 518 q 333 538 350 531 q 432 511 383 536 q 476 474 461 496 q 493 428 492 453 q 483 381 494 404 q 444 339 471 357 q 432 331 438 335 q 419 324 426 326 q 414 303 403 315 q 431 263 431 283 q 424 224 431 243 q 328 92 394 142 q 167 18 263 43 q 115 13 144 13 q 75 14 96 13 q 33 17 54 15 q 103 26 68 24 q 168 47 138 28 q 109 42 139 43 q 49 43 79 40 q -10 53 18 46 q -61 76 -37 60 q 69 74 7 65 q -12 97 26 88 q -81 132 -51 107 q -72 140 -78 139 q -61 142 -67 142 q -10 145 -35 144 q 42 144 15 146 q 140 147 92 142 q 236 164 188 153 q 322 200 283 172 q 280 224 303 218 q 233 236 257 231 q 190 242 213 240 q 146 242 168 243 q 53 264 99 240 q 40 270 46 267 q 32 285 35 274 q 66 269 50 276 q 106 263 82 263 q 76 285 90 275 q 51 308 63 296 q 22 367 29 333 q 13 347 8 357 q 17 325 18 336 q -4 367 -3 349 q 10 410 -6 386 q 44 453 25 433 q 86 486 63 472 q 84 496 88 493 q 78 501 81 499 q 75 625 22 563 q 141 686 103 657 q 223 739 179 715 q 313 778 267 763 q 403 797 360 793 q 483 778 451 800 q 517 713 514 756 m 449 644 q 449 659 449 651 q 449 674 450 667 q 436 710 447 701 q 393 713 425 718 q 378 711 386 711 q 364 706 371 711 q 401 703 383 704 q 431 689 418 703 q 440 660 442 676 q 446 628 438 644 q 447 632 446 631 l 447 640 q 449 644 449 642 m 196 450 q 193 451 194 450 q 190 451 192 451 l 179 454 q 176 455 178 454 q 174 456 175 456 q 147 451 158 463 q 125 422 133 440 q 147 381 113 392 q 168 376 158 378 q 189 371 178 374 q 322 350 256 363 q 331 347 326 349 q 339 349 336 346 q 342 357 343 353 q 338 365 340 361 q 312 392 328 382 q 276 411 296 403 q 235 422 257 418 q 189 432 213 426 q 210 435 200 438 q 232 439 219 433 q 213 444 221 442 q 196 450 204 447 m 175 338 q 211 333 196 336 q 242 332 226 329 q 212 339 226 335 q 175 338 197 343 m 171 286 q 262 267 215 272 q 350 240 308 263 q 317 269 340 264 q 271 278 294 274 q 171 286 221 289 z "},"&":{"ha":664,"x_min":-90,"x_max":706,"o":"m 706 489 q 514 453 611 476 l 643 453 q 635 445 640 446 q 624 444 629 444 q 563 435 592 442 q 504 422 535 429 q 488 419 496 421 q 478 410 481 417 q 445 363 467 383 q 403 322 424 342 q 399 311 397 317 q 419 319 413 315 q 447 343 425 324 q 468 363 458 353 q 489 385 478 374 q 494 374 497 378 q 489 368 492 371 q 460 335 475 350 q 431 306 446 321 q 416 286 417 292 q 425 265 415 281 q 472 191 451 229 q 515 114 493 153 q 522 101 518 107 q 525 85 526 94 q 509 99 514 90 q 493 114 504 108 q 523 48 513 82 q 544 -21 533 14 q 476 62 508 19 q 397 139 443 104 q 413 90 403 114 q 435 43 424 67 q 425 45 428 42 q 419 51 422 49 q 364 106 392 79 q 313 164 336 133 q 292 181 299 181 q 269 168 286 181 q 256 160 261 163 q 217 134 239 147 q 171 109 194 121 q 123 90 147 97 q 76 82 99 82 q -1 97 38 82 q -58 140 -39 113 q -81 183 -72 161 q -89 229 -90 206 q -77 322 -89 281 q -43 396 -65 363 q 13 457 -21 429 q 90 510 47 485 q 110 524 108 519 q 106 546 111 528 q 92 626 92 585 q 107 706 93 667 q 109 663 110 685 q 114 621 108 642 q 122 655 118 638 q 129 689 126 672 q 154 749 133 718 q 208 806 175 779 q 283 850 242 832 q 368 871 325 868 q 447 856 410 875 q 499 804 483 838 q 507 746 511 776 q 488 688 501 715 q 460 628 474 660 q 460 649 454 640 q 461 671 465 658 q 432 619 444 644 q 397 571 419 593 q 387 584 386 578 q 390 599 388 590 q 407 653 399 626 q 418 713 415 681 q 404 685 406 699 q 389 660 403 671 q 395 705 390 683 q 394 749 400 726 q 393 760 394 756 q 384 778 390 775 q 360 778 378 782 q 327 767 343 775 q 300 744 311 758 q 267 679 274 713 q 268 610 261 646 q 272 602 269 606 q 271 593 274 599 q 260 603 260 596 q 254 614 261 610 q 256 572 250 597 q 276 514 261 546 q 313 445 290 482 q 364 371 335 408 q 376 378 372 372 q 386 388 381 383 q 396 397 392 392 q 407 408 400 401 q 376 421 385 410 q 361 444 368 432 q 358 468 354 456 q 369 492 363 481 q 375 507 375 497 q 381 538 371 529 q 417 544 390 546 q 457 542 436 543 q 497 538 478 540 q 527 535 513 536 q 557 536 542 535 q 626 536 592 538 q 694 529 660 535 l 592 506 q 620 499 606 500 q 649 499 635 499 q 677 497 663 499 q 706 489 692 496 m 147 463 q 101 437 125 457 q 57 390 76 417 q 27 335 38 364 q 21 283 17 307 q 64 385 32 342 q 147 463 96 428 m 46 267 q 59 229 46 239 q 107 222 72 219 q 181 242 147 225 q 247 275 214 258 q 250 292 258 281 q 206 360 226 325 q 164 431 186 394 q 78 360 108 399 q 46 267 47 321 m 256 160 q 269 176 258 171 q 281 192 279 181 q 258 178 269 185 q 240 161 247 172 l 256 160 m 67 163 q 97 157 82 157 q 157 178 124 157 q 110 167 132 171 q 67 163 89 163 z "},"$":{"ha":564,"x_min":-56,"x_max":485,"o":"m 422 517 q 421 530 419 524 q 424 541 422 536 q 428 551 426 546 q 426 563 429 557 q 395 531 408 547 q 367 496 382 514 q 372 535 374 515 q 376 574 369 554 q 385 614 382 592 q 384 630 386 622 q 372 646 382 638 q 368 602 369 622 q 356 563 367 582 q 357 608 360 583 q 315 632 353 640 l 306 628 q 221 584 263 607 q 149 526 179 561 q 169 481 118 492 q 210 476 189 478 q 250 474 231 474 q 185 468 224 468 q 97 476 139 468 q 124 463 111 465 q 153 457 138 460 q 234 449 193 451 q 315 446 275 447 q 360 442 338 444 q 404 433 382 440 q 461 393 447 421 q 456 333 475 365 q 422 288 443 314 q 376 240 401 263 q 324 201 351 217 q 271 185 297 185 q 319 219 294 203 q 360 258 343 235 q 328 239 344 249 q 297 218 313 229 q 285 210 290 214 q 272 203 279 206 q 242 183 251 196 q 229 153 233 169 q 190 50 213 100 q 144 -51 167 0 q 131 -64 143 -61 q 144 13 133 -25 q 160 90 154 50 q 134 50 140 72 q 104 8 128 28 q 117 72 111 43 q 129 131 122 101 q 132 147 132 142 q 132 165 135 163 q 110 169 129 167 q 51 185 78 174 q -1 213 24 197 q 43 203 19 213 q 40 212 46 210 q 28 217 33 214 q -29 253 -4 232 q -37 260 -33 256 q -44 268 -40 264 q -51 278 -47 274 q -49 289 -56 283 q -37 292 -43 294 q -26 288 -32 290 q -1 281 -14 285 q 24 274 13 278 q 69 267 49 267 q 107 272 90 267 q 40 285 63 278 q -3 311 18 293 q 81 303 42 303 q 196 319 140 303 q 306 364 251 335 q 252 376 278 375 q 203 381 226 378 q 130 394 165 385 q 60 419 94 404 q 117 410 89 417 q 176 403 146 403 q 235 403 206 403 q 293 406 264 403 q 211 415 256 415 q 167 417 189 415 q 124 421 146 418 q 103 426 113 424 q 83 432 93 429 q 29 522 13 460 q 51 570 36 549 q 89 611 67 592 q 103 623 96 617 q 121 638 111 629 q 97 630 107 633 q 77 617 88 626 q 51 589 67 607 q 8 538 36 571 q 8 550 4 544 q 15 561 13 556 q 111 674 47 628 q 249 732 175 721 q 276 741 265 735 q 294 763 288 747 q 315 825 311 792 q 325 838 317 832 q 344 847 333 843 q 365 850 354 850 q 382 846 376 850 q 388 834 389 840 q 385 821 388 828 q 372 785 378 803 q 361 749 365 767 q 383 775 375 760 q 406 806 390 790 q 409 784 411 794 q 404 765 407 774 q 403 742 400 751 q 424 725 406 732 q 469 678 454 710 q 476 618 485 646 q 453 567 469 590 q 422 517 438 544 m 392 364 q 331 324 360 344 q 269 283 301 303 q 340 313 307 296 q 392 364 374 331 m 44 203 q 128 197 85 190 q 94 199 110 199 q 64 204 79 199 q 44 203 54 208 z "},"":{"ha":608,"x_min":-97,"x_max":540,"o":"m 535 710 q 538 644 540 676 q 526 579 535 611 q 511 558 522 565 q 512 649 517 606 q 468 732 507 693 q 463 725 461 726 q 489 618 501 676 q 478 575 485 596 q 461 533 472 554 q 456 522 458 528 q 446 518 454 517 q 437 526 435 519 q 439 538 439 532 q 442 567 440 553 q 446 596 443 581 q 446 613 446 604 q 443 631 446 622 q 431 594 433 613 q 426 556 429 575 q 420 518 424 536 q 406 483 417 500 l 406 569 q 401 649 408 610 q 375 657 396 668 q 347 630 364 651 q 315 583 331 608 q 285 535 299 558 q 267 500 272 511 q 249 460 258 481 q 228 418 239 440 q 266 414 247 414 q 303 415 285 414 q 342 417 322 417 q 379 414 361 417 q 300 402 340 403 q 222 389 260 401 q 503 393 361 388 q 475 385 489 386 q 446 382 461 383 q 424 380 435 381 q 406 369 414 379 q 392 363 401 364 q 376 360 383 363 q 288 341 332 350 q 199 324 243 332 q 175 308 182 322 q 153 259 164 285 q 132 206 143 233 q 312 205 224 207 q 488 206 400 203 q 397 194 443 196 q 301 179 350 192 l 486 179 l 486 172 q 404 156 446 165 q 321 138 363 147 q 238 119 281 126 q 154 103 196 113 q 266 110 211 101 q 379 124 321 118 q 359 114 369 115 q 339 111 349 113 q -21 28 157 81 q -33 24 -28 25 q -44 21 -37 22 q -74 30 -64 19 q -74 54 -83 40 q -68 67 -68 63 q -74 79 -68 72 q -50 118 -97 111 q -21 123 -35 121 q 6 133 -7 125 q 3 139 6 136 l -1 143 q -15 176 -19 160 q 13 199 -11 192 q 34 210 28 203 q 43 229 40 218 q 49 255 46 242 q 57 286 53 268 q 35 251 40 269 q 13 217 31 232 q 17 259 10 240 q 22 299 25 278 q -6 294 7 299 q -33 286 -19 289 q -62 306 -69 278 q -56 340 -58 322 q -33 368 -54 357 q -28 375 -26 371 q -29 383 -29 379 q 13 424 -31 422 l 24 424 q 52 424 42 424 q 69 428 63 425 q 78 440 75 432 q 86 463 82 449 q 145 591 107 531 q 228 710 183 651 q 261 744 240 728 q 306 772 282 760 q 355 792 329 785 q 403 799 381 799 q 445 793 424 799 q 485 776 467 788 q 518 749 504 765 q 535 710 532 732 m 86 422 q 102 440 99 429 q 108 465 106 450 q 86 422 85 442 z "},"":{"ha":596,"x_min":-42,"x_max":567,"o":"m 547 769 q 565 689 567 729 q 563 663 565 681 q 558 624 561 644 q 550 587 554 604 q 540 564 546 569 q 540 589 540 576 q 529 615 539 601 q 507 560 514 588 q 488 506 500 533 q 482 540 481 522 q 482 575 483 558 q 482 612 482 594 q 479 647 482 629 q 468 606 469 628 q 451 564 467 583 l 451 615 q 449 640 451 624 q 443 675 447 657 q 431 706 439 693 q 413 719 424 719 q 379 704 403 719 q 344 674 363 694 q 307 630 325 654 q 274 582 289 606 q 253 542 260 558 q 249 520 246 524 q 274 515 251 517 l 326 515 q 346 515 336 515 q 365 507 356 514 q 292 494 329 496 q 222 475 254 492 q 259 473 242 471 q 294 478 276 475 q 331 481 313 479 q 372 486 350 483 q 347 474 360 475 q 324 469 335 472 q 277 460 300 464 q 231 451 254 456 q 207 433 211 449 q 199 407 203 419 q 193 379 194 394 q 214 374 204 374 q 235 376 224 375 q 270 380 253 379 q 304 382 288 381 q 336 365 326 382 q 310 357 324 358 q 283 353 296 356 q 238 342 260 347 q 194 331 217 338 q 183 319 182 328 q 191 313 186 313 q 201 315 196 314 q 240 321 221 318 q 278 325 258 324 q 248 311 264 315 q 217 304 232 307 q 195 298 203 300 q 184 292 188 296 q 180 281 181 288 q 178 263 179 275 q 178 224 176 243 q 190 188 181 206 q 235 157 208 157 q 273 165 251 157 q 315 183 294 172 q 355 206 336 193 q 386 229 374 219 q 423 259 406 244 q 464 285 440 274 q 428 245 444 265 q 392 206 411 225 q 351 167 372 186 q 311 128 331 147 q 377 163 349 142 q 436 207 406 185 q 377 136 408 171 q 314 69 346 101 q 208 22 271 28 q 100 65 139 14 q 76 110 85 86 q 61 161 68 135 q 56 136 53 149 q 56 110 60 124 q 42 149 44 129 q 36 188 40 168 q 35 194 36 193 l 35 210 q 33 217 33 213 q 34 233 32 225 q 29 249 36 242 q 13 251 22 256 q -7 246 3 246 q -33 256 -26 246 q -26 276 -40 269 l -14 285 q -39 296 -36 292 q -39 319 -42 300 q -39 331 -36 324 q -33 358 -42 350 q -1 368 -25 365 q 8 369 1 369 q 38 372 28 371 q 53 378 49 374 q 60 393 58 383 q 63 421 63 403 q 35 420 47 424 q 8 415 22 417 q -13 413 -3 413 q -28 425 -24 414 q -26 443 -33 436 q -7 453 -19 450 q -1 456 -1 456 q -5 469 -1 463 q -7 482 -8 475 q 10 514 -6 501 q 50 526 25 526 q 64 527 57 528 q 78 526 71 526 q 100 528 93 524 q 111 544 107 533 q 124 572 117 558 q 138 599 131 585 l 136 600 q 135 603 136 601 q 115 578 121 592 q 97 554 110 565 q 105 581 99 565 q 121 616 111 597 q 142 652 131 635 q 163 682 153 669 q 287 790 215 749 q 444 831 358 831 q 507 814 481 831 q 547 769 533 797 m 169 382 q 174 404 172 393 q 178 425 175 415 q 178 435 178 432 q 171 439 178 439 q 160 433 163 442 q 147 385 150 411 q 157 375 144 375 q 169 382 168 375 m 149 282 q 143 196 122 257 l 149 282 m 243 121 q 215 119 231 129 q 230 116 224 117 q 243 121 236 115 z "},"":{"ha":664,"x_min":61,"x_max":724,"o":"m 644 735 q 678 756 661 746 q 711 778 694 767 l 715 776 q 707 766 711 771 q 699 757 703 761 q 562 615 632 683 q 418 479 492 546 q 400 463 408 471 q 388 443 392 454 q 413 413 374 413 q 474 414 444 411 q 536 414 504 417 q 543 414 539 414 q 550 410 547 414 q 503 399 528 401 q 451 385 479 396 l 521 381 q 489 373 503 374 q 461 371 475 372 q 426 367 443 368 q 390 365 408 367 q 371 351 374 364 q 365 327 368 339 q 357 303 361 315 q 406 302 382 299 q 456 299 431 306 q 438 288 449 289 q 415 283 426 286 q 384 278 400 281 q 353 274 368 276 q 342 264 342 271 q 347 258 343 258 q 356 257 351 258 l 415 257 q 435 257 425 257 q 453 253 444 257 q 450 244 454 246 q 440 242 446 243 q 397 235 418 239 q 354 228 376 231 q 315 200 325 224 q 287 117 300 160 q 260 35 274 75 q 254 17 257 26 q 242 -1 251 8 q 247 60 244 31 q 251 121 249 90 l 246 122 l 168 -53 l 161 -51 q 168 22 163 -15 q 174 97 174 58 q 160 74 161 86 q 147 49 160 61 q 149 120 143 86 q 156 189 156 154 q 134 190 144 192 q 114 188 124 188 q 97 188 106 186 q 86 196 89 189 q 90 208 83 204 q 106 217 97 211 q 85 237 89 224 q 78 263 81 250 q 84 283 75 274 q 111 293 93 292 q 136 295 124 296 q 160 296 149 294 q 180 310 172 297 q 181 332 188 324 q 173 335 178 335 q 164 333 168 335 q 136 329 150 331 q 108 328 122 328 q 74 343 83 328 q 82 375 61 361 q 90 393 90 382 q 102 417 93 410 q 132 422 111 424 q 153 419 146 419 q 190 427 178 417 q 193 457 201 438 q 147 591 165 524 q 108 726 129 658 q 105 748 101 744 q 131 757 108 751 q 151 763 138 760 q 169 776 168 763 q 211 810 174 803 q 231 815 222 813 q 250 817 240 817 q 284 806 268 817 q 301 776 300 796 q 311 659 306 718 q 322 540 317 600 q 322 535 322 538 q 328 531 322 533 q 341 541 336 535 q 350 554 346 547 q 435 669 394 611 q 511 789 475 726 q 529 808 519 801 q 556 810 539 814 q 580 812 569 806 q 601 821 590 818 q 585 788 599 801 q 563 758 571 774 q 640 815 600 789 q 724 865 679 842 q 683 800 704 832 q 638 739 663 768 l 644 735 m 190 626 q 215 499 197 561 q 207 572 213 535 q 193 644 201 608 q 190 626 186 636 z "},"":{"ha":547,"x_min":-71,"x_max":565,"o":"m 543 725 q 557 710 565 725 q 544 682 550 696 q 528 654 538 668 q 474 570 499 613 q 425 485 450 528 q 396 444 414 465 q 397 468 393 458 q 400 489 401 478 q 383 474 388 485 q 351 422 367 447 q 319 369 335 396 q 279 317 304 340 q 297 375 286 349 q 308 429 307 401 q 297 425 300 429 q 285 418 294 421 q 297 488 288 454 q 306 556 306 521 q 287 554 294 558 q 272 547 279 550 q 153 455 197 507 q 89 340 108 403 q 90 303 83 324 q 161 256 103 264 q 307 269 233 243 q 345 283 326 276 q 385 297 364 290 q 338 253 365 274 q 282 210 310 233 q 340 231 315 218 q 393 256 365 243 q 383 217 399 236 q 372 201 378 208 q 360 185 367 193 q 376 186 369 182 q 390 189 382 190 q 315 148 371 165 q 174 121 258 131 l 174 117 q 171 111 171 114 q 185 110 178 111 q 201 110 193 110 q 185 106 193 107 q 167 103 176 104 q 142 47 156 75 q 115 -8 129 19 q 111 -11 114 -10 q 115 4 114 -3 q 119 18 117 11 q 97 -17 106 1 q 76 -53 88 -35 q 80 -23 79 -37 q 83 8 81 -8 q 74 -6 76 1 q 64 -17 71 -12 q 76 44 69 14 q 92 104 83 74 q -8 139 33 111 q -62 208 -50 167 q -65 268 -71 239 q -53 326 -60 297 q -19 413 -43 368 q 37 501 6 458 q 103 581 68 543 q 171 646 139 619 q 185 657 178 651 q 203 667 192 663 q 200 657 207 661 q 196 646 193 653 q 249 681 224 664 q 307 711 275 697 q 330 785 318 749 q 354 858 342 822 q 364 868 357 867 q 382 860 368 858 q 392 851 394 861 q 391 842 392 846 q 390 833 390 838 q 404 857 400 843 q 421 867 406 867 l 428 867 q 445 867 438 865 q 457 876 453 868 q 460 871 464 875 q 442 822 454 844 q 406 744 422 783 q 371 665 389 706 q 387 684 382 675 q 397 703 392 693 q 422 719 410 719 q 446 714 433 719 q 467 715 454 711 q 504 723 485 722 q 543 725 524 724 z "},"":{"ha":918,"x_min":-92,"x_max":1011,"o":"m 500 676 l 500 667 q 499 649 499 660 q 517 653 511 643 q 536 667 526 667 q 553 660 543 667 q 569 656 560 653 q 588 654 578 660 q 582 640 585 647 q 576 626 579 633 l 556 569 q 550 556 553 563 q 544 542 547 549 q 556 546 554 542 q 558 554 557 550 q 564 565 561 560 q 569 576 567 571 l 590 619 q 596 631 593 626 q 601 642 599 636 q 605 649 603 644 q 610 657 607 653 q 626 664 614 668 q 630 658 631 661 q 628 651 629 654 q 610 612 619 632 q 592 572 601 592 q 585 558 589 565 q 579 542 582 551 q 681 547 632 539 q 785 563 731 556 q 744 544 765 547 q 704 531 724 542 q 765 531 736 526 q 829 532 794 536 q 783 495 806 513 q 732 469 761 478 q 644 446 688 458 q 553 426 600 433 q 513 396 522 422 q 497 360 506 378 q 481 324 489 343 q 481 313 481 318 q 479 301 481 307 q 479 285 479 293 q 478 269 479 278 q 648 297 564 285 q 821 311 732 308 q 765 281 793 292 q 710 260 738 271 q 776 264 743 257 q 847 272 810 271 q 809 249 828 257 q 771 231 790 242 q 785 228 778 224 q 799 228 792 233 q 743 202 782 217 q 653 171 704 188 q 544 138 603 154 q 428 110 485 122 q 424 56 428 83 q 413 79 418 67 q 404 104 408 92 q 284 81 338 89 q 208 76 231 74 q 227 88 217 85 q 247 96 238 92 q 267 111 263 100 q 269 119 269 115 q 261 126 269 122 q 244 140 246 135 q 254 156 243 146 q 264 182 268 167 q 289 215 257 208 q 322 234 314 221 q 333 267 331 247 l 338 288 q 336 299 336 293 q 335 310 336 304 l 329 353 q 328 365 328 360 q 325 375 328 369 q 290 392 294 374 q 303 424 289 410 q 292 421 300 424 q 244 410 268 415 q 196 403 219 406 q 167 382 174 400 q 137 328 151 354 q 107 275 122 301 q 101 263 104 269 q 90 254 99 257 q 96 281 88 268 q 101 310 104 293 q 40 211 65 261 q -17 114 15 161 l 13 229 q -92 85 -51 167 q -70 156 -83 121 q -42 224 -57 190 q -12 293 -26 258 q 13 364 3 328 q -12 363 0 368 q -37 367 -25 357 q -16 425 -22 394 q 3 486 -10 456 q 29 506 10 503 q 56 510 42 508 q 85 515 69 513 q 57 521 71 524 q 31 528 43 518 q 75 535 53 536 q 101 550 94 535 q 142 631 121 590 q 181 713 163 671 q 195 742 188 728 q 211 771 203 757 q 224 789 218 782 q 238 799 231 796 q 256 803 246 803 q 283 803 267 804 q 285 822 286 813 q 285 839 285 831 q 283 853 285 846 q 292 865 281 860 q 315 871 301 871 q 332 867 326 871 q 354 857 347 857 q 372 871 364 857 q 383 875 376 875 q 393 869 389 875 q 411 858 400 858 q 433 858 422 858 q 444 859 439 858 q 456 860 449 860 q 467 868 460 865 l 474 868 q 602 876 539 869 q 731 882 665 882 q 744 882 738 882 q 758 881 751 882 l 813 881 q 826 879 819 879 q 839 879 832 879 q 911 876 875 876 q 983 876 947 875 q 1011 868 1000 879 l 858 819 q 914 813 888 813 q 968 813 940 814 q 928 794 957 806 q 858 770 899 783 q 771 744 818 757 q 675 717 724 731 q 581 694 626 704 q 500 676 536 683 m 506 839 q 504 840 504 839 l 500 842 q 501 838 500 839 l 504 839 l 506 839 m 500 704 l 500 689 q 530 698 515 693 q 558 710 544 703 q 529 708 543 710 q 500 704 515 707 m 299 547 q 311 558 311 547 q 308 594 308 576 q 303 631 308 613 l 294 631 q 274 595 283 613 q 253 561 264 578 q 251 546 247 553 q 275 544 263 543 q 299 547 288 546 z "},"":{"ha":958,"x_min":7,"x_max":1051,"o":"m 1008 792 q 946 765 993 782 q 837 731 899 749 q 707 694 775 713 q 582 664 639 676 q 582 655 582 660 q 581 644 582 650 q 593 639 589 642 q 609 635 600 632 q 628 633 618 639 q 622 619 625 626 q 617 606 619 613 l 596 549 q 590 535 593 542 q 585 521 588 528 q 596 525 594 521 q 600 533 597 529 l 642 621 q 650 636 644 625 q 667 643 654 647 q 672 637 672 640 q 668 631 671 633 q 651 591 660 611 q 632 551 642 571 q 626 538 629 544 q 619 521 622 531 q 722 526 672 518 q 825 542 771 535 q 785 524 806 526 q 744 510 764 521 q 806 510 776 506 q 869 511 836 515 q 824 474 846 492 q 772 449 801 457 q 684 425 728 438 q 594 406 640 413 q 553 375 563 401 q 525 312 540 343 q 494 244 510 281 q 676 274 586 261 q 863 290 767 288 q 806 260 835 271 q 750 239 778 250 q 817 243 783 236 q 888 251 850 250 q 849 228 868 236 q 811 210 831 221 q 825 208 818 203 q 839 207 832 213 q 776 178 821 194 q 672 143 731 161 q 547 108 613 125 q 422 78 481 90 q 315 59 363 65 q 249 56 268 53 q 267 67 257 64 q 288 75 278 71 q 308 90 303 79 q 310 98 310 94 q 303 106 311 101 q 286 121 286 113 l 283 119 q 189 78 242 78 q 134 91 160 78 q 93 131 108 104 q 59 208 71 168 q 53 289 47 247 q 59 339 56 314 q 65 388 63 364 q 35 306 46 364 q 26 179 24 249 q 10 219 13 200 q 7 258 7 239 q 19 367 7 314 q 51 474 31 421 q 90 571 71 522 q 138 665 110 619 q 160 698 146 681 q 194 715 175 715 q 221 710 208 715 q 234 708 231 707 q 244 715 238 710 q 264 725 254 725 q 281 710 274 725 q 292 701 282 704 q 318 688 315 694 q 308 663 321 682 q 291 633 304 656 q 264 586 278 611 q 240 540 250 561 q 229 511 229 518 q 242 522 240 514 q 249 535 243 529 q 258 550 254 542 q 267 565 263 558 q 269 554 272 558 q 264 546 267 550 q 202 417 225 483 q 160 281 179 350 q 163 228 151 256 q 183 210 169 210 q 206 220 193 210 q 233 244 219 231 q 257 272 246 258 q 272 293 268 286 q 360 454 324 372 q 417 625 397 536 q 415 682 424 656 q 326 749 397 738 q 253 746 292 754 q 164 719 207 735 q 82 679 121 704 q 73 671 78 675 q 60 668 68 667 q 99 703 79 686 q 138 736 118 719 q 183 764 158 753 q 232 789 208 775 q 166 769 196 783 q 103 743 136 754 q 105 753 100 750 q 114 760 110 757 q 142 796 144 771 q 148 813 142 807 q 165 822 154 818 q 186 831 176 828 q 206 840 196 835 q 310 872 256 865 q 419 872 364 879 q 504 846 461 868 l 506 846 q 514 847 510 847 q 642 855 579 849 q 771 861 706 861 q 826 860 799 860 q 881 858 853 860 q 953 855 917 856 q 1025 856 989 854 q 1051 847 1040 858 l 899 799 q 954 792 928 792 q 1008 792 981 793 m 538 815 q 546 818 540 815 q 532 822 540 822 l 533 821 l 536 817 q 538 815 538 817 m 600 689 q 582 688 588 689 l 582 682 q 600 689 590 685 m 228 510 q 215 481 219 501 q 228 510 233 499 m 404 222 q 411 249 415 233 q 404 222 397 239 m 322 192 q 331 204 326 199 q 338 217 335 210 q 276 159 306 189 q 201 111 246 129 q 260 125 240 110 q 282 147 271 136 q 303 168 293 157 q 322 192 303 185 z "},"":{"ha":589,"x_min":-11,"x_max":567,"o":"m 539 779 q 565 689 563 735 q 557 596 567 643 q 504 438 539 514 q 425 288 469 363 q 418 282 422 285 q 423 305 415 294 q 428 329 431 315 q 386 265 401 303 q 355 212 376 243 q 306 151 333 181 q 250 99 279 121 q 193 74 221 78 q 177 38 185 56 q 163 4 169 21 q 159 0 161 1 q 154 -4 157 -1 l 178 72 l 175 72 q 124 -23 146 26 q 75 -121 103 -72 q 90 -37 82 -79 q 106 50 97 4 q 83 13 89 33 q 60 -19 76 -7 q 74 42 67 13 q 90 104 82 72 q 75 124 82 114 q 41 201 53 161 q 35 282 29 240 q 41 332 38 307 q 47 381 44 357 q 17 299 28 357 q 8 172 6 242 q -8 213 -6 193 q -11 251 -11 232 q 1 360 -11 307 q 33 467 13 414 q 72 564 53 515 q 119 658 92 613 q 142 691 128 674 q 176 708 157 708 q 203 703 190 708 q 216 701 213 700 q 226 708 219 703 q 246 718 236 718 q 263 703 256 718 q 274 694 264 697 q 300 681 297 688 q 290 656 303 675 q 273 626 286 649 q 246 579 260 604 q 222 533 232 554 q 211 504 211 511 q 224 515 222 507 q 231 528 225 522 q 240 543 236 535 q 249 558 244 551 q 251 547 254 551 q 246 539 249 543 q 184 410 207 476 q 142 274 161 343 q 144 221 133 249 q 165 203 151 203 q 188 213 175 203 q 215 238 201 224 q 239 265 228 251 q 254 286 250 279 q 342 447 306 365 q 399 618 379 529 q 397 675 406 649 q 308 742 379 731 q 235 739 274 747 q 146 713 189 728 q 64 672 103 697 q 55 664 60 668 q 42 661 50 660 q 81 696 61 679 q 119 729 100 713 q 165 757 140 746 q 214 782 190 768 q 148 762 178 776 q 85 736 118 747 q 87 747 82 743 q 96 753 92 750 q 124 789 126 764 q 130 806 124 800 q 147 815 136 811 q 168 824 158 821 q 188 833 178 828 q 253 858 219 849 q 324 868 288 867 q 326 876 325 872 q 329 885 328 881 l 340 918 q 343 926 342 922 q 346 935 344 931 q 352 951 349 943 q 367 965 356 960 q 401 940 371 935 q 417 935 413 943 q 418 917 421 928 q 410 867 413 892 q 443 932 432 896 q 456 953 447 947 q 476 960 464 958 l 490 960 q 526 960 510 957 q 551 989 542 964 q 557 976 558 982 q 554 965 556 971 q 533 900 546 932 q 507 836 521 868 l 503 825 q 539 779 526 806 m 210 503 q 197 474 201 494 q 210 503 215 492 m 319 210 q 267 162 292 186 q 211 118 243 138 q 209 111 210 115 q 206 104 208 107 q 240 117 222 106 q 272 145 257 129 q 299 178 288 161 q 319 210 311 196 z "},"":{"ha":918,"x_min":-108,"x_max":1040,"o":"m 517 700 l 517 689 l 517 683 l 515 674 l 515 668 q 526 666 522 665 q 533 674 529 667 q 553 689 542 689 q 569 681 561 689 q 578 676 574 676 q 586 677 582 676 q 595 678 590 678 q 604 675 600 678 q 579 610 592 643 q 554 544 567 578 q 565 549 564 544 q 569 558 567 554 q 593 610 581 585 q 617 660 606 635 q 622 669 619 664 q 626 678 624 674 q 633 686 629 683 q 643 686 638 689 q 647 679 649 683 q 644 671 646 675 l 603 579 q 597 564 600 572 q 589 544 593 556 q 692 552 642 542 q 796 569 742 563 q 755 547 776 551 q 713 532 733 543 q 774 533 744 526 q 839 533 804 539 q 790 490 813 510 q 738 461 768 471 q 648 433 693 447 q 557 411 603 419 q 514 376 525 406 l 506 356 l 488 314 l 479 293 q 477 280 478 286 q 476 267 476 274 l 472 229 q 643 262 558 249 q 818 278 728 275 q 760 242 789 254 q 703 218 731 231 q 770 224 736 215 q 842 233 804 232 q 802 206 822 217 q 763 183 782 196 q 769 180 765 179 q 776 181 772 181 q 784 183 781 182 q 790 181 788 183 q 733 151 774 168 q 641 115 693 133 q 529 78 589 96 q 413 44 469 60 q 410 13 411 29 q 406 -19 408 -4 q 397 9 400 -4 q 389 38 393 22 q 267 11 321 21 q 192 6 214 1 q 210 19 200 15 q 232 28 221 24 q 244 35 239 31 q 251 46 249 39 q 255 56 254 51 q 247 64 256 60 q 242 97 221 79 q 253 128 254 110 q 279 167 246 158 q 314 188 304 172 q 328 226 324 204 q 330 238 329 232 q 332 250 331 243 q 330 301 331 275 q 328 351 329 326 l 326 351 q 292 371 293 350 q 307 408 289 393 l 294 404 q 197 383 246 392 q 178 375 185 381 q 167 358 172 369 q 101 236 135 296 q 96 222 99 229 q 83 211 93 215 q 90 241 81 226 q 99 275 99 256 q 31 160 60 218 q -32 49 3 103 l 4 183 q -108 15 -64 110 q -83 97 -99 57 q -50 177 -67 138 q -17 257 -33 217 q 13 339 0 297 q -13 338 0 343 q -37 342 -26 332 q -14 410 -22 374 q 8 479 -6 446 q 36 503 18 501 q 64 509 50 507 q 93 514 78 511 q 81 519 88 518 q 67 521 74 521 q 53 522 60 521 q 40 528 46 522 q 85 538 60 538 q 111 554 104 535 q 157 648 133 601 q 200 743 181 694 q 216 777 207 760 q 235 811 225 794 q 248 831 242 824 q 263 843 254 839 q 281 848 271 847 q 308 847 292 849 q 311 868 311 858 q 313 889 311 878 q 311 905 313 897 q 321 919 310 913 q 343 926 332 925 q 361 922 354 928 q 383 911 375 911 q 401 925 392 911 q 413 931 406 931 q 422 925 418 931 q 440 912 429 913 q 461 911 450 911 l 467 911 l 478 913 l 483 913 q 503 924 490 924 q 631 932 568 925 q 760 938 694 939 q 815 937 788 938 q 869 935 842 936 q 941 932 906 933 q 1013 932 976 931 q 1026 932 1019 932 q 1040 922 1032 932 l 885 865 q 940 859 914 858 q 994 858 967 860 q 920 824 976 846 q 792 778 864 801 q 646 734 721 756 q 517 700 571 713 m 528 892 q 529 888 528 888 l 531 888 l 532 889 l 531 890 l 528 892 m 519 732 q 518 714 518 726 q 549 726 533 719 q 579 739 564 732 q 519 732 551 739 m 310 550 q 318 554 317 550 q 321 564 322 558 q 320 606 319 585 q 318 647 321 626 l 310 647 l 264 567 q 263 549 257 557 q 285 548 274 546 q 310 550 297 550 z "},"":{"ha":957,"x_min":-1,"x_max":1079,"o":"m 1032 872 q 968 842 1017 861 q 857 801 919 822 q 725 760 794 781 q 599 725 656 739 q 597 719 599 721 l 597 707 q 596 701 596 706 q 607 694 603 700 q 615 690 611 690 q 624 691 619 690 q 634 692 629 692 q 643 689 639 692 l 592 558 q 604 563 603 558 q 608 572 606 568 q 631 624 619 599 q 656 674 643 649 q 660 683 658 678 q 665 692 663 688 q 672 700 668 697 q 682 700 676 703 q 685 693 686 697 q 682 685 685 689 q 656 621 669 653 q 626 558 642 589 q 730 566 679 556 q 835 583 781 576 q 794 561 815 565 q 751 546 772 557 q 813 547 783 540 q 876 547 843 553 q 829 504 851 524 q 776 475 807 485 q 687 447 732 461 q 594 425 642 433 q 569 414 578 422 q 553 390 560 406 q 522 315 538 353 q 488 238 506 278 q 670 274 579 258 q 857 292 761 289 q 799 256 828 268 q 742 232 769 244 q 808 238 775 229 q 881 246 842 246 q 840 219 860 229 q 801 197 821 210 q 808 194 804 193 q 815 195 811 194 q 823 197 819 196 q 829 194 826 197 q 764 161 810 181 q 658 121 718 142 q 531 80 597 100 q 403 45 464 60 q 297 23 343 31 q 229 19 250 15 q 249 33 239 29 q 269 42 260 38 q 282 49 276 44 q 290 60 288 53 q 294 69 293 65 q 286 78 294 74 q 271 96 269 89 l 268 93 q 224 60 249 74 q 171 46 200 46 q 117 61 142 46 q 78 107 93 76 q 49 196 58 150 q 47 290 40 242 q 57 347 53 318 q 65 404 61 376 q 47 365 56 390 q 31 308 38 340 q 19 240 24 276 q 14 163 15 203 q 1 209 3 186 q 0 254 -1 232 q 16 371 1 308 q 52 497 31 433 q 101 619 74 560 q 154 725 128 678 q 175 757 164 743 q 215 785 194 785 q 240 778 224 785 q 253 775 249 774 q 264 783 257 776 q 283 796 276 796 q 299 778 293 796 q 310 768 300 771 q 336 752 333 760 q 325 722 339 744 q 306 688 321 714 q 276 633 292 663 q 248 579 260 604 q 236 547 236 554 q 249 559 247 550 q 257 575 251 568 q 269 592 264 583 q 278 610 274 601 q 279 597 282 603 q 274 588 276 592 q 204 437 232 514 q 154 279 176 360 q 153 219 144 250 q 174 199 160 199 q 197 210 183 199 q 225 238 211 222 q 251 270 239 254 q 267 294 263 286 q 365 481 324 386 q 431 679 407 576 q 432 746 440 714 q 347 822 418 811 q 274 819 313 828 q 183 790 226 808 q 100 742 140 771 q 89 732 94 738 q 76 729 83 726 q 117 769 96 749 q 158 808 138 789 q 205 840 179 828 q 254 868 231 853 q 188 846 219 863 q 124 815 157 829 q 126 828 121 825 q 136 835 131 832 q 167 878 164 846 q 174 897 167 890 q 190 908 181 903 q 211 918 201 914 q 232 929 221 922 q 392 969 307 969 q 464 962 431 969 q 531 935 497 954 l 532 935 q 540 938 540 938 q 669 946 606 939 q 799 951 733 953 q 853 951 826 951 q 907 949 879 950 q 979 946 943 947 q 1051 946 1015 944 q 1065 946 1058 946 q 1079 936 1071 946 l 922 879 q 978 873 951 872 q 1032 872 1004 874 m 563 899 l 571 903 q 557 907 565 907 l 558 906 l 561 901 q 562 900 561 900 q 563 899 563 900 m 600 751 l 600 744 l 617 753 q 600 751 606 753 m 236 544 q 221 511 225 535 q 234 529 229 522 q 236 544 239 536 m 394 213 q 403 243 407 228 q 394 213 389 231 m 311 178 q 320 192 315 185 q 328 206 325 199 q 262 139 293 174 q 186 83 231 104 q 244 100 226 82 q 290 150 269 124 q 311 178 290 171 z "},"":{"ha":589,"x_min":-3,"x_max":611,"o":"m 604 1067 q 580 991 594 1028 q 550 918 565 954 q 544 906 547 910 q 579 851 567 883 q 599 746 599 799 q 586 639 599 693 q 524 456 564 543 q 436 283 485 368 q 431 276 436 282 q 436 303 428 292 q 442 331 444 315 q 396 257 413 297 q 364 197 386 232 q 313 127 342 161 q 253 67 285 93 q 192 35 221 40 q 175 -6 183 14 q 157 -46 167 -26 q 149 -56 157 -47 q 163 -10 156 -32 q 176 32 169 11 l 174 32 q 117 -78 142 -21 q 63 -190 93 -135 l 104 7 q 78 -35 86 -12 q 53 -74 71 -58 q 72 -2 63 -37 q 92 69 81 33 q 83 81 88 76 q 76 93 79 86 q 48 182 57 136 q 46 276 39 228 q 56 333 51 304 q 64 390 60 363 q 45 351 54 376 q 29 294 36 326 q 18 226 22 263 q 13 149 14 189 q -1 195 1 172 q -1 240 -3 218 q 15 357 0 294 q 51 483 29 419 q 99 605 72 546 q 153 711 126 664 q 174 743 163 729 q 214 771 193 771 q 239 764 222 771 q 251 761 247 760 q 263 769 256 763 q 282 782 275 782 q 297 764 292 782 q 308 754 299 757 q 335 738 332 746 q 324 708 338 731 q 305 674 319 700 q 274 619 290 649 q 247 565 258 590 q 235 533 235 540 q 248 545 246 536 q 256 561 250 554 q 267 578 263 569 q 276 596 272 588 q 278 583 281 589 q 272 574 275 578 q 203 423 231 500 q 153 265 175 346 q 151 206 143 236 q 172 185 158 185 q 196 197 182 185 q 224 224 210 208 q 249 256 238 240 q 265 281 261 272 q 364 467 322 372 q 429 665 406 563 q 431 732 439 700 q 346 808 417 797 q 272 806 311 814 q 182 776 225 794 q 99 728 139 757 q 88 718 93 724 q 75 715 82 713 q 115 755 94 735 q 157 794 136 775 q 203 826 178 814 q 253 854 229 839 q 187 832 218 849 q 122 801 156 815 q 124 815 119 811 q 135 821 129 818 q 165 864 163 832 q 172 883 165 876 q 189 894 179 889 q 200 900 194 896 l 221 908 q 226 912 224 911 q 231 914 228 913 q 368 954 296 951 q 381 993 375 974 q 394 1032 388 1013 q 402 1051 397 1043 q 418 1067 407 1060 q 450 1038 419 1031 q 465 1032 463 1040 q 465 1011 468 1024 q 460 982 463 996 q 456 953 457 968 q 492 1029 481 990 q 506 1053 497 1047 q 528 1061 515 1060 l 542 1061 q 576 1062 560 1058 q 604 1094 593 1065 q 609 1081 611 1088 q 604 1067 607 1074 m 235 531 q 219 497 224 521 q 233 515 228 508 q 235 531 238 522 m 244 86 q 290 136 268 110 q 326 192 311 163 q 272 137 299 165 q 214 86 246 108 q 207 71 208 75 q 227 75 218 71 q 244 86 236 79 z "},"":{"ha":550,"x_min":-54,"x_max":549,"o":"m 528 596 q 548 572 547 582 q 529 547 549 563 q 440 478 485 513 q 349 408 394 443 q 332 388 335 397 q 336 363 329 378 q 374 261 360 313 q 403 157 388 210 q 354 210 375 182 q 310 268 333 238 q 319 239 311 251 q 328 208 326 226 q 299 243 313 228 q 274 274 285 258 q 263 286 268 281 q 251 297 258 292 q 232 313 236 313 q 205 295 228 313 q 154 256 182 278 q 103 215 126 235 q 72 189 79 194 q 10 147 43 165 q -54 106 -22 128 q -19 158 -39 133 q 22 208 1 183 q 61 259 42 233 q 94 314 81 285 l 53 285 q 3 258 32 269 q 3 267 0 265 q 8 272 6 269 q 80 335 44 304 q 151 399 115 367 q 156 431 168 414 q 109 494 132 463 q 63 558 86 526 q 50 588 49 578 q 71 614 51 599 q 96 628 81 621 q 122 636 111 636 q 154 614 140 636 l 203 532 q 208 520 206 526 q 219 510 211 514 q 218 528 222 519 q 211 543 214 536 q 199 578 206 561 q 186 613 193 596 q 185 633 181 626 q 207 644 189 639 q 227 645 221 649 q 239 628 233 642 q 248 598 244 613 q 256 568 251 583 l 272 514 q 288 518 283 513 q 299 529 293 524 q 315 543 307 536 q 331 557 322 550 l 394 611 q 410 624 403 618 q 426 638 418 631 q 476 660 454 660 q 515 651 493 660 q 529 628 533 643 q 524 615 526 621 q 517 603 521 608 q 528 596 525 597 z "},"'":{"ha":342,"x_min":139,"x_max":329,"o":"m 317 907 q 326 884 322 896 q 325 861 329 872 q 289 770 311 814 q 231 686 267 726 q 231 701 229 694 q 237 713 233 707 q 243 724 240 718 q 246 736 246 729 q 192 676 213 708 q 144 613 172 643 q 161 699 147 657 q 178 783 175 740 q 158 752 165 768 q 140 721 151 736 q 142 748 139 735 q 147 775 144 761 q 151 826 150 800 q 150 876 153 851 q 175 910 149 906 q 211 896 199 914 q 217 883 215 890 q 229 869 219 876 l 229 889 q 233 915 229 908 q 254 925 238 921 q 317 907 301 936 z "},"":{"ha":247,"x_min":24,"x_max":225,"o":"m 203 39 q 218 13 225 31 q 198 -33 210 -11 q 174 -76 186 -54 q 161 -85 169 -83 q 143 -89 153 -87 q 106 -96 126 -89 q 97 -101 101 -99 q 93 -110 93 -104 q 99 -116 94 -115 q 110 -118 104 -117 q 140 -119 125 -121 q 171 -121 156 -118 q 140 -133 156 -131 q 107 -139 124 -135 q 131 -144 119 -144 q 154 -144 143 -143 q 169 -154 165 -142 q 163 -165 171 -162 q 120 -182 142 -176 q 75 -183 99 -187 q 35 -153 43 -176 q 36 -86 24 -117 q 101 -47 49 -56 q 142 -32 131 -43 q 157 -1 154 -21 q 161 13 158 6 q 167 26 164 19 q 203 39 179 46 z "},"":{"ha":226,"x_min":26,"x_max":213,"o":"m 138 -36 q 194 -108 213 -46 q 176 -140 189 -125 q 147 -166 163 -156 q 112 -183 131 -176 q 74 -187 93 -189 q 61 -185 67 -186 q 49 -182 56 -185 q 34 -174 42 -179 q 29 -161 26 -169 q 41 -155 32 -153 q 57 -160 50 -157 q 97 -160 78 -164 q 74 -154 85 -157 q 54 -149 64 -151 q 36 -126 32 -142 q 47 -117 39 -118 q 63 -115 54 -115 q 114 -110 90 -118 q 147 -76 146 -101 q 120 -72 133 -72 q 94 -74 107 -72 q 74 -56 69 -74 q 111 29 82 -11 q 144 36 122 44 q 158 25 156 33 q 156 7 161 17 q 144 -13 150 -4 q 132 -32 139 -22 q 138 -36 135 -33 z "},"":{"ha":278,"x_min":25,"x_max":250,"o":"m 243 796 q 249 793 250 796 q 250 788 249 790 l 250 785 l 249 779 l 249 776 q 233 737 244 758 q 206 697 221 715 q 170 666 190 678 q 129 654 150 654 q 67 670 97 654 q 31 722 36 686 q 42 792 25 757 q 73 819 50 811 q 119 819 96 826 q 130 810 129 817 q 128 797 131 804 q 116 773 122 785 q 107 747 110 761 q 103 728 104 738 q 115 708 103 718 q 139 733 131 719 q 156 761 147 747 q 178 801 165 781 q 201 817 185 814 q 224 813 217 819 q 225 793 232 806 q 211 766 218 779 q 197 739 204 753 q 194 733 196 736 q 196 726 193 731 q 223 760 215 742 q 243 796 231 779 z "},"":{"ha":282,"x_min":25,"x_max":256,"o":"m 247 686 q 252 669 249 678 q 253 650 256 661 q 239 662 242 654 q 229 675 236 669 q 226 672 226 675 q 224 665 225 668 q 219 662 222 663 q 211 667 217 661 q 199 682 204 674 q 188 700 193 690 q 180 717 183 708 q 167 735 176 726 q 131 690 147 713 q 89 644 114 668 q 102 682 92 667 q 118 717 113 697 q 81 676 93 700 q 47 660 69 653 q 30 675 35 664 q 33 697 25 686 q 83 760 57 729 q 149 811 108 792 q 175 819 161 817 q 206 807 199 824 q 229 747 217 776 q 247 686 242 718 z "},"":{"ha":296,"x_min":21,"x_max":268,"o":"m 267 815 q 267 812 267 813 q 268 810 268 811 q 217 739 240 775 q 158 671 193 703 q 131 656 146 658 q 99 653 115 654 q 84 660 88 653 q 78 674 81 667 q 74 683 75 678 q 71 692 74 688 l 57 728 q 46 755 51 742 q 33 781 40 768 q 43 814 21 806 q 63 813 56 818 q 76 800 71 808 q 83 789 78 800 q 88 797 86 794 q 90 803 89 800 q 96 810 93 808 q 100 810 99 810 q 104 810 101 811 q 113 801 111 808 q 117 782 115 792 q 119 761 118 772 q 123 746 122 754 q 132 728 124 738 q 172 776 154 751 q 214 821 189 801 q 219 806 219 813 q 210 772 218 800 q 238 795 226 782 q 267 815 250 808 z "},"`":{"ha":260,"x_min":28,"x_max":235,"o":"m 231 668 q 228 660 235 664 l 164 690 q 164 681 160 685 q 163 671 168 678 q 104 703 135 690 q 44 732 74 717 q 28 747 29 740 q 40 765 28 754 q 50 781 47 772 q 58 796 53 789 q 89 814 72 814 q 114 804 100 814 q 126 794 121 799 q 138 782 132 789 q 183 724 158 753 q 231 668 207 696 z "},"":{"ha":247,"x_min":28,"x_max":219,"o":"m 219 769 q 210 751 219 757 q 150 706 179 728 q 90 661 121 685 q 81 656 86 658 q 67 656 75 653 q 77 672 69 665 q 88 692 85 679 q 57 667 68 681 q 28 639 46 653 q 47 683 39 663 q 68 721 56 703 q 99 759 83 740 q 125 799 114 778 q 149 814 133 814 q 169 811 157 815 q 192 800 181 807 q 211 785 203 793 q 219 769 219 776 z "},"":{"ha":379,"x_min":26,"x_max":353,"o":"m 349 796 q 349 783 353 788 q 342 771 344 778 q 327 748 335 760 q 313 725 319 736 q 281 694 301 706 q 236 683 260 683 q 176 707 201 683 q 146 725 158 725 q 132 722 139 725 q 114 711 125 718 q 110 708 111 710 q 106 706 108 707 l 90 694 q 86 692 88 693 q 82 689 85 690 q 79 697 75 693 q 81 704 83 700 q 67 701 72 706 q 56 693 63 696 q 44 686 49 690 q 32 683 40 682 q 28 691 26 688 q 32 699 29 694 q 56 737 43 718 q 85 771 68 756 q 157 800 117 800 q 196 791 178 800 q 225 767 214 782 q 242 755 232 756 q 264 758 251 754 q 288 772 278 763 q 310 789 299 781 q 309 771 314 778 q 303 754 304 764 q 329 774 322 761 q 349 796 336 786 m 219 703 q 256 704 242 692 q 239 705 247 703 q 219 703 231 707 z "},"":{"ha":261,"x_min":28,"x_max":235,"o":"m 142 815 q 181 812 163 818 q 211 794 199 806 q 229 765 224 782 q 231 731 235 749 q 211 686 225 707 q 164 657 197 665 q 161 656 163 656 q 107 639 128 639 q 79 647 92 639 q 51 674 67 656 q 49 665 46 671 q 44 656 51 660 q 29 708 28 681 q 44 758 31 735 q 83 797 58 781 q 142 815 108 813 m 175 760 q 165 779 181 775 q 149 781 156 783 q 138 772 143 778 q 117 747 124 761 q 106 717 111 732 q 112 699 104 704 q 133 697 119 693 q 153 708 144 700 q 175 760 171 733 m 138 678 l 138 682 l 106 682 q 138 678 122 665 z "},"":{"ha":492,"x_min":69,"x_max":464,"o":"m 464 719 q 440 639 460 675 q 388 576 419 603 q 317 536 357 550 q 235 522 278 522 q 170 533 200 522 q 118 563 140 543 q 83 609 96 582 q 69 669 69 636 q 89 752 69 714 q 140 819 108 790 q 212 865 171 849 q 296 882 253 882 q 415 838 369 882 q 464 719 461 794 m 403 726 q 401 740 401 733 q 399 754 400 747 q 363 811 392 790 q 296 832 333 832 q 239 819 268 832 q 187 787 210 807 q 151 742 164 767 q 133 689 138 717 q 138 635 129 661 q 177 581 149 600 q 240 563 206 563 q 301 577 272 563 q 352 615 329 592 q 389 667 375 638 q 403 726 403 696 m 339 794 q 381 755 375 781 q 361 707 388 729 q 340 690 350 697 q 319 672 329 682 l 319 671 q 321 669 321 669 q 335 658 333 661 q 335 639 336 654 q 329 626 335 628 q 315 625 324 624 q 267 640 290 626 q 249 646 257 646 q 231 631 239 646 l 228 626 q 226 625 226 626 q 221 634 217 628 q 217 643 225 640 q 206 631 211 636 q 196 619 201 625 q 178 613 189 610 q 169 619 172 615 q 168 629 168 622 l 176 658 q 192 703 182 682 q 213 746 203 724 q 227 765 217 758 q 253 776 238 772 q 274 781 264 779 q 296 788 285 783 l 239 788 q 244 796 239 794 q 253 799 249 797 q 297 801 275 801 q 339 794 318 801 m 310 715 q 319 722 315 718 q 321 732 324 725 q 313 738 318 736 q 300 740 307 740 q 284 740 292 742 q 272 729 276 739 q 263 713 268 721 q 251 692 258 704 q 310 715 281 697 z "},"":{"ha":493,"x_min":69,"x_max":467,"o":"m 464 742 q 458 680 467 711 q 429 621 449 649 q 381 572 410 593 q 317 538 353 550 q 235 522 274 522 q 169 533 200 522 q 117 566 139 544 q 82 617 94 588 q 69 685 69 647 q 94 763 74 726 q 147 825 115 799 q 217 867 178 851 q 299 882 257 882 q 410 844 363 882 q 464 742 457 807 m 403 725 q 397 760 403 744 q 359 814 388 796 q 296 832 331 832 q 242 821 271 832 q 190 790 213 810 q 152 744 167 769 q 133 692 138 719 q 138 638 129 664 q 176 582 149 601 q 240 563 204 563 q 301 576 272 563 q 352 613 329 590 q 389 665 375 636 q 403 725 403 694 m 329 774 q 336 756 342 765 q 319 747 331 747 l 279 747 q 300 738 289 738 q 319 731 311 738 q 295 726 307 728 q 272 721 283 724 q 221 689 238 711 q 216 665 210 675 q 242 653 222 656 l 263 653 q 272 655 268 654 q 282 656 276 656 q 279 649 283 651 q 279 642 275 646 q 301 651 292 644 q 321 661 310 657 q 312 640 319 651 q 292 621 304 629 q 267 607 281 613 q 240 601 253 601 q 196 615 217 600 q 169 653 175 631 q 181 721 163 688 q 235 774 199 754 q 282 786 258 786 q 311 782 297 786 q 329 774 321 781 z "},"":{"ha":825,"x_min":68,"x_max":869,"o":"m 368 846 l 368 840 l 471 840 q 449 822 463 825 q 424 818 436 819 q 381 813 401 815 q 338 807 360 810 q 311 788 317 806 q 291 714 300 751 q 271 639 282 676 q 256 587 264 613 q 236 536 247 561 q 229 562 229 549 q 231 588 229 575 q 235 615 233 601 q 235 642 238 628 q 223 622 225 632 q 215 601 221 611 q 183 582 206 578 q 156 614 151 589 q 172 660 163 638 q 192 706 181 682 q 224 788 211 749 q 190 786 206 790 q 160 781 175 782 q 141 778 150 779 q 122 774 132 776 q 106 772 114 771 q 90 779 97 772 q 90 792 83 786 q 100 804 96 797 q 83 814 92 810 q 71 828 74 818 q 72 847 68 836 q 83 866 75 857 q 101 881 90 875 q 124 888 113 888 q 176 888 150 888 q 229 885 203 888 q 272 889 254 881 q 304 910 289 897 q 321 918 311 917 q 326 910 324 915 q 333 894 333 903 q 342 882 333 886 q 363 879 351 878 q 386 881 375 881 q 496 871 444 883 q 431 856 464 856 q 368 846 397 856 m 822 885 q 857 877 844 888 q 863 849 869 867 q 851 828 857 836 q 810 753 828 792 q 779 675 793 715 q 755 608 768 642 q 728 542 742 575 q 723 528 725 535 q 711 519 721 522 q 715 563 708 542 q 722 613 721 585 q 685 550 699 581 q 650 492 672 519 q 686 601 671 546 q 713 713 701 656 q 699 710 701 715 q 693 701 696 706 q 633 619 660 667 q 624 606 628 611 q 617 598 621 601 q 606 592 613 594 q 586 583 599 589 q 595 619 593 604 q 596 651 597 635 q 589 687 594 668 q 572 732 583 706 q 515 619 540 675 q 467 506 490 563 q 465 544 463 525 q 473 583 468 564 q 483 622 478 603 q 489 660 488 640 q 468 620 474 642 q 444 579 463 599 q 440 597 439 589 q 443 611 440 604 q 472 738 458 675 q 510 863 486 800 q 547 903 519 889 q 571 908 557 908 q 586 901 578 907 q 601 889 594 896 q 613 874 608 882 q 617 861 618 867 q 616 809 611 835 q 621 757 621 783 q 623 728 621 742 q 628 701 625 715 q 679 786 651 742 q 735 868 707 831 q 772 890 751 890 q 799 885 786 890 q 810 883 806 882 q 822 885 815 883 z "},"\\":{"ha":760,"x_min":0,"x_max":663,"o":"m 0 767 q 6 776 3 772 q 17 775 10 779 q 26 769 22 772 q 35 772 31 767 q 35 780 39 776 q 29 788 32 783 q 26 792 28 790 q 22 797 24 794 q 26 835 4 822 q 46 840 33 840 q 78 824 65 840 q 99 801 85 813 q 108 797 104 797 q 119 799 113 796 q 147 807 136 807 q 179 790 163 807 q 201 761 190 776 q 221 729 213 746 q 328 558 269 642 q 435 388 386 475 q 436 385 436 385 q 525 247 488 318 q 600 103 563 175 l 600 93 q 568 126 581 108 q 539 160 556 144 q 602 42 565 97 q 663 -76 639 -14 q 567 36 610 -22 q 481 154 524 94 l 474 151 l 542 21 q 535 18 540 21 q 524 28 528 22 q 517 42 521 35 q 485 88 501 65 q 450 132 469 110 q 332 286 385 200 q 329 290 331 289 q 326 294 328 292 l 315 310 q 313 314 314 313 q 310 318 311 315 q 256 393 286 358 q 200 465 225 428 q 133 563 168 514 q 63 660 99 611 q 33 703 46 681 q 6 750 19 726 q 0 767 0 756 z "},"-":{"ha":746,"x_min":68,"x_max":676,"o":"m 667 453 q 676 447 676 453 q 668 438 676 440 q 643 432 656 435 q 618 426 631 429 l 69 321 q 81 366 68 353 q 135 389 93 379 q 133 394 138 394 q 125 396 128 394 q 113 428 101 408 q 124 449 118 439 q 136 471 129 460 q 156 485 143 482 q 182 486 169 488 l 633 483 q 603 469 619 471 q 571 458 586 467 q 595 453 585 453 q 617 454 606 454 l 629 454 l 654 453 l 667 453 z "},"|":{"ha":388,"x_min":-35,"x_max":494,"o":"m 488 1083 q 494 1074 494 1079 q 492 1067 493 1069 q 478 1016 488 1040 q 458 968 469 992 q 422 881 444 938 q 372 756 399 825 q 315 612 344 688 q 260 467 286 536 q 211 342 233 399 q 178 256 189 286 q 124 124 151 189 q 68 -7 96 60 q 60 -12 68 -7 l 78 51 q 33 -24 50 15 q -8 -101 15 -64 q -2 -38 -6 -69 q 6 28 1 -7 q -15 0 -10 15 q -35 -25 -19 -15 q -1 123 -24 36 q 51 308 21 210 q 114 511 81 407 q 178 714 147 615 q 238 898 210 813 q 283 1043 265 983 q 289 1056 286 1050 q 303 1065 292 1063 q 340 1047 308 1043 q 356 1044 351 1050 q 358 1029 360 1038 q 356 1010 357 1019 q 357 992 356 1001 q 382 1040 375 1013 q 393 1057 385 1053 q 414 1061 401 1061 q 429 1063 419 1063 q 464 1062 447 1060 q 488 1083 481 1064 z "},".":{"ha":150,"x_min":-25,"x_max":122,"o":"m 106 290 q 117 290 113 293 q 122 281 122 288 q 118 260 122 271 q 84 194 103 226 q 43 131 65 161 q 34 144 32 138 q 32 158 36 151 q 25 160 29 161 q 17 158 21 158 q -25 188 -22 156 q -7 279 -25 238 q 13 297 -3 290 q 47 303 29 303 q 79 296 65 303 q 91 288 86 292 q 106 290 96 285 z "},",":{"ha":161,"x_min":-25,"x_max":133,"o":"m 103 288 q 133 268 129 289 q 133 256 133 261 q 131 243 133 250 q 97 160 114 201 q 49 82 79 118 q 36 75 44 74 q 38 117 33 96 q 33 160 42 139 q 19 156 26 157 q 7 154 13 154 q -25 192 -24 154 q -8 267 -25 232 q 15 293 -1 283 q 51 303 32 303 q 85 294 68 303 q 92 289 89 292 q 103 288 96 286 z "},"^":{"ha":596,"x_min":17,"x_max":526,"o":"m 24 453 q 23 470 17 461 q 35 486 29 479 q 56 513 46 500 q 76 539 65 526 l 74 543 q 63 540 68 542 q 51 536 57 539 q 26 549 33 533 q 26 583 19 564 q 40 603 32 596 q 56 616 50 610 q 53 636 61 622 q 54 652 49 644 q 67 664 60 660 l 275 842 q 279 862 274 851 q 294 883 285 872 q 312 902 303 893 q 326 915 321 911 q 357 908 344 929 l 368 892 l 389 906 q 410 918 399 913 q 432 922 421 924 q 417 901 426 913 q 389 864 408 890 l 514 536 q 522 519 518 528 q 526 497 526 510 q 497 519 507 504 q 469 547 488 535 q 483 510 476 528 q 493 476 489 493 q 506 444 499 460 q 513 404 513 428 q 475 443 489 422 q 443 486 461 464 q 449 465 442 472 q 453 444 457 457 q 444 451 447 447 q 439 461 442 456 l 292 754 l 122 497 q 110 485 117 490 q 97 482 104 479 q 72 481 82 489 q 51 465 63 474 q 38 451 46 458 q 24 453 31 443 z "},"":{"ha":746,"x_min":68,"x_max":676,"o":"m 667 453 q 676 447 676 453 q 668 438 676 440 q 643 432 656 435 q 618 426 631 429 l 69 321 q 81 366 68 353 q 135 389 93 379 q 133 394 138 394 q 125 396 128 394 q 113 428 101 408 q 124 449 118 439 q 136 471 129 460 q 156 485 143 482 q 182 486 169 488 l 633 483 q 603 469 619 471 q 571 458 586 467 q 595 453 585 453 q 617 454 606 454 l 629 454 l 654 453 l 667 453 z "},"":{"ha":746,"x_min":0,"x_max":706,"o":"m 696 564 q 706 558 706 564 q 697 549 706 551 q 672 543 685 546 q 647 538 660 540 q 569 522 607 531 q 493 507 532 514 q 465 485 469 503 q 461 474 463 476 l 454 449 q 450 438 453 446 q 401 321 433 378 q 394 333 390 325 q 392 350 397 340 q 333 225 361 286 q 331 322 322 274 q 350 422 339 371 q 327 385 333 404 q 303 349 321 367 q 313 413 308 382 q 321 476 317 444 q 208 458 263 469 q 99 432 153 446 q 110 477 97 464 q 164 500 122 490 q 162 506 167 506 q 154 507 157 506 q 142 539 131 519 q 153 560 147 550 q 165 582 158 571 q 185 596 172 593 q 211 597 199 599 l 235 597 l 281 594 l 303 594 q 329 594 319 594 q 344 598 339 594 q 351 608 349 601 q 357 629 354 615 q 365 667 361 649 q 376 704 369 685 q 398 739 385 731 q 443 744 411 747 q 455 744 450 744 q 465 750 460 744 q 482 760 474 758 q 496 764 489 763 q 510 765 503 765 q 539 757 526 765 q 549 738 553 749 q 542 717 546 728 l 504 614 q 500 594 500 604 q 580 594 540 588 q 663 594 619 600 q 632 580 649 582 q 600 569 615 578 q 624 565 614 564 q 646 565 635 565 l 658 565 l 683 564 l 696 564 m 599 161 q 608 156 608 161 q 600 146 608 149 q 575 140 588 143 q 550 135 563 138 l 1 29 q 13 74 0 61 q 67 97 25 88 q 65 103 69 103 q 57 104 60 103 q 44 136 33 117 q 56 158 50 147 q 68 179 61 168 q 88 193 75 190 q 114 194 101 196 l 565 192 q 535 177 551 179 q 503 167 518 175 q 527 162 517 161 q 549 163 538 163 l 561 163 l 586 161 l 599 161 z "},"":{"ha":746,"x_min":68,"x_max":676,"o":"m 481 681 q 499 682 496 688 q 501 667 503 676 q 500 657 501 661 q 496 647 499 653 q 429 532 465 585 q 421 525 424 526 q 415 540 413 532 q 410 557 417 549 q 408 556 408 557 q 407 556 408 556 l 400 553 q 397 551 399 551 q 360 572 360 543 q 364 619 360 597 l 368 665 q 376 683 369 676 q 399 692 382 690 q 435 695 418 694 q 468 683 453 696 q 481 681 472 678 m 667 453 q 676 447 676 453 q 668 438 676 440 q 643 432 656 435 q 618 426 631 429 l 69 321 q 81 366 68 353 q 135 389 93 379 q 133 394 138 394 q 125 396 128 394 q 113 428 101 408 q 124 449 118 439 q 136 471 129 460 q 156 485 143 482 q 182 486 169 488 l 633 483 q 603 469 619 471 q 571 458 586 467 q 595 453 585 453 q 617 454 606 454 l 629 454 l 654 453 l 667 453 m 400 279 q 412 279 407 282 q 417 269 417 276 q 413 249 417 260 q 378 183 397 215 q 338 119 360 150 q 328 133 326 126 q 326 147 331 140 q 319 149 324 150 q 311 147 315 147 q 269 176 272 144 q 288 268 269 226 q 308 285 292 279 q 342 292 324 292 q 374 285 360 292 q 385 277 381 281 q 400 279 390 274 z "},"":{"ha":381,"x_min":7,"x_max":381,"o":"m 233 782 q 206 796 210 776 q 210 828 206 810 q 224 863 215 846 q 241 897 232 881 q 258 924 250 913 q 269 932 265 933 q 281 917 272 931 q 319 932 296 938 q 333 926 329 931 q 336 915 336 921 q 336 902 336 908 q 338 890 336 896 q 358 912 351 900 q 381 931 364 924 q 366 863 374 896 q 346 799 358 831 q 328 778 340 785 q 303 775 317 772 q 282 785 289 778 q 272 817 275 793 q 256 796 264 806 q 233 782 249 786 m 40 133 q 13 138 19 132 q 13 161 7 144 q 61 299 36 231 q 114 435 86 367 q 161 551 138 493 q 200 669 185 608 q 213 693 203 682 q 232 715 224 704 q 243 722 236 721 q 257 725 250 724 q 281 703 285 729 q 271 636 276 669 q 258 569 265 603 q 256 556 257 563 q 258 539 254 549 q 280 593 274 565 q 301 649 286 621 q 308 635 308 642 q 307 624 307 629 q 288 519 300 571 q 261 414 276 467 q 232 297 246 356 q 210 178 218 239 q 207 158 210 172 q 188 140 204 140 q 164 138 176 139 q 142 147 151 138 q 136 157 136 153 q 134 170 135 164 q 132 183 133 176 q 120 165 122 175 q 114 146 118 156 q 86 119 104 119 q 58 131 76 119 q 40 133 50 135 z "},"":{"ha":539,"x_min":69,"x_max":539,"o":"m 393 771 q 372 771 378 768 q 364 788 365 774 q 365 801 364 797 q 415 910 381 860 q 421 917 418 913 q 431 918 424 921 q 435 913 433 917 q 439 904 436 908 q 455 919 446 914 q 479 919 464 924 q 492 913 489 918 q 494 902 494 908 q 494 890 494 896 q 497 878 494 883 q 515 901 508 889 q 539 919 522 913 q 526 856 533 888 q 507 793 518 825 q 464 763 497 760 q 441 772 449 764 q 431 803 433 779 q 415 784 419 794 q 393 771 410 774 m 94 265 q 83 260 85 267 q 69 250 81 253 q 117 350 86 306 q 235 494 171 425 q 369 626 299 563 q 400 651 385 640 q 431 675 415 663 q 403 635 421 651 q 374 596 385 618 q 431 636 401 618 q 493 674 461 654 q 468 625 478 650 q 444 576 458 600 l 465 590 q 467 583 469 589 q 417 519 443 550 q 364 461 392 489 q 324 422 347 446 q 279 369 301 397 q 238 313 257 342 q 213 263 219 285 q 214 236 206 243 q 247 233 222 229 q 302 247 272 238 q 363 269 332 257 q 421 296 393 282 q 471 324 449 310 q 478 328 474 326 q 490 326 483 331 q 459 297 476 310 q 421 268 442 283 q 451 277 439 271 q 474 290 463 283 q 494 296 485 296 q 511 274 510 296 q 512 249 513 261 q 497 225 511 236 q 493 210 488 219 q 496 192 501 199 q 481 178 490 185 q 424 151 457 164 q 356 130 392 139 q 283 116 319 121 q 218 111 247 111 q 123 147 157 115 q 90 228 89 178 l 94 265 z "},"":{"ha":533,"x_min":69,"x_max":464,"o":"m 464 650 q 440 569 460 606 q 388 507 419 533 q 317 467 357 481 q 235 453 278 453 q 170 463 200 453 q 118 493 140 474 q 83 540 96 513 q 69 600 69 567 q 89 683 69 644 q 140 750 108 721 q 212 796 171 779 q 296 813 253 813 q 415 769 369 813 q 464 650 461 725 m 379 651 l 375 675 q 344 722 368 706 q 289 739 321 739 q 242 729 265 739 q 199 702 218 719 q 169 664 181 685 q 154 619 157 643 q 158 575 151 596 q 191 531 168 546 q 243 515 214 515 q 294 527 269 515 q 337 558 318 539 q 367 601 356 576 q 379 651 379 626 z "},"":{"ha":533,"x_min":69,"x_max":464,"o":"m 464 650 q 440 569 460 606 q 388 507 419 533 q 317 467 357 481 q 235 453 278 453 q 170 463 200 453 q 118 493 140 474 q 83 540 96 513 q 69 600 69 567 q 89 683 69 644 q 140 750 108 721 q 212 796 171 779 q 296 813 253 813 q 415 769 369 813 q 464 650 461 725 m 379 651 l 375 675 q 344 722 368 706 q 289 739 321 739 q 242 729 265 739 q 199 702 218 719 q 169 664 181 685 q 154 619 157 643 q 158 575 151 596 q 191 531 168 546 q 243 515 214 515 q 294 527 269 515 q 337 558 318 539 q 367 601 356 576 q 379 651 379 626 z "},"_":{"ha":733,"x_min":0,"x_max":622,"o":"m 613 258 q 622 253 622 258 q 614 243 622 246 q 589 238 601 240 q 564 232 576 235 l 1 126 q 13 172 0 158 q 67 194 25 185 q 65 200 69 200 q 57 201 60 200 q 44 233 33 214 q 56 255 50 244 q 68 276 61 265 q 88 290 75 288 q 114 292 101 293 l 579 289 q 549 274 565 276 q 517 264 532 272 q 541 259 531 258 q 563 260 551 260 l 575 260 l 600 258 l 613 258 z "},"":{"ha":369,"x_min":167,"x_max":357,"o":"m 344 907 q 353 884 350 896 q 353 861 357 872 q 317 770 339 814 q 258 686 294 726 q 259 701 257 694 q 265 713 261 707 q 271 724 268 718 q 274 736 274 729 q 220 676 240 708 q 172 613 200 643 q 189 699 175 657 q 206 783 203 740 q 186 752 193 768 q 168 721 179 736 q 169 748 167 735 q 175 775 172 761 q 179 826 178 800 q 178 876 181 851 q 203 910 176 906 q 239 896 226 914 q 245 883 243 890 q 257 869 247 876 l 257 889 q 261 915 257 908 q 282 925 265 921 q 344 907 329 936 z "},"":{"ha":231,"x_min":26,"x_max":217,"o":"m 39 638 q 30 660 33 649 q 31 683 26 672 q 67 774 44 731 q 125 858 89 818 q 124 844 126 850 q 119 832 122 838 q 113 821 115 826 q 110 808 110 815 q 163 869 143 836 q 211 932 183 901 q 194 846 208 888 q 178 761 181 804 q 197 792 190 776 q 215 824 204 808 q 214 797 217 810 q 208 769 211 783 q 204 719 206 744 q 206 668 203 693 q 181 635 207 639 q 144 649 157 631 q 138 661 140 654 q 126 675 136 668 l 126 656 q 122 630 126 636 q 101 619 118 624 q 39 638 54 608 z "},"\"":{"ha":564,"x_min":139,"x_max":551,"o":"m 317 907 q 326 884 322 896 q 325 861 329 872 q 289 770 311 814 q 231 686 267 726 q 231 701 229 694 q 237 713 233 707 q 243 724 240 718 q 246 736 246 729 q 192 676 213 708 q 144 613 172 643 q 161 699 147 657 q 178 783 175 740 q 158 752 165 768 q 140 721 151 736 q 142 748 139 735 q 147 775 144 761 q 151 826 150 800 q 150 876 153 851 q 175 910 149 906 q 211 896 199 914 q 217 883 215 890 q 229 869 219 876 l 229 889 q 233 915 229 908 q 254 925 238 921 q 317 907 301 936 m 539 907 q 548 884 544 896 q 547 861 551 872 q 511 770 533 814 q 453 686 489 726 q 453 701 451 694 q 459 713 456 707 q 465 724 463 718 q 468 736 468 729 q 415 676 435 708 q 367 613 394 643 q 383 699 369 657 q 400 783 397 740 q 381 752 388 768 q 363 721 374 736 q 364 748 361 735 q 369 775 367 761 q 374 826 372 800 q 372 876 375 851 q 397 910 371 906 q 433 896 421 914 q 440 883 438 890 q 451 869 442 876 l 451 889 q 456 915 451 908 q 476 925 460 921 q 539 907 524 936 z "},"":{"ha":467,"x_min":42,"x_max":454,"o":"m 219 907 q 228 884 225 896 q 228 861 232 872 q 192 770 214 814 q 133 686 169 726 q 134 701 132 694 q 140 713 136 707 q 146 724 143 718 q 149 736 149 729 q 95 676 115 708 q 47 613 75 643 q 64 699 50 657 q 81 783 78 740 q 61 752 68 768 q 43 721 54 736 q 44 748 42 735 q 50 775 47 761 q 54 826 53 800 q 53 876 56 851 q 78 910 51 906 q 114 896 101 914 q 120 883 118 890 q 132 869 122 876 l 132 889 q 136 915 132 908 q 157 925 140 921 q 219 907 204 936 m 442 907 q 451 884 447 896 q 450 861 454 872 q 414 770 436 814 q 356 686 392 726 q 356 701 354 694 q 362 713 358 707 q 368 724 365 718 q 371 736 371 729 q 317 676 338 708 q 269 613 297 643 q 286 699 272 657 q 303 783 300 740 q 283 752 290 768 q 265 721 276 736 q 267 748 264 735 q 272 775 269 761 q 276 826 275 800 q 275 876 278 851 q 300 910 274 906 q 336 896 324 914 q 342 883 340 890 q 354 869 344 876 l 354 889 q 358 915 354 908 q 379 925 363 921 q 442 907 426 936 z "},"":{"ha":453,"x_min":26,"x_max":439,"o":"m 261 638 q 252 660 256 649 q 253 683 249 672 q 289 774 267 731 q 347 858 311 818 q 347 844 349 850 q 341 832 344 838 q 335 821 338 826 q 332 808 332 815 q 385 869 365 836 q 433 932 406 901 q 417 846 431 888 q 400 761 403 804 q 419 792 413 776 q 438 824 426 808 q 436 797 439 810 q 431 769 433 783 q 426 719 428 744 q 428 668 425 693 q 403 635 429 639 q 367 649 379 631 q 360 661 363 654 q 349 675 358 668 l 349 656 q 344 630 349 636 q 324 619 340 624 q 261 638 276 608 m 39 638 q 30 660 33 649 q 31 683 26 672 q 67 774 44 731 q 125 858 89 818 q 124 844 126 850 q 119 832 122 838 q 113 821 115 826 q 110 808 110 815 q 163 869 143 836 q 211 932 183 901 q 194 846 208 888 q 178 761 181 804 q 197 792 190 776 q 215 824 204 808 q 214 797 217 810 q 208 769 211 783 q 204 719 206 744 q 206 668 203 693 q 181 635 207 639 q 144 649 157 631 q 138 661 140 654 q 126 675 136 668 l 126 656 q 122 630 126 636 q 101 619 118 624 q 39 638 54 608 z "},"":{"ha":467,"x_min":-14,"x_max":399,"o":"m 164 324 q 173 301 169 313 q 172 278 176 289 q 136 187 158 231 q 78 103 114 143 q 78 117 76 111 q 84 129 81 124 q 90 140 88 135 q 93 153 93 146 q 40 92 60 125 q -8 29 19 60 q 8 115 -6 74 q 25 200 22 157 q 6 169 13 185 q -12 138 -1 153 q -11 165 -14 151 q -6 192 -8 178 q -1 242 -3 217 q -3 293 0 268 q 22 326 -4 322 q 58 313 46 331 q 65 300 63 307 q 76 286 67 293 l 76 306 q 81 331 76 325 q 101 342 85 338 q 164 324 149 353 m 386 324 q 395 301 392 313 q 394 278 399 289 q 358 187 381 231 q 300 103 336 143 q 301 117 299 111 q 306 129 303 124 q 313 140 310 135 q 315 153 315 146 q 262 92 282 125 q 214 29 242 60 q 231 115 217 74 q 247 200 244 157 q 228 169 235 185 q 210 138 221 153 q 211 165 208 151 q 217 192 214 178 q 221 242 219 217 q 219 293 222 268 q 244 326 218 322 q 281 313 268 331 q 287 300 285 307 q 299 286 289 293 l 299 306 q 303 331 299 325 q 324 342 307 338 q 386 324 371 353 z "},"":{"ha":244,"x_min":-14,"x_max":176,"o":"m 164 324 q 173 301 169 313 q 172 278 176 289 q 136 187 158 231 q 78 103 114 143 q 78 117 76 111 q 84 129 81 124 q 90 140 88 135 q 93 153 93 146 q 40 92 60 125 q -8 29 19 60 q 8 115 -6 74 q 25 200 22 157 q 6 169 13 185 q -12 138 -1 153 q -11 165 -14 151 q -6 192 -8 178 q -1 242 -3 217 q -3 293 0 268 q 22 326 -4 322 q 58 313 46 331 q 65 300 63 307 q 76 286 67 293 l 76 306 q 81 331 76 325 q 101 342 85 338 q 164 324 149 353 z "},"":{"ha":599,"x_min":69,"x_max":631,"o":"m 624 642 q 622 628 631 633 q 606 618 613 622 q 585 601 594 610 q 578 578 575 593 q 573 567 581 571 q 558 558 565 563 q 428 488 492 525 q 299 419 365 451 l 283 411 q 281 390 268 403 q 342 315 315 354 q 406 242 368 275 q 417 224 417 233 q 399 231 404 222 q 379 243 393 240 q 413 201 396 221 q 442 156 431 182 q 406 173 419 163 q 376 193 392 183 q 347 211 361 201 q 313 233 332 221 q 334 199 321 214 q 349 165 347 185 q 328 174 336 168 q 314 186 321 179 q 237 251 275 218 q 160 318 199 285 q 146 331 150 326 q 136 335 142 335 q 110 322 133 335 q 69 303 90 308 q 81 324 72 314 q 99 340 89 333 q 113 356 108 349 q 101 374 117 364 q 103 404 82 388 q 125 420 114 411 q 154 424 136 429 q 169 428 165 421 q 213 471 189 451 q 257 514 238 490 q 301 555 276 536 q 346 596 326 574 q 376 626 361 611 q 408 651 392 640 q 424 661 415 657 q 439 658 432 665 q 458 651 451 647 q 474 663 465 656 q 497 672 483 669 q 530 663 517 675 q 536 636 543 651 l 524 615 l 528 613 q 558 626 543 619 q 589 639 574 632 q 607 646 597 642 q 624 642 617 650 z "},"":{"ha":536,"x_min":-96,"x_max":465,"o":"m 436 475 q 422 460 426 467 q 433 442 418 453 q 443 427 444 435 q 432 413 442 419 q 410 396 421 404 q 381 392 399 388 q 365 388 369 397 q 322 345 346 364 q 278 303 297 326 q 233 261 258 279 q 189 219 208 243 q 126 164 163 190 q 111 156 119 160 q 96 158 103 151 q 76 165 83 169 q 61 154 69 160 q 38 144 49 144 q 5 153 18 142 q -1 181 -8 165 q 5 191 1 186 q 11 200 8 196 l 7 204 q -24 190 -8 197 q -54 176 -39 183 q -72 170 -62 174 q -89 174 -82 167 q -87 188 -96 183 q -71 199 -78 193 q -50 215 -60 207 q -43 239 -40 222 q -38 250 -46 246 q -24 257 -31 254 q 106 328 43 292 q 236 397 169 364 l 251 406 q 254 426 265 413 q 193 501 219 463 q 129 575 167 540 q 118 592 118 583 q 136 584 131 593 q 156 574 142 575 q 122 615 139 594 q 93 661 106 635 q 129 644 115 654 q 158 624 143 633 q 188 604 174 614 q 222 582 203 594 q 201 617 214 603 q 186 651 188 632 q 206 643 199 649 q 221 631 214 638 q 240 614 231 622 q 260 597 250 606 l 336 532 q 356 515 347 524 q 375 499 365 507 q 389 486 385 490 q 399 482 393 482 q 425 494 403 482 q 445 505 436 500 q 465 514 454 510 q 454 492 463 501 q 436 475 446 483 z "},"":{"ha":946,"x_min":69,"x_max":978,"o":"m 624 642 q 622 628 631 633 q 606 618 613 622 q 585 601 594 610 q 578 578 575 593 q 573 567 581 571 q 558 558 565 563 q 428 488 492 525 q 299 419 365 451 l 283 411 q 281 390 268 403 q 342 315 315 354 q 406 242 368 275 q 417 224 417 233 q 399 231 404 222 q 379 243 393 240 q 413 201 396 221 q 442 156 431 182 q 406 173 419 163 q 376 193 392 183 q 347 211 361 201 q 313 233 332 221 q 334 199 321 214 q 349 165 347 185 q 328 174 336 168 q 314 186 321 179 q 237 251 275 218 q 160 318 199 285 q 146 331 150 326 q 136 335 142 335 q 110 322 133 335 q 69 303 90 308 q 81 324 72 314 q 99 340 89 333 q 113 356 108 349 q 101 374 117 364 q 103 404 82 388 q 125 420 114 411 q 154 424 136 429 q 169 428 165 421 q 213 471 189 451 q 257 514 238 490 q 301 555 276 536 q 346 596 326 574 q 376 626 361 611 q 408 651 392 640 q 424 661 415 657 q 439 658 432 665 q 458 651 451 647 q 474 663 465 656 q 497 672 483 669 q 530 663 517 675 q 536 636 543 651 l 524 615 l 528 613 q 558 626 543 619 q 589 639 574 632 q 607 646 597 642 q 624 642 617 650 m 971 642 q 969 628 978 633 q 953 618 960 622 q 932 601 942 610 q 925 578 922 593 q 920 567 928 571 q 906 558 913 563 q 776 488 839 525 q 646 419 713 451 l 631 411 q 628 390 615 403 q 689 315 663 354 q 753 242 715 275 q 764 224 764 233 q 746 231 751 222 q 726 243 740 240 q 760 201 743 221 q 789 156 778 182 q 753 173 767 163 q 724 193 739 183 q 694 211 708 201 q 660 233 679 221 q 681 199 668 214 q 696 165 694 185 q 676 174 683 168 q 661 186 668 179 q 584 251 622 218 q 507 318 546 285 q 493 331 497 326 q 483 335 489 335 q 457 322 481 335 q 417 303 438 308 q 428 324 419 314 q 446 340 436 333 q 460 356 456 349 q 449 374 464 364 q 450 404 429 388 q 472 420 461 411 q 501 424 483 429 q 517 428 513 421 q 560 471 536 451 q 604 514 585 490 q 649 555 624 536 q 693 596 674 574 q 724 626 708 611 q 756 651 739 640 q 771 661 763 657 q 786 658 779 665 q 806 651 799 647 q 821 663 813 656 q 844 672 831 669 q 877 663 864 675 q 883 636 890 651 l 871 615 l 875 613 q 906 626 890 619 q 936 639 921 632 q 954 646 944 642 q 971 642 964 650 z "},"":{"ha":883,"x_min":-96,"x_max":813,"o":"m 436 475 q 422 460 426 467 q 433 442 418 453 q 443 427 444 435 q 432 413 442 419 q 410 396 421 404 q 381 392 399 388 q 365 388 369 397 q 322 345 346 364 q 278 303 297 326 q 233 261 258 279 q 189 219 208 243 q 126 164 163 190 q 111 156 119 160 q 96 158 103 151 q 76 165 83 169 q 61 154 69 160 q 38 144 49 144 q 5 153 18 142 q -1 181 -8 165 q 5 191 1 186 q 11 200 8 196 l 7 204 q -24 190 -8 197 q -54 176 -39 183 q -72 170 -62 174 q -89 174 -82 167 q -87 188 -96 183 q -71 199 -78 193 q -50 215 -60 207 q -43 239 -40 222 q -38 250 -46 246 q -24 257 -31 254 q 106 328 43 292 q 236 397 169 364 l 251 406 q 254 426 265 413 q 193 501 219 463 q 129 575 167 540 q 118 592 118 583 q 136 584 131 593 q 156 574 142 575 q 122 615 139 594 q 93 661 106 635 q 129 644 115 654 q 158 624 143 633 q 188 604 174 614 q 222 582 203 594 q 201 617 214 603 q 186 651 188 632 q 206 643 199 649 q 221 631 214 638 q 240 614 231 622 q 260 597 250 606 l 336 532 q 356 515 347 524 q 375 499 365 507 q 389 486 385 490 q 399 482 393 482 q 425 494 403 482 q 445 505 436 500 q 465 514 454 510 q 454 492 463 501 q 436 475 446 483 m 783 475 q 769 460 774 467 q 781 442 765 453 q 790 427 792 435 q 779 413 789 419 q 757 396 768 404 q 728 392 746 388 q 713 388 717 397 q 669 345 693 364 q 625 303 644 326 q 581 261 606 279 q 536 219 556 243 q 474 164 510 190 q 458 156 467 160 q 443 158 450 151 q 424 165 431 169 q 408 154 417 160 q 385 144 396 144 q 352 153 365 142 q 346 181 339 165 q 352 191 349 186 q 358 200 356 196 l 354 204 q 324 190 339 197 q 293 176 308 183 q 275 170 285 174 q 258 174 265 167 q 260 188 251 183 q 276 199 269 193 q 297 215 288 207 q 304 239 307 222 q 309 250 301 246 q 324 257 317 254 q 453 328 390 292 q 583 397 517 364 l 599 406 q 601 426 613 413 q 540 501 567 463 q 476 575 514 540 q 465 592 465 583 q 483 584 478 593 q 503 574 489 575 q 469 615 486 594 q 440 661 453 635 q 476 644 463 654 q 506 624 490 633 q 535 604 521 614 q 569 582 550 594 q 548 617 561 603 q 533 651 535 632 q 553 643 546 649 q 568 631 561 638 q 588 614 578 622 q 607 597 597 606 l 683 532 q 703 515 694 524 q 722 499 713 507 q 736 486 732 490 q 746 482 740 482 q 772 494 750 482 q 792 505 783 500 q 813 514 801 510 q 801 492 810 501 q 783 475 793 483 z "},"":{"ha":997,"x_min":28,"x_max":956,"o":"m 946 383 q 956 378 956 383 q 947 368 956 371 l 922 361 l 897 357 l 29 251 q 40 297 28 283 q 94 319 53 310 q 92 325 97 325 q 85 326 88 325 q 72 358 61 339 q 83 380 78 369 q 96 401 89 390 q 116 415 103 413 q 142 417 129 418 l 913 414 q 882 399 899 401 q 850 389 865 397 q 874 384 864 383 q 896 385 885 385 l 908 385 l 933 383 l 946 383 z "},"":{"ha":1192,"x_min":28,"x_max":1150,"o":"m 1140 481 q 1150 475 1150 481 q 1142 465 1150 468 l 1117 458 l 1092 454 l 29 335 q 40 380 28 367 q 94 403 53 393 q 92 408 97 408 q 85 410 88 408 q 72 442 61 422 q 83 463 78 453 q 96 485 89 474 q 116 499 103 496 q 142 500 129 501 l 1107 511 q 1076 497 1093 499 q 1044 486 1060 494 q 1069 481 1058 481 q 1090 482 1079 482 l 1103 482 l 1128 481 l 1140 481 z "},"":{"ha":692,"x_min":28,"x_max":650,"o":"m 640 661 q 650 656 650 661 q 642 646 650 649 q 617 640 629 643 q 592 635 604 638 l 29 529 q 40 574 28 561 q 94 597 53 588 q 92 603 97 603 q 85 604 88 603 q 72 636 61 617 q 83 658 78 647 q 96 679 89 668 q 116 693 103 690 q 142 694 129 696 l 607 692 q 576 677 593 679 q 544 667 560 675 q 569 662 558 661 q 590 663 579 663 l 603 663 l 628 661 l 640 661 z "},"":{"ha":215,"x_min":65,"x_max":208,"o":"m 186 553 q 205 554 201 560 q 207 539 208 549 q 206 529 207 533 q 201 519 204 525 q 135 404 171 457 q 126 397 129 399 q 120 413 118 404 q 115 429 122 421 q 114 428 114 429 q 113 428 114 428 l 106 425 q 103 424 104 424 q 65 444 65 415 q 69 492 65 469 l 74 538 q 81 556 75 549 q 104 564 88 563 q 141 567 124 567 q 174 556 158 568 q 186 553 178 550 z "},"":{"ha":215,"x_min":65,"x_max":208,"o":"m 186 553 q 205 554 201 560 q 207 539 208 549 q 206 529 207 533 q 201 519 204 525 q 135 404 171 457 q 126 397 129 399 q 120 413 118 404 q 115 429 122 421 q 114 428 114 429 q 113 428 114 428 l 106 425 q 103 424 104 424 q 65 444 65 415 q 69 492 65 469 l 74 538 q 81 556 75 549 q 104 564 88 563 q 141 567 124 567 q 174 556 158 568 q 186 553 178 550 z "}}}
